<svg width="21" height="21" viewBox="0 0 21 21" fill="none" xmlns="http://www.w3.org/2000/svg">
<path d="M4.15188 0.378906C2.1289 0.378906 0.5 2.00781 0.5 4.03079V16.727C0.5 18.75 2.1289 20.3789 4.15188 20.3789H11.0331V12.5602H8.96564V9.74517H11.0331V7.34017C11.0331 5.45067 12.2547 3.71579 15.0688 3.71579C16.2081 3.71579 17.0506 3.82517 17.0506 3.82517L16.9844 6.45393C16.9844 6.45393 16.1251 6.44581 15.1875 6.44581C14.1727 6.44581 14.01 6.91337 14.01 7.68957V9.74519H17.065L16.9319 12.5602H14.01V20.3789H16.8481C18.8711 20.3789 20.5 18.75 20.5 16.7271V4.03081C20.5 2.00783 18.8711 0.378926 16.8481 0.378926H4.15186L4.15188 0.378906Z" fill="#535353"/>
</svg>
