<svg width="603" height="48" viewBox="0 0 603 48" fill="none" xmlns="http://www.w3.org/2000/svg">
<mask id="path-1-inside-1_1211_6626" fill="white">
<path d="M42.0424 41.0387C39.9222 42.895 37.2941 44.5304 34.158 45.9448C31.066 47.3149 27.6207 48 23.8221 48C20.1559 48 16.8652 47.3812 13.9499 46.1436C11.0788 44.8619 8.64947 43.1381 6.66179 40.9724C4.67412 38.8066 3.15023 36.2873 2.09014 33.4144C1.03005 30.4972 0.5 27.4033 0.5 24.1326V24C0.5 20.8619 1.03005 17.8564 2.09014 14.9834C3.1944 12.0663 4.74037 9.50276 6.72805 7.29281C8.75989 5.08287 11.1893 3.31492 14.0162 1.98895C16.8431 0.662983 19.9792 0 23.4245 0C25.3239 0 27.0465 0.132596 28.5925 0.397789C30.1826 0.662981 31.6402 1.06077 32.9654 1.59116C34.3346 2.12154 35.6156 2.76243 36.8082 3.51381C38.045 4.26519 39.2376 5.12707 40.386 6.09945L38.1333 8.68508C36.3223 7.09392 34.2463 5.76795 31.9053 4.70718C29.6084 3.64641 26.7152 3.11602 23.2258 3.11602C20.3988 3.11602 17.8149 3.66851 15.4738 4.77348C13.1328 5.87845 11.1009 7.38122 9.37828 9.28177C7.6998 11.1823 6.39677 13.3923 5.46919 15.9116C4.54161 18.4309 4.07781 21.0829 4.07781 23.8674V24C4.07781 27.0055 4.51952 29.7901 5.40293 32.3536C6.33051 34.9171 7.65563 37.1271 9.37828 38.9834C11.1009 40.8398 13.1769 42.2983 15.6063 43.3591C18.0799 44.4199 20.8626 44.9503 23.9546 44.9503C25.4122 44.9503 26.8477 44.8177 28.2612 44.5525C29.6747 44.2431 30.9998 43.8453 32.2365 43.3591C33.5175 42.8729 34.7101 42.3204 35.8144 41.7017C36.9186 41.0387 37.8904 40.3536 38.7296 39.6464V26.3204H23.2258V23.1381H42.0424V41.0387Z"/>
<path d="M102.546 47.2044H98.173L83.398 27.9779H68.2254V47.2044H64.7801V0.795578H84.2593C86.777 0.795578 89.0518 1.12707 91.0836 1.79005C93.1155 2.40884 94.8381 3.31492 96.2516 4.50828C97.7092 5.65746 98.8356 7.04972 99.6306 8.68508C100.426 10.2762 100.823 12.0442 100.823 13.9889V14.1215C100.823 16.0663 100.47 17.8122 99.7631 19.3591C99.1006 20.8619 98.1509 22.1657 96.9141 23.2707C95.7215 24.3757 94.286 25.2818 92.6075 25.9889C90.9732 26.6519 89.1843 27.116 87.2408 27.3812L102.546 47.2044ZM97.3779 14.2541V14.1215C97.3779 10.9834 96.2074 8.50829 93.8664 6.69613C91.5695 4.88398 88.3009 3.9779 84.0605 3.9779H68.2254V24.8619H83.8617C85.8053 24.8619 87.5942 24.6188 89.2285 24.1326C90.907 23.6464 92.3425 22.9613 93.5351 22.0773C94.7277 21.1492 95.6553 20.0442 96.3178 18.7624C97.0246 17.4365 97.3779 15.9337 97.3779 14.2541Z"/>
<path d="M165.466 47.2044H161.69L155.793 34.2099H128.429L122.532 47.2044H118.955L140.554 0.464086H143.867L165.466 47.2044ZM154.335 31.0939L142.144 4.24309L129.887 31.0939H154.335Z"/>
<path d="M224.105 47.2044H221.521L188.857 5.96685V47.2044H185.544V0.795578H188.791L220.792 41.1713V0.795578H224.105V47.2044Z"/>
<path d="M288.243 24C288.243 27.2707 287.647 30.3204 286.454 33.1492C285.262 35.9779 283.561 38.4309 281.353 40.5083C279.188 42.5856 276.582 44.221 273.535 45.4144C270.531 46.6077 267.218 47.2044 263.596 47.2044H248.159V0.795578H263.596C267.218 0.795578 270.531 1.39226 273.535 2.58563C276.582 3.73481 279.188 5.34807 281.353 7.42541C283.561 9.50276 285.262 11.9558 286.454 14.7845C287.647 17.5691 288.243 20.5967 288.243 23.8674V24ZM284.666 24.1326V24C284.666 21.2597 284.158 18.674 283.142 16.2431C282.17 13.8122 280.779 11.6906 278.968 9.87845C277.157 8.0663 274.948 6.62983 272.342 5.56906C269.736 4.50829 266.821 3.9779 263.596 3.9779H251.604V44.0221H263.596C266.821 44.0221 269.736 43.5138 272.342 42.4972C274.948 41.4365 277.157 40.0221 278.968 38.2541C280.779 36.442 282.17 34.3425 283.142 31.9558C284.158 29.5249 284.666 26.9171 284.666 24.1326Z"/>
<path d="M376.962 47.2044H373.517V25.4586H343.834V47.2044H340.389V0.795578H343.834V22.2762H373.517V0.795578H376.962V47.2044Z"/>
<path d="M445.588 24C445.588 27.1823 445.013 30.232 443.865 33.1492C442.761 36.0221 441.193 38.5635 439.161 40.7735C437.129 42.9834 434.655 44.7514 431.74 46.0773C428.869 47.3591 425.689 48 422.199 48C418.666 48 415.463 47.3591 412.592 46.0773C409.765 44.7514 407.336 43.0055 405.304 40.8398C403.272 38.6298 401.704 36.0884 400.6 33.2155C399.496 30.3425 398.943 27.3149 398.943 24.1326V24C398.943 20.8177 399.496 17.7901 400.6 14.9171C401.748 12 403.338 9.43646 405.37 7.22652C407.402 5.01657 409.854 3.27072 412.725 1.98895C415.596 0.662983 418.798 0 422.332 0C425.821 0 429.002 0.662983 431.873 1.98895C434.744 3.27072 437.195 5.01657 439.227 7.22652C441.259 9.39226 442.827 11.9116 443.931 14.7845C445.035 17.6575 445.588 20.6851 445.588 23.8674C445.632 23.9116 445.632 23.9558 445.588 24ZM442.01 24.1326V24C442.01 21.1271 441.502 18.4309 440.486 15.9116C439.514 13.3481 438.145 11.1381 436.378 9.28177C434.655 7.38122 432.579 5.87845 430.15 4.77348C427.721 3.66851 425.07 3.11602 422.199 3.11602C419.328 3.11602 416.678 3.66851 414.249 4.77348C411.863 5.83425 409.787 7.31491 408.02 9.21547C406.298 11.0718 404.951 13.2597 403.979 15.779C403.007 18.2983 402.521 20.9945 402.521 23.8674V24C402.521 26.8729 403.007 29.5912 403.979 32.1547C404.995 34.674 406.364 36.884 408.087 38.7845C409.854 40.6409 411.952 42.1215 414.381 43.2265C416.81 44.3315 419.461 44.884 422.332 44.884C425.203 44.884 427.831 44.3536 430.216 43.2928C432.646 42.1878 434.722 40.7072 436.444 38.8508C438.211 36.9503 439.58 34.7403 440.552 32.221C441.524 29.7017 442.01 27.0055 442.01 24.1326Z"/>
<path d="M496.401 3.9779H480.234V47.2044H476.789V3.9779H460.622V0.795578H496.401V3.9779Z"/>
<path d="M550.494 47.2044H517.168V0.795578H550.163V3.9779H520.613V22.2099H547.182V25.3923H520.613V44.0221H550.494V47.2044Z"/>
<path d="M602.5 47.2044H571.824V0.795578H575.269V44.0221H602.5V47.2044Z"/>
</mask>
<path d="M42.0424 41.0387C39.9222 42.895 37.2941 44.5304 34.158 45.9448C31.066 47.3149 27.6207 48 23.8221 48C20.1559 48 16.8652 47.3812 13.9499 46.1436C11.0788 44.8619 8.64947 43.1381 6.66179 40.9724C4.67412 38.8066 3.15023 36.2873 2.09014 33.4144C1.03005 30.4972 0.5 27.4033 0.5 24.1326V24C0.5 20.8619 1.03005 17.8564 2.09014 14.9834C3.1944 12.0663 4.74037 9.50276 6.72805 7.29281C8.75989 5.08287 11.1893 3.31492 14.0162 1.98895C16.8431 0.662983 19.9792 0 23.4245 0C25.3239 0 27.0465 0.132596 28.5925 0.397789C30.1826 0.662981 31.6402 1.06077 32.9654 1.59116C34.3346 2.12154 35.6156 2.76243 36.8082 3.51381C38.045 4.26519 39.2376 5.12707 40.386 6.09945L38.1333 8.68508C36.3223 7.09392 34.2463 5.76795 31.9053 4.70718C29.6084 3.64641 26.7152 3.11602 23.2258 3.11602C20.3988 3.11602 17.8149 3.66851 15.4738 4.77348C13.1328 5.87845 11.1009 7.38122 9.37828 9.28177C7.6998 11.1823 6.39677 13.3923 5.46919 15.9116C4.54161 18.4309 4.07781 21.0829 4.07781 23.8674V24C4.07781 27.0055 4.51952 29.7901 5.40293 32.3536C6.33051 34.9171 7.65563 37.1271 9.37828 38.9834C11.1009 40.8398 13.1769 42.2983 15.6063 43.3591C18.0799 44.4199 20.8626 44.9503 23.9546 44.9503C25.4122 44.9503 26.8477 44.8177 28.2612 44.5525C29.6747 44.2431 30.9998 43.8453 32.2365 43.3591C33.5175 42.8729 34.7101 42.3204 35.8144 41.7017C36.9186 41.0387 37.8904 40.3536 38.7296 39.6464V26.3204H23.2258V23.1381H42.0424V41.0387Z" fill="white"/>
<path d="M102.546 47.2044H98.173L83.398 27.9779H68.2254V47.2044H64.7801V0.795578H84.2593C86.777 0.795578 89.0518 1.12707 91.0836 1.79005C93.1155 2.40884 94.8381 3.31492 96.2516 4.50828C97.7092 5.65746 98.8356 7.04972 99.6306 8.68508C100.426 10.2762 100.823 12.0442 100.823 13.9889V14.1215C100.823 16.0663 100.47 17.8122 99.7631 19.3591C99.1006 20.8619 98.1509 22.1657 96.9141 23.2707C95.7215 24.3757 94.286 25.2818 92.6075 25.9889C90.9732 26.6519 89.1843 27.116 87.2408 27.3812L102.546 47.2044ZM97.3779 14.2541V14.1215C97.3779 10.9834 96.2074 8.50829 93.8664 6.69613C91.5695 4.88398 88.3009 3.9779 84.0605 3.9779H68.2254V24.8619H83.8617C85.8053 24.8619 87.5942 24.6188 89.2285 24.1326C90.907 23.6464 92.3425 22.9613 93.5351 22.0773C94.7277 21.1492 95.6553 20.0442 96.3178 18.7624C97.0246 17.4365 97.3779 15.9337 97.3779 14.2541Z" fill="white"/>
<path d="M165.466 47.2044H161.69L155.793 34.2099H128.429L122.532 47.2044H118.955L140.554 0.464086H143.867L165.466 47.2044ZM154.335 31.0939L142.144 4.24309L129.887 31.0939H154.335Z" fill="white"/>
<path d="M224.105 47.2044H221.521L188.857 5.96685V47.2044H185.544V0.795578H188.791L220.792 41.1713V0.795578H224.105V47.2044Z" fill="white"/>
<path d="M288.243 24C288.243 27.2707 287.647 30.3204 286.454 33.1492C285.262 35.9779 283.561 38.4309 281.353 40.5083C279.188 42.5856 276.582 44.221 273.535 45.4144C270.531 46.6077 267.218 47.2044 263.596 47.2044H248.159V0.795578H263.596C267.218 0.795578 270.531 1.39226 273.535 2.58563C276.582 3.73481 279.188 5.34807 281.353 7.42541C283.561 9.50276 285.262 11.9558 286.454 14.7845C287.647 17.5691 288.243 20.5967 288.243 23.8674V24ZM284.666 24.1326V24C284.666 21.2597 284.158 18.674 283.142 16.2431C282.17 13.8122 280.779 11.6906 278.968 9.87845C277.157 8.0663 274.948 6.62983 272.342 5.56906C269.736 4.50829 266.821 3.9779 263.596 3.9779H251.604V44.0221H263.596C266.821 44.0221 269.736 43.5138 272.342 42.4972C274.948 41.4365 277.157 40.0221 278.968 38.2541C280.779 36.442 282.17 34.3425 283.142 31.9558C284.158 29.5249 284.666 26.9171 284.666 24.1326Z" fill="white"/>
<path d="M376.962 47.2044H373.517V25.4586H343.834V47.2044H340.389V0.795578H343.834V22.2762H373.517V0.795578H376.962V47.2044Z" fill="white"/>
<path d="M445.588 24C445.588 27.1823 445.013 30.232 443.865 33.1492C442.761 36.0221 441.193 38.5635 439.161 40.7735C437.129 42.9834 434.655 44.7514 431.74 46.0773C428.869 47.3591 425.689 48 422.199 48C418.666 48 415.463 47.3591 412.592 46.0773C409.765 44.7514 407.336 43.0055 405.304 40.8398C403.272 38.6298 401.704 36.0884 400.6 33.2155C399.496 30.3425 398.943 27.3149 398.943 24.1326V24C398.943 20.8177 399.496 17.7901 400.6 14.9171C401.748 12 403.338 9.43646 405.37 7.22652C407.402 5.01657 409.854 3.27072 412.725 1.98895C415.596 0.662983 418.798 0 422.332 0C425.821 0 429.002 0.662983 431.873 1.98895C434.744 3.27072 437.195 5.01657 439.227 7.22652C441.259 9.39226 442.827 11.9116 443.931 14.7845C445.035 17.6575 445.588 20.6851 445.588 23.8674C445.632 23.9116 445.632 23.9558 445.588 24ZM442.01 24.1326V24C442.01 21.1271 441.502 18.4309 440.486 15.9116C439.514 13.3481 438.145 11.1381 436.378 9.28177C434.655 7.38122 432.579 5.87845 430.15 4.77348C427.721 3.66851 425.07 3.11602 422.199 3.11602C419.328 3.11602 416.678 3.66851 414.249 4.77348C411.863 5.83425 409.787 7.31491 408.02 9.21547C406.298 11.0718 404.951 13.2597 403.979 15.779C403.007 18.2983 402.521 20.9945 402.521 23.8674V24C402.521 26.8729 403.007 29.5912 403.979 32.1547C404.995 34.674 406.364 36.884 408.087 38.7845C409.854 40.6409 411.952 42.1215 414.381 43.2265C416.81 44.3315 419.461 44.884 422.332 44.884C425.203 44.884 427.831 44.3536 430.216 43.2928C432.646 42.1878 434.722 40.7072 436.444 38.8508C438.211 36.9503 439.58 34.7403 440.552 32.221C441.524 29.7017 442.01 27.0055 442.01 24.1326Z" fill="white"/>
<path d="M496.401 3.9779H480.234V47.2044H476.789V3.9779H460.622V0.795578H496.401V3.9779Z" fill="white"/>
<path d="M550.494 47.2044H517.168V0.795578H550.163V3.9779H520.613V22.2099H547.182V25.3923H520.613V44.0221H550.494V47.2044Z" fill="white"/>
<path d="M602.5 47.2044H571.824V0.795578H575.269V44.0221H602.5V47.2044Z" fill="white"/>
<path d="M42.0424 41.0387C39.9222 42.895 37.2941 44.5304 34.158 45.9448C31.066 47.3149 27.6207 48 23.8221 48C20.1559 48 16.8652 47.3812 13.9499 46.1436C11.0788 44.8619 8.64947 43.1381 6.66179 40.9724C4.67412 38.8066 3.15023 36.2873 2.09014 33.4144C1.03005 30.4972 0.5 27.4033 0.5 24.1326V24C0.5 20.8619 1.03005 17.8564 2.09014 14.9834C3.1944 12.0663 4.74037 9.50276 6.72805 7.29281C8.75989 5.08287 11.1893 3.31492 14.0162 1.98895C16.8431 0.662983 19.9792 0 23.4245 0C25.3239 0 27.0465 0.132596 28.5925 0.397789C30.1826 0.662981 31.6402 1.06077 32.9654 1.59116C34.3346 2.12154 35.6156 2.76243 36.8082 3.51381C38.045 4.26519 39.2376 5.12707 40.386 6.09945L38.1333 8.68508C36.3223 7.09392 34.2463 5.76795 31.9053 4.70718C29.6084 3.64641 26.7152 3.11602 23.2258 3.11602C20.3988 3.11602 17.8149 3.66851 15.4738 4.77348C13.1328 5.87845 11.1009 7.38122 9.37828 9.28177C7.6998 11.1823 6.39677 13.3923 5.46919 15.9116C4.54161 18.4309 4.07781 21.0829 4.07781 23.8674V24C4.07781 27.0055 4.51952 29.7901 5.40293 32.3536C6.33051 34.9171 7.65563 37.1271 9.37828 38.9834C11.1009 40.8398 13.1769 42.2983 15.6063 43.3591C18.0799 44.4199 20.8626 44.9503 23.9546 44.9503C25.4122 44.9503 26.8477 44.8177 28.2612 44.5525C29.6747 44.2431 30.9998 43.8453 32.2365 43.3591C33.5175 42.8729 34.7101 42.3204 35.8144 41.7017C36.9186 41.0387 37.8904 40.3536 38.7296 39.6464V26.3204H23.2258V23.1381H42.0424V41.0387Z" stroke="white" stroke-width="2" mask="url(#path-1-inside-1_1211_6626)"/>
<path d="M102.546 47.2044H98.173L83.398 27.9779H68.2254V47.2044H64.7801V0.795578H84.2593C86.777 0.795578 89.0518 1.12707 91.0836 1.79005C93.1155 2.40884 94.8381 3.31492 96.2516 4.50828C97.7092 5.65746 98.8356 7.04972 99.6306 8.68508C100.426 10.2762 100.823 12.0442 100.823 13.9889V14.1215C100.823 16.0663 100.47 17.8122 99.7631 19.3591C99.1006 20.8619 98.1509 22.1657 96.9141 23.2707C95.7215 24.3757 94.286 25.2818 92.6075 25.9889C90.9732 26.6519 89.1843 27.116 87.2408 27.3812L102.546 47.2044ZM97.3779 14.2541V14.1215C97.3779 10.9834 96.2074 8.50829 93.8664 6.69613C91.5695 4.88398 88.3009 3.9779 84.0605 3.9779H68.2254V24.8619H83.8617C85.8053 24.8619 87.5942 24.6188 89.2285 24.1326C90.907 23.6464 92.3425 22.9613 93.5351 22.0773C94.7277 21.1492 95.6553 20.0442 96.3178 18.7624C97.0246 17.4365 97.3779 15.9337 97.3779 14.2541Z" stroke="white" stroke-width="2" mask="url(#path-1-inside-1_1211_6626)"/>
<path d="M165.466 47.2044H161.69L155.793 34.2099H128.429L122.532 47.2044H118.955L140.554 0.464086H143.867L165.466 47.2044ZM154.335 31.0939L142.144 4.24309L129.887 31.0939H154.335Z" stroke="white" stroke-width="2" mask="url(#path-1-inside-1_1211_6626)"/>
<path d="M224.105 47.2044H221.521L188.857 5.96685V47.2044H185.544V0.795578H188.791L220.792 41.1713V0.795578H224.105V47.2044Z" stroke="white" stroke-width="2" mask="url(#path-1-inside-1_1211_6626)"/>
<path d="M288.243 24C288.243 27.2707 287.647 30.3204 286.454 33.1492C285.262 35.9779 283.561 38.4309 281.353 40.5083C279.188 42.5856 276.582 44.221 273.535 45.4144C270.531 46.6077 267.218 47.2044 263.596 47.2044H248.159V0.795578H263.596C267.218 0.795578 270.531 1.39226 273.535 2.58563C276.582 3.73481 279.188 5.34807 281.353 7.42541C283.561 9.50276 285.262 11.9558 286.454 14.7845C287.647 17.5691 288.243 20.5967 288.243 23.8674V24ZM284.666 24.1326V24C284.666 21.2597 284.158 18.674 283.142 16.2431C282.17 13.8122 280.779 11.6906 278.968 9.87845C277.157 8.0663 274.948 6.62983 272.342 5.56906C269.736 4.50829 266.821 3.9779 263.596 3.9779H251.604V44.0221H263.596C266.821 44.0221 269.736 43.5138 272.342 42.4972C274.948 41.4365 277.157 40.0221 278.968 38.2541C280.779 36.442 282.17 34.3425 283.142 31.9558C284.158 29.5249 284.666 26.9171 284.666 24.1326Z" stroke="white" stroke-width="2" mask="url(#path-1-inside-1_1211_6626)"/>
<path d="M376.962 47.2044H373.517V25.4586H343.834V47.2044H340.389V0.795578H343.834V22.2762H373.517V0.795578H376.962V47.2044Z" stroke="white" stroke-width="2" mask="url(#path-1-inside-1_1211_6626)"/>
<path d="M445.588 24C445.588 27.1823 445.013 30.232 443.865 33.1492C442.761 36.0221 441.193 38.5635 439.161 40.7735C437.129 42.9834 434.655 44.7514 431.74 46.0773C428.869 47.3591 425.689 48 422.199 48C418.666 48 415.463 47.3591 412.592 46.0773C409.765 44.7514 407.336 43.0055 405.304 40.8398C403.272 38.6298 401.704 36.0884 400.6 33.2155C399.496 30.3425 398.943 27.3149 398.943 24.1326V24C398.943 20.8177 399.496 17.7901 400.6 14.9171C401.748 12 403.338 9.43646 405.37 7.22652C407.402 5.01657 409.854 3.27072 412.725 1.98895C415.596 0.662983 418.798 0 422.332 0C425.821 0 429.002 0.662983 431.873 1.98895C434.744 3.27072 437.195 5.01657 439.227 7.22652C441.259 9.39226 442.827 11.9116 443.931 14.7845C445.035 17.6575 445.588 20.6851 445.588 23.8674C445.632 23.9116 445.632 23.9558 445.588 24ZM442.01 24.1326V24C442.01 21.1271 441.502 18.4309 440.486 15.9116C439.514 13.3481 438.145 11.1381 436.378 9.28177C434.655 7.38122 432.579 5.87845 430.15 4.77348C427.721 3.66851 425.07 3.11602 422.199 3.11602C419.328 3.11602 416.678 3.66851 414.249 4.77348C411.863 5.83425 409.787 7.31491 408.02 9.21547C406.298 11.0718 404.951 13.2597 403.979 15.779C403.007 18.2983 402.521 20.9945 402.521 23.8674V24C402.521 26.8729 403.007 29.5912 403.979 32.1547C404.995 34.674 406.364 36.884 408.087 38.7845C409.854 40.6409 411.952 42.1215 414.381 43.2265C416.81 44.3315 419.461 44.884 422.332 44.884C425.203 44.884 427.831 44.3536 430.216 43.2928C432.646 42.1878 434.722 40.7072 436.444 38.8508C438.211 36.9503 439.58 34.7403 440.552 32.221C441.524 29.7017 442.01 27.0055 442.01 24.1326Z" stroke="white" stroke-width="2" mask="url(#path-1-inside-1_1211_6626)"/>
<path d="M496.401 3.9779H480.234V47.2044H476.789V3.9779H460.622V0.795578H496.401V3.9779Z" stroke="white" stroke-width="2" mask="url(#path-1-inside-1_1211_6626)"/>
<path d="M550.494 47.2044H517.168V0.795578H550.163V3.9779H520.613V22.2099H547.182V25.3923H520.613V44.0221H550.494V47.2044Z" stroke="white" stroke-width="2" mask="url(#path-1-inside-1_1211_6626)"/>
<path d="M602.5 47.2044H571.824V0.795578H575.269V44.0221H602.5V47.2044Z" stroke="white" stroke-width="2" mask="url(#path-1-inside-1_1211_6626)"/>
</svg>
