<svg width="328" height="52" viewBox="0 0 328 52" fill="none" xmlns="http://www.w3.org/2000/svg">
<path d="M17.8506 0.0552212C19.4179 -0.124196 20.8251 0.132157 22.0254 0.84526C23.302 1.60385 24.2884 2.84664 24.9902 4.4976L25.1885 4.98686C25.6303 6.13244 25.9344 7.30358 26.1924 8.4644C26.4178 9.47893 26.6014 10.4504 26.8135 11.4244L27.0381 12.4009V12.4019C27.3612 13.7446 27.7069 15.0219 28.3232 16.1802V16.1812C28.8817 17.2326 29.4973 17.7699 30.1396 17.9566C30.7831 18.1434 31.5963 18.0198 32.6406 17.4341C34.0606 16.6383 35.1144 15.4105 36.1221 14.0386C38.0455 11.4214 39.5086 8.5224 40.8008 5.51714L40.8018 5.51616C41.3232 4.30768 41.4031 3.70407 41.2451 3.27397C41.0811 2.82853 40.6008 2.39188 39.4307 1.71733L39.7031 1.24272L39.7002 1.22319L39.5977 0.670456C41.6239 0.29505 43.6735 0.23854 45.9082 0.745651L47.8018 1.17436L45.9727 1.82378C44.7707 2.25069 44.0591 2.99972 43.5225 3.91362C43.2496 4.37847 43.0227 4.8853 42.7998 5.42143C42.6363 5.81476 42.4697 6.23628 42.293 6.64995L42.1123 7.05913C40.9601 9.58908 39.7028 12.0904 38.1045 14.4146L38.1035 14.4156C37.1749 15.761 36.1365 17.0645 34.8311 18.1353L34.5664 18.3462C33.0946 19.4848 31.6109 20.0291 30.1533 19.8511C28.6958 19.673 27.3887 18.7882 26.2383 17.3345C24.997 15.7661 24.1318 13.9961 23.373 12.2271L23.3721 12.2251C22.9847 11.3131 22.6121 10.3934 22.2412 9.48003C21.8697 8.56518 21.4991 7.655 21.1133 6.75346C20.5439 5.42358 19.9539 4.17194 19.0723 3.13237L19.0713 3.13139C18.7211 2.71793 18.3553 2.42728 17.9834 2.2896C17.6312 2.15925 17.2358 2.15125 16.7656 2.3687C16.2515 2.60906 15.9724 2.92677 15.8311 3.28471C15.6837 3.65855 15.662 4.13915 15.7812 4.72905H15.7803C16.04 6.00269 16.6962 7.10261 17.4258 8.29253H17.4268C19.8683 12.2507 22.704 15.9339 25.5547 19.6373C31.148 26.9068 32.206 34.7509 28.8262 43.2203L28.8252 43.2212C28.5131 44 28.2494 44.7873 27.9561 45.606L27.957 45.607C27.6173 46.5683 27.5724 47.3694 27.7607 48.0357C27.9476 48.696 28.3815 49.2899 29.1211 49.8101L30.1279 50.5181L28.9336 50.816C28.0751 51.0302 27.3663 51.1876 26.7744 51.2476C26.1788 51.3079 25.647 51.2763 25.167 51.0669C24.6811 50.8549 24.316 50.4913 23.9961 50.021C23.6819 49.5591 23.387 48.9565 23.0547 48.2242L23.0537 48.2232C16.682 34.1421 10.2979 20.0651 3.94336 5.97124L3.64453 5.31499C2.9489 3.81245 2.22983 2.52907 0.679688 1.73003L0.9375 0.666549C2.18691 0.666549 3.43721 0.663626 4.6875 0.66069C5.93745 0.657755 7.18863 0.654831 8.43945 0.654831L8.6709 1.731C7.59924 2.2139 7.3104 2.71929 7.25977 3.19096C7.19946 3.75581 7.44641 4.45865 7.875 5.40092C10.8436 11.9256 13.7945 18.4614 16.7402 24.9986L25.5742 44.607C25.6926 44.8702 25.8201 45.1249 25.9609 45.398C27.6747 41.4839 28.7675 37.669 28.832 33.9292C28.902 29.8679 27.7622 25.8641 24.8369 21.8873C22.1044 18.1726 19.4196 14.4287 16.7588 10.6626L16.7578 10.6617C15.6207 9.05041 14.4778 7.29648 14.0098 5.21049C13.6992 3.82491 13.7762 2.6285 14.4102 1.71342C15.0434 0.799743 16.1367 0.304701 17.5352 0.0972134L17.8506 0.0552212ZM68.9639 38.7251H78.9648V31.8765H80.127V46.6665H78.9648V39.7369H68.9639V46.6665H67.8018V31.8765H68.9639V38.7251ZM93.707 31.8765C98.1636 31.8766 101.08 35.3298 101.08 39.229V39.272C101.08 43.1712 98.1195 46.6665 93.6631 46.6665C89.2066 46.6665 86.2903 43.2141 86.29 39.315V39.272C86.29 35.3727 89.2504 31.8765 93.707 31.8765ZM115.871 32.8882H110.859V46.6665H109.789V32.8882H104.777V31.8765H115.871V32.8882ZM133.014 32.8941H123.182V38.7056H132.024V39.7173H123.182V45.6548H133.126V46.6665H122.033V31.8824H133.014V32.8941ZM140.26 45.6548H147.917V46.6665H139.289V31.8765H140.26V45.6548ZM93.6631 32.8365C90.0299 32.8365 87.4277 35.6964 87.4277 39.229V39.272C87.4279 42.8045 90.0739 45.7076 93.707 45.7076C97.34 45.7075 99.9422 42.8474 99.9424 39.315V39.272C99.9424 35.7395 97.2962 32.8365 93.6631 32.8365ZM70.3701 6.66362C72.9874 6.66363 74.6661 7.4785 76.2666 8.82964L76.6992 9.19487L76.3311 9.62553L75.5928 10.4869L75.2197 10.9224L74.791 10.5415C73.6787 9.55155 72.4221 8.82182 70.2988 8.82182C67.0034 8.822 64.6104 11.6821 64.6104 15.188V15.2339C64.6104 17.1249 65.1866 18.7324 66.1943 19.8589C67.1961 20.9785 68.6613 21.6665 70.5322 21.6665C72.1951 21.6664 73.7687 20.9946 74.79 20.1949V16.5718H69.7295V14.3873H76.9971V21.1734L76.8115 21.3414C75.3622 22.6557 73.1158 23.8121 70.4863 23.8121C67.9469 23.8119 65.8899 22.8469 64.4727 21.2759C63.0617 19.7118 62.3136 17.5796 62.3135 15.2808V14.3599L62.3672 14.3863C62.743 10.2933 65.7944 6.66376 70.3701 6.66362ZM88.957 7.89604C90.9182 7.8961 92.5695 8.49627 93.6074 9.51714L93.7568 9.67046C94.4865 10.4597 94.9219 11.5305 94.9219 12.6636V12.7076C94.9218 14.1024 94.3836 15.2288 93.4736 16.0415C92.7912 16.6508 91.9181 17.0679 90.9443 17.3111L95.3633 22.8999L96.084 23.8121H93.2188L93.0498 23.5972L88.3984 17.6841H84.2852V23.8121H82.0342V7.89604H88.957ZM108.289 7.00444L115.16 23.0269L115.497 23.8121H113.07L112.926 23.4673L111.196 19.357H103.236L101.507 23.4673L101.362 23.8121H98.999L99.335 23.0269L106.207 7.00444L106.718 7.22417V6.66362H108.143L108.289 7.00444ZM121.053 8.10796L130.277 19.7124V7.89604H132.461V23.8121H130.803L130.634 23.5992L121.2 11.7154V23.8121H119.017V8.45854H119.573V7.89604H120.884L121.053 8.10796ZM144.042 7.89604C148.826 7.89612 152.181 11.3331 152.182 15.8091V15.854C152.181 20.3256 148.831 23.812 144.042 23.8121H138.731V7.89604H144.042ZM140.917 21.6626H144.042C145.891 21.6626 147.362 21.0112 148.371 19.9839C149.382 18.9539 149.959 17.5139 149.959 15.8853V15.8414C149.959 12.6288 147.69 10.026 144.042 10.0259H140.917V21.6626ZM104.173 17.1636H110.255L107.221 9.96928L104.173 17.1636ZM84.2852 15.566H88.8271C90.0072 15.566 90.9841 15.2747 91.6494 14.7857C92.2982 14.3085 92.6767 13.6273 92.6768 12.7457V12.7017C92.6768 11.8775 92.3544 11.2391 91.7588 10.7906C91.1444 10.328 90.1903 10.0328 88.8916 10.0328H84.2852V15.566Z" fill="white"/>
<g clip-path="url(#clip0_532_3890)">
<path d="M204.132 20.7298L200.348 16.6796V20.7298H198.18V11.0596H202.88C205.169 11.0596 206.61 12.1941 206.61 14.1334C206.61 16.0728 205.438 17.0094 203.311 17.0886L207.027 20.7298H204.146H204.132ZM200.348 15.3208H203.055C203.876 15.3208 204.401 14.925 204.401 14.1334C204.401 13.3419 203.876 12.9461 203.055 12.9461H200.348V15.3208Z" fill="white"/>
<path d="M219.188 10.6375L224.844 20.7298H222.514L221.518 18.9092H216.804L215.808 20.7298H213.438L219.188 10.6375ZM220.575 17.1414L219.174 14.582L217.787 17.1414H220.575Z" fill="white"/>
<path d="M232.48 11.0594H235.834C239.376 11.0198 241.598 13.0911 241.598 15.9143C241.598 18.7375 239.376 20.7296 235.834 20.7296H232.48V11.0594ZM235.834 18.7903C238.325 18.7903 239.443 17.6821 239.443 15.9011C239.443 14.1201 238.325 12.9723 235.834 12.9459H234.635V18.7903H235.834Z" fill="white"/>
<path d="M250.148 11.0596H252.317V20.7298H250.148V11.0596Z" fill="white"/>
<path d="M260.732 19.7272L261.89 18.0781C262.873 18.6454 264.072 18.962 265.203 18.9488C266.254 18.9488 266.914 18.5794 266.954 17.9726C266.994 17.3921 266.617 17.181 265.446 16.9172L264.22 16.6533C262.012 16.1784 261.123 15.1889 261.123 13.7246C261.123 12.1151 262.793 10.9277 264.961 10.9277C266.429 10.9277 267.856 11.3631 268.866 11.97L267.775 13.619C266.981 13.1573 266.119 12.8539 265.163 12.8539C264.139 12.8539 263.426 13.1969 263.426 13.8037C263.426 14.3446 263.857 14.6085 264.826 14.8196L266.173 15.1098C268.287 15.5583 269.163 16.4422 269.176 17.9858C269.176 19.6612 267.533 20.875 265.096 20.875C263.52 20.875 261.85 20.4264 260.719 19.7272H260.732Z" fill="white"/>
<path d="M276.947 19.7272L278.105 18.0781C279.088 18.6454 280.287 18.962 281.418 18.9488C282.469 18.9488 283.128 18.5794 283.169 17.9726C283.209 17.3921 282.832 17.181 281.66 16.9172L280.435 16.6533C278.226 16.1784 277.338 15.1889 277.338 13.7246C277.338 12.1151 279.008 10.9277 281.176 10.9277C282.644 10.9277 284.071 11.3631 285.081 11.97L283.99 13.619C283.196 13.1573 282.334 12.8539 281.378 12.8539C280.354 12.8539 279.64 13.1969 279.64 13.8037C279.64 14.3446 280.071 14.6085 281.041 14.8196L282.388 15.1098C284.502 15.5583 285.377 16.4422 285.391 17.9858C285.391 19.6612 283.748 20.875 281.31 20.875C279.735 20.875 278.065 20.4264 276.934 19.7272H276.947Z" fill="white"/>
<path d="M293.324 15.8879C293.324 13.0647 295.627 10.8748 298.63 10.8748C301.633 10.8748 303.936 13.0647 303.936 15.8879C303.936 18.7112 301.633 20.9143 298.63 20.9143C295.627 20.9143 293.324 18.698 293.324 15.8879ZM301.755 15.8879C301.755 14.1069 300.341 12.8405 298.617 12.8405C296.893 12.8405 295.479 14.1069 295.479 15.8879C295.479 17.669 296.879 18.9354 298.617 18.9354C300.354 18.9354 301.755 17.669 301.755 15.8879Z" fill="white"/>
<path d="M312.474 11.0596H314.616L319.625 17.6031V11.0596H321.78V20.7298H319.652L314.629 14.1994V20.7298H312.461V11.0596H312.474Z" fill="white"/>
<path d="M198.18 30.5449H200.348V40.2151H198.18V30.5449Z" fill="white"/>
<path d="M232.48 30.5449H234.649V40.2151H232.48V30.5449Z" fill="white"/>
<path d="M254.121 30.5449H256.289V40.2151H254.121V30.5449Z" fill="white"/>
<path d="M204.845 30.5449H206.987L211.996 37.0885V30.5449H214.151V40.2151H212.023L207 33.6848V40.2151H204.832V30.5449H204.845Z" fill="white"/>
<path d="M219.176 30.545H222.529C226.071 30.5054 228.293 32.5767 228.293 35.3999C228.293 38.2231 226.071 40.2152 222.529 40.2152H219.176V30.545ZM222.529 38.2891C225.02 38.2891 226.138 37.1809 226.138 35.3999C226.138 33.6189 225.02 32.4711 222.529 32.4447H221.33V38.2891H222.529Z" fill="white"/>
<path d="M238.676 30.5449H241.086L244.17 36.5608L247.268 30.5449H249.638L244.197 40.6373L238.676 30.5449Z" fill="white"/>
<path d="M261.473 30.545H264.826C268.368 30.5054 270.59 32.5767 270.59 35.3999C270.59 38.2231 268.368 40.2152 264.826 40.2152H261.473V30.545ZM264.826 38.2891C267.317 38.2891 268.435 37.1809 268.435 35.3999C268.435 33.6189 267.317 32.4711 264.826 32.4447H263.627V38.2891H264.826Z" fill="white"/>
<path d="M274.496 35.479V30.5449H276.664V35.479C276.664 37.3127 277.405 38.3813 279.169 38.3813C280.933 38.3813 281.674 37.3259 281.674 35.4922V30.5449H283.869V35.4922C283.869 38.4605 282.239 40.347 279.155 40.347C276.071 40.347 274.469 38.4869 274.469 35.479H274.496Z" fill="white"/>
<path d="M292.84 30.1228L298.496 40.2151H296.167L295.17 38.3946H290.457L289.46 40.2151H287.09L292.827 30.1228H292.84ZM294.214 36.64L292.813 34.0806L291.426 36.64H294.214Z" fill="white"/>
<path d="M302.266 30.5449H304.434V38.289H309.417V40.2151H302.266V30.5449Z" fill="white"/>
<path d="M313.322 39.2126L314.48 37.5635C315.463 38.1308 316.662 38.4474 317.793 38.4342C318.844 38.4342 319.503 38.0648 319.544 37.4579C319.584 36.8775 319.207 36.6664 318.035 36.4025L316.81 36.1387C314.601 35.6637 313.713 34.6743 313.713 33.2099C313.713 31.6004 315.383 30.4131 317.551 30.4131C319.019 30.4131 320.446 30.8484 321.456 31.4553L320.365 33.1044C319.571 32.6426 318.709 32.3392 317.753 32.3392C316.729 32.3392 316.015 32.6822 316.015 33.2891C316.015 33.83 316.446 34.0938 317.416 34.3049L318.763 34.5951C320.877 35.0437 321.752 35.9276 321.766 37.4711C321.766 39.1466 320.123 40.3603 317.685 40.3603C316.11 40.3603 314.44 39.9118 313.309 39.2126H313.322Z" fill="white"/>
<path d="M324.488 12.3126C324.488 11.6134 325.027 11.0461 325.835 11.0461C326.643 11.0461 327.182 11.6134 327.182 12.3126C327.182 13.0118 326.643 13.5659 325.835 13.5659C325.027 13.5659 324.488 12.9986 324.488 12.3126ZM326.926 12.3126C326.926 11.7454 326.481 11.2968 325.835 11.2968C325.189 11.2968 324.744 11.7454 324.744 12.3126C324.744 12.8799 325.189 13.3285 325.835 13.3285C326.481 13.3285 326.926 12.8799 326.926 12.3126ZM325.323 11.653H325.862C326.212 11.653 326.401 11.7981 326.401 12.1016C326.401 12.3654 326.226 12.4973 326.037 12.4973H325.916L326.428 12.9723H326.091L325.593 12.4841V12.9723H325.323V11.653ZM325.875 12.2994C326.024 12.2994 326.118 12.2335 326.118 12.0884C326.118 11.9432 326.024 11.8773 325.875 11.8773H325.593V12.2994H325.875Z" fill="white"/>
</g>
<defs>
<clipPath id="clip0_532_3890">
<rect width="129" height="30" fill="white" transform="translate(198.18 10.6375)"/>
</clipPath>
</defs>
</svg>
