<svg width="246" height="32" viewBox="0 0 246 32" fill="none" xmlns="http://www.w3.org/2000/svg">
<path d="M10.5537 0.0581055C11.5918 -0.0956102 12.5078 0.0542735 13.2764 0.513184C13.9476 0.914078 14.4919 1.54156 14.9062 2.37451L15.0762 2.74463L15.1982 3.04834C15.4708 3.75999 15.6582 4.48952 15.8184 5.21826C16.0036 6.06133 16.1472 6.87776 16.3438 7.70459L16.502 8.33447C16.6678 8.9577 16.8647 9.55983 17.1621 10.1226C17.5224 10.805 17.9359 11.185 18.3945 11.3198C18.8532 11.4546 19.4082 11.3591 20.084 10.98C20.891 10.527 21.5155 9.86201 22.085 9.12354L22.3262 8.80225C23.5468 7.13989 24.477 5.30598 25.2979 3.40771C25.6267 2.64683 25.7039 2.21438 25.582 1.88037C25.4581 1.5412 25.1073 1.24143 24.376 0.815918L23.8906 0.533691L24.4443 0.444824L24.9053 0.371582H24.9092C26.0136 0.214458 27.1343 0.225174 28.3428 0.501465L29.0137 0.654785L28.3652 0.885254C27.5669 1.16864 27.0935 1.66861 26.7412 2.26709C26.5634 2.56916 26.4161 2.89551 26.2744 3.23486C26.1345 3.57004 25.9972 3.92536 25.8428 4.26221C25.2082 5.65392 24.5227 7.02359 23.6914 8.31787L23.3262 8.86768C22.7057 9.76744 22.0128 10.6226 21.1289 11.3052C20.222 12.0065 19.3277 12.3262 18.4648 12.2192C17.6021 12.1121 16.8145 11.5837 16.1094 10.687C15.3454 9.71259 14.8075 8.61407 14.3369 7.50049C14.0948 6.92647 13.862 6.34844 13.6299 5.77295C13.3975 5.19683 13.1649 4.62161 12.9219 4.05127C12.5642 3.21348 12.1883 2.40361 11.6162 1.7251C11.3861 1.45212 11.1357 1.2483 10.8691 1.14893C10.6094 1.05224 10.3197 1.0493 9.98828 1.20264C9.63203 1.36757 9.42497 1.59485 9.31934 1.86182C9.21163 2.13427 9.20089 2.4694 9.27832 2.85693L9.35352 3.16455C9.55399 3.87004 9.92884 4.50078 10.3291 5.15283V5.15381C11.8625 7.65645 13.6495 9.9866 15.4355 12.3247C18.9086 16.8678 19.5583 21.754 17.4434 27.0317C17.2445 27.5266 17.0748 28.0303 16.8945 28.5415V28.5425C16.6722 29.1681 16.6361 29.7052 16.7646 30.1636C16.8928 30.62 17.1906 31.0225 17.6787 31.3667L18.0361 31.6187L17.6113 31.7241C17.071 31.8577 16.6345 31.9528 16.2744 31.9888C15.9131 32.0248 15.6085 32.0035 15.3408 31.8862C15.0711 31.7679 14.8625 31.5628 14.6719 31.2808C14.4833 31.0016 14.3034 30.6323 14.0957 30.1704C10.1041 21.2923 6.10692 12.4155 2.125 3.52979C1.62577 2.41269 1.17624 1.38448 0.00683594 0.778809L0.0986328 0.400879H4.81641L4.89844 0.783691C4.19494 1.10115 3.96047 1.45609 3.91992 1.82666C3.87585 2.2301 4.05008 2.70965 4.31641 3.29932C8.03612 11.5282 11.7105 19.7798 15.4004 28.02C15.5142 28.2751 15.6414 28.5233 15.791 28.812C16.9525 26.2344 17.7066 23.7132 17.7539 21.2349C17.8033 18.6425 17.0806 16.0859 15.2246 13.5503C13.5125 11.2078 11.8278 8.84513 10.1602 6.47119C9.44628 5.45312 8.74502 4.36977 8.46094 3.08936C8.27126 2.23688 8.32852 1.53476 8.69336 1.00928C9.05797 0.484273 9.69556 0.184539 10.5537 0.0581055ZM16.5664 28.9507C16.5559 28.9976 16.5474 29.0443 16.5391 29.0903C16.5483 29.0394 16.5584 28.9879 16.5703 28.936L16.5664 28.9507ZM16.9736 27.7134C16.8832 27.9669 16.7955 28.2214 16.7061 28.4751C16.8403 28.0944 16.9698 27.7118 17.1113 27.3335L16.9736 27.7134ZM52.833 17.5581C53.6023 17.5581 54.3095 17.7044 54.9502 17.9995H54.9512C55.5868 18.2831 56.1324 18.6711 56.585 19.1626C57.0369 19.644 57.3853 20.2044 57.6299 20.8403C57.8697 21.464 57.9913 22.1201 57.9961 22.8071C58.0006 22.8239 58.0039 22.8426 58.0039 22.8628C58.0039 22.8825 58.0004 22.901 57.9961 22.9175C57.9913 23.6057 57.8643 24.2669 57.6152 24.8999C57.3708 25.5355 57.0234 26.1 56.5723 26.5903C56.1193 27.0826 55.5686 27.475 54.9238 27.7681L54.9229 27.769C54.282 28.0549 53.575 28.1957 52.8057 28.1958C52.027 28.1958 51.3142 28.0551 50.6729 27.769L50.6699 27.7671C50.045 27.4742 49.5055 27.0871 49.0537 26.606L49.0518 26.604C48.6009 26.1138 48.2532 25.5499 48.0088 24.9146C47.7641 24.2782 47.6417 23.608 47.6416 22.9058V22.8774C47.6416 22.1752 47.7641 21.5049 48.0088 20.8687L48.0098 20.8667C48.2635 20.2227 48.6154 19.6548 49.0664 19.1646C49.5193 18.6722 50.0648 18.2834 50.7012 17.9995C51.3424 17.704 52.0544 17.5582 52.833 17.5581ZM36.7041 22.3101H42.6396V17.728H43.7744V28.0259H42.6396V23.3882H36.7041V28.0259H35.5693V17.728H36.7041V22.3101ZM68.417 18.8071H64.9668V28.0259H63.832V18.8071H60.3809V17.728H68.417V18.8071ZM79.4668 18.8071H73.1602V22.2954H78.8311V23.3745H73.1602V26.9478H79.5381V28.0259H72.0254V17.728H79.4668V18.8071ZM84.4014 26.9478H90.2129V28.0259H83.2656V17.728H84.4014V26.9478ZM55.291 27.3569C55.147 27.4393 54.9965 27.5147 54.8408 27.5854C54.6924 27.6517 54.5399 27.7091 54.3838 27.7593C54.4594 27.735 54.5346 27.7102 54.6084 27.6821C54.6871 27.6522 54.7652 27.6206 54.8418 27.5864C54.9974 27.5157 55.1473 27.4395 55.291 27.3569ZM51.5342 27.1323C51.5506 27.1377 51.5675 27.1418 51.584 27.147C51.4994 27.1207 51.4154 27.0931 51.333 27.061L51.5342 27.1323ZM52.8057 18.6226C52.2194 18.6226 51.6819 18.7356 51.1914 18.9585L51.1895 18.9595C50.7051 19.1748 50.2843 19.4746 49.9258 19.8599C49.5766 20.2359 49.3024 20.6807 49.1035 21.1958C48.9056 21.7087 48.8057 22.2594 48.8057 22.8491V22.8774C48.8057 23.4669 48.9052 24.0226 49.1035 24.5454C49.3113 25.0591 49.5898 25.5079 49.9385 25.8931L50.0762 26.0308C50.4047 26.3435 50.7859 26.5982 51.2197 26.7954C51.7101 27.0182 52.2469 27.1313 52.833 27.1313C53.4204 27.1313 53.9537 27.0228 54.4346 26.8091C54.9297 26.5838 55.3509 26.2838 55.6992 25.9087C56.0581 25.5229 56.3366 25.0734 56.5352 24.5591C56.7331 24.0463 56.833 23.4953 56.833 22.9058V22.8774C56.833 22.289 56.7291 21.7392 56.5225 21.2271L56.5205 21.2231C56.322 20.6998 56.0437 20.2517 55.6865 19.8765L55.6826 19.8726C55.3341 19.4884 54.9135 19.1833 54.4189 18.9585C53.9286 18.7357 53.3917 18.6226 52.8057 18.6226ZM55.4834 26.3862C55.5073 26.3662 55.5322 26.3472 55.5557 26.3267L55.5742 26.3091C55.5446 26.3355 55.5139 26.3607 55.4834 26.3862ZM17.6875 23.7222C17.6242 24.0546 17.5495 24.3875 17.4658 24.7212C17.4239 24.8883 17.3798 25.0557 17.333 25.2231H17.334C17.474 24.7214 17.5925 24.221 17.6875 23.7222ZM48.916 24.6167C48.9702 24.751 49.0291 24.8813 49.0928 25.0073H49.0938C49.0301 24.8812 48.9712 24.751 48.917 24.6167C48.8937 24.5553 48.8713 24.4934 48.8506 24.4312C48.8712 24.4933 48.8928 24.5554 48.916 24.6167ZM57.0078 23.4087C57.0095 23.3918 57.0122 23.3749 57.0137 23.3579L57.0156 23.3296C57.0135 23.3561 57.0104 23.3824 57.0078 23.4087ZM48.7803 21.5337C48.7777 21.543 48.776 21.5527 48.7734 21.562C48.7784 21.5438 48.7829 21.5255 48.7881 21.5073L48.7803 21.5337ZM48.916 21.1235C48.8901 21.1906 48.8664 21.2584 48.8438 21.3267L48.917 21.1235C48.9602 21.0117 49.0075 20.9031 49.0576 20.7974C49.0074 20.9032 48.9592 21.0115 48.916 21.1235ZM56.5967 19.4761C56.6713 19.5637 56.7426 19.6539 56.8105 19.7466L56.5977 19.4761L56.4395 19.2993L56.5967 19.4761ZM55.9131 18.811H55.9141H55.9131ZM37.9727 3.73486C38.3869 3.73489 38.7664 3.76395 39.1094 3.82275H39.1084C39.4589 3.8812 39.7832 3.96893 40.0801 4.0874C40.3827 4.20454 40.6676 4.3466 40.9326 4.51318L41.1357 4.64209C41.3367 4.77549 41.5322 4.92316 41.7217 5.0835L41.876 5.21436L41.7432 5.36768L41.2627 5.91846L41.1299 6.06982L40.9795 5.93799C40.6089 5.61263 40.1828 5.34018 39.7002 5.12158L39.6982 5.12061C39.2424 4.91024 38.6556 4.79933 37.9297 4.79932C37.3532 4.79934 36.8308 4.91237 36.3604 5.13428C35.8845 5.35881 35.4727 5.66377 35.123 6.04932L35.1221 6.04834C34.782 6.43363 34.5177 6.88334 34.3281 7.39795C34.1387 7.91228 34.043 8.45475 34.043 9.02588V9.0542C34.043 9.67398 34.1347 10.2445 34.3145 10.7671L34.3887 10.9604C34.5719 11.4018 34.8166 11.7859 35.1211 12.1138C35.4686 12.4879 35.8883 12.7829 36.3818 12.9985C36.8812 13.2125 37.4484 13.3217 38.085 13.3218C38.3819 13.3218 38.6744 13.2943 38.9619 13.2407C39.2539 13.1768 39.5271 13.096 39.7803 12.9966L39.7822 12.9956C40.0469 12.8952 40.2923 12.7815 40.5186 12.6548C40.7145 12.5369 40.8864 12.4139 41.0391 12.2915V9.74854H37.7295V8.67041H42.1455V12.7788L42.0771 12.8384C41.6071 13.2496 41.0289 13.6085 40.3457 13.9165L40.3438 13.9175C39.6557 14.2221 38.8924 14.3725 38.0576 14.3726C37.2526 14.3726 36.5225 14.2363 35.8721 13.9604L35.8691 13.9595C35.2333 13.6758 34.691 13.2924 34.2471 12.8091C33.8047 12.3274 33.4663 11.7672 33.2314 11.1313V11.1304C32.9969 10.4853 32.88 9.80193 32.8799 9.08252V9.0542C32.8799 8.36188 32.9968 7.69648 33.2314 7.06104L33.2324 7.06006C33.4764 6.41587 33.8191 5.84759 34.2607 5.35693L34.2617 5.35498C34.7137 4.86374 35.254 4.47161 35.8799 4.17822C36.5123 3.88183 37.2112 3.73486 37.9727 3.73486ZM50.5312 3.90479C51.0858 3.9048 51.5931 3.97756 52.0498 4.12646H52.0488C52.5011 4.26446 52.8912 4.46798 53.2148 4.73975L53.3369 4.84131C53.6122 5.08364 53.8311 5.36939 53.9912 5.69775L54.0557 5.83838C54.1968 6.17011 54.2666 6.53104 54.2666 6.91846V6.94678C54.2666 7.38501 54.186 7.78523 54.0225 8.14404C53.8699 8.48993 53.651 8.79043 53.3672 9.04443L53.3682 9.04541C53.0947 9.29856 52.7676 9.50387 52.3906 9.6626L52.3887 9.66357C52.1198 9.77258 51.8327 9.85516 51.5293 9.91553L54.5928 13.8804L54.8418 14.2026H53.4023L53.3428 14.1245L50.25 10.1021H47.3096V14.2026H46.1738V3.90479H50.5312ZM63.0107 3.94971L67.6201 13.9194L67.752 14.2026H66.5039L66.4502 14.0854L65.2451 11.4312H59.6631L58.458 14.0854L58.4043 14.2026H57.1992L57.3301 13.9194L61.9404 3.94971L61.9941 3.8335H62.957L63.0107 3.94971ZM72.1494 3.97998L78.6221 12.1421V3.90479H79.7295V14.2026H78.8809L78.8213 14.1274L72.207 5.78174V14.2026H71.0996V3.90479H72.0889L72.1494 3.97998ZM87.5332 3.90479C88.3284 3.9048 89.0614 4.0354 89.7285 4.30029H89.7275C90.3991 4.55374 90.9779 4.91064 91.46 5.37256C91.9515 5.83464 92.3305 6.38116 92.5957 7.00928L92.6895 7.24463C92.8929 7.79904 92.9932 8.3938 92.9932 9.02588V9.0542C92.9931 9.77643 92.8612 10.4532 92.5957 11.0825C92.3308 11.7105 91.9521 12.2562 91.4609 12.7183C90.9786 13.1809 90.3998 13.543 89.7275 13.8062C89.0605 14.071 88.3283 14.2026 87.5332 14.2026H84.0391V3.90479H87.5332ZM46.374 14.0034H47.1094V14.0024H46.374V14.0034ZM57.5117 14.0034H58.2754V14.0024H57.5117V14.0034ZM78.9775 14.0034H79.5293L78.9775 14.0024L72.0068 5.20752L78.9775 14.0034ZM84.2383 14.0034H87.5332V14.0024H84.2383V14.0034ZM89.6543 13.6206C89.5763 13.6516 89.497 13.6803 89.417 13.7075C89.4969 13.6804 89.5764 13.6525 89.6543 13.6216C89.7354 13.5898 89.8153 13.5567 89.8936 13.522C89.9233 13.5088 89.9521 13.4936 89.9814 13.48C89.875 13.5292 89.7663 13.5768 89.6543 13.6206ZM36.7119 13.3315C36.7406 13.3402 36.7698 13.3469 36.7988 13.355C36.7609 13.3444 36.7229 13.3343 36.6855 13.3228L36.7119 13.3315ZM85.1738 13.1245H87.5332C88.1985 13.1245 88.7945 13.0195 89.3232 12.814C89.858 12.5964 90.3079 12.3077 90.6738 11.9507C91.0405 11.5836 91.3224 11.159 91.5195 10.6753L91.5205 10.6733C91.7264 10.1809 91.83 9.65113 91.8301 9.08252V9.0542C91.8301 8.49523 91.7266 7.96907 91.5205 7.47607L91.5195 7.47412C91.322 6.98034 91.0397 6.54998 90.6729 6.18311C90.3071 5.81731 89.858 5.52528 89.3242 5.30811C88.7953 5.093 88.1991 4.98391 87.5332 4.98389H85.1738V13.1245ZM34.5576 12.8423C34.595 12.8789 34.6342 12.9135 34.6729 12.9487C34.6245 12.9047 34.5768 12.8599 34.5303 12.814L34.5576 12.8423ZM20.1816 11.1538L20.3594 11.0493C20.4007 11.0238 20.441 10.9968 20.4814 10.9702C20.3841 11.0342 20.2846 11.096 20.1816 11.1538ZM21.0068 11.147L21.2822 10.9224C21.2838 10.921 21.2846 10.9188 21.2861 10.9175C21.1947 10.9955 21.1026 11.0731 21.0068 11.147ZM91.5264 11.1304C91.5281 11.127 91.5305 11.124 91.5322 11.1206L91.5439 11.0981C91.5383 11.109 91.5321 11.1196 91.5264 11.1304ZM16.5098 10.854C16.5122 10.8567 16.5151 10.8591 16.5176 10.8618C16.4333 10.768 16.3492 10.669 16.2666 10.564L16.5098 10.854ZM59.8447 10.5669H59.8457L62.4609 4.84033L63.0771 6.1958L62.4609 4.83936L59.8447 10.5669ZM60.1562 10.3667H64.752L62.4609 5.32178L60.1562 10.3667ZM51.7832 9.65186C51.8724 9.62831 51.9603 9.60386 52.0459 9.57568L52.0537 9.57275C51.9654 9.60153 51.8751 9.62762 51.7832 9.65186ZM92.793 9.05322C92.793 9.2239 92.7848 9.39209 92.7695 9.55713C92.777 9.47638 92.7843 9.39508 92.7881 9.31299L92.7939 9.0542V9.02588L92.793 9.0249V9.05322ZM33.8428 9.0249V9.05322C33.8428 9.08818 33.8442 9.12302 33.8447 9.15771L33.8438 9.0542V9.02588C33.8438 8.89798 33.8481 8.77132 33.8574 8.646V8.64502C33.8479 8.77032 33.8428 8.89694 33.8428 9.0249ZM47.3096 9.0376H50.4463C50.8444 9.03758 51.2073 8.98761 51.5352 8.89014H51.5361C51.8744 8.7922 52.1577 8.65526 52.3896 8.48389C52.6215 8.30318 52.8006 8.09093 52.9277 7.84521L52.9287 7.84229C53.0622 7.59183 53.1318 7.30422 53.1318 6.9751V6.94678C53.1318 6.33527 52.9071 5.86704 52.46 5.521L52.458 5.52002C52.0159 5.17154 51.3686 4.98393 50.4893 4.98389H47.3096V9.0376ZM10.3232 6.35693C10.7399 6.95001 11.1582 7.54191 11.5771 8.1333C11.1581 7.5416 10.74 6.94919 10.3232 6.35596C10.2341 6.22889 10.1451 6.10153 10.0576 5.97314L10.3232 6.35693ZM34.1396 7.32861C34.1312 7.35151 34.1243 7.37494 34.1162 7.39795L34.1406 7.32861C34.1654 7.26148 34.1915 7.19545 34.2188 7.13037H34.2178C34.1906 7.19536 34.1643 7.26157 34.1396 7.32861ZM40.8281 4.68408C40.8915 4.72254 40.9543 4.76302 41.0166 4.8042L40.8291 4.68408C40.8094 4.67171 40.7884 4.66101 40.7686 4.64893C40.7883 4.66092 40.8086 4.67181 40.8281 4.68408ZM38.7139 4.64697L38.4648 4.62061C38.4593 4.62015 38.4538 4.62007 38.4482 4.61963C38.539 4.62694 38.6276 4.63567 38.7139 4.64697Z" fill="white"/>
<line x1="118.493" y1="4.00244" x2="118.493" y2="28.0024" stroke="white"/>
<g clip-path="url(#clip0_1211_21586)">
<path d="M147.746 12.0765L144.724 8.83637V12.0765H142.993V4.34033H146.746C148.574 4.34033 149.724 5.24798 149.724 6.79944C149.724 8.35089 148.789 9.10023 147.09 9.16355L150.058 12.0765H147.757H147.746ZM144.724 7.7493H146.886C147.542 7.7493 147.961 7.43268 147.961 6.79944C147.961 6.16619 147.542 5.84957 146.886 5.84957H144.724V7.7493Z" fill="white"/>
<path d="M159.768 4.00244L164.284 12.0763H162.424L161.628 10.6199H157.865L157.069 12.0763H155.177L159.768 4.00244ZM160.876 9.20561L159.757 7.15811L158.65 9.20561H160.876Z" fill="white"/>
<path d="M170.38 4.3398H173.057C175.885 4.30814 177.659 5.96513 177.659 8.22371C177.659 10.4823 175.885 12.0759 173.057 12.0759H170.38V4.3398ZM173.057 10.5245C175.047 10.5245 175.939 9.63795 175.939 8.21315C175.939 6.78835 175.047 5.87014 173.057 5.84904H172.1V10.5245H173.057Z" fill="white"/>
<path d="M184.489 4.34033H186.22V12.0765H184.489V4.34033Z" fill="white"/>
<path d="M192.938 11.2744L193.862 9.95518C194.647 10.409 195.604 10.6623 196.507 10.6518C197.346 10.6518 197.873 10.3562 197.905 9.87075C197.938 9.40637 197.636 9.2375 196.701 9.02642L195.722 8.81534C193.959 8.43539 193.249 7.64383 193.249 6.47233C193.249 5.18473 194.583 4.23486 196.314 4.23486C197.486 4.23486 198.626 4.58315 199.432 5.06864L198.561 6.3879C197.927 6.0185 197.239 5.77576 196.475 5.77576C195.658 5.77576 195.088 6.05017 195.088 6.53565C195.088 6.96837 195.432 7.17945 196.206 7.34832L197.282 7.58051C198.97 7.93935 199.669 8.64647 199.679 9.8813C199.679 11.2217 198.368 12.1926 196.421 12.1926C195.163 12.1926 193.83 11.8338 192.927 11.2744H192.938Z" fill="white"/>
<path d="M205.887 11.2744L206.811 9.95518C207.596 10.409 208.553 10.6623 209.457 10.6518C210.295 10.6518 210.822 10.3562 210.854 9.87075C210.887 9.40637 210.586 9.2375 209.65 9.02642L208.672 8.81534C206.908 8.43539 206.199 7.64383 206.199 6.47233C206.199 5.18473 207.532 4.23486 209.263 4.23486C210.435 4.23486 211.575 4.58315 212.381 5.06864L211.51 6.3879C210.876 6.0185 210.188 5.77576 209.424 5.77576C208.607 5.77576 208.037 6.05017 208.037 6.53565C208.037 6.96837 208.381 7.17945 209.156 7.34832L210.231 7.58051C211.919 7.93935 212.618 8.64647 212.629 9.8813C212.629 11.2217 211.317 12.1926 209.371 12.1926C208.113 12.1926 206.779 11.8338 205.876 11.2744H205.887Z" fill="white"/>
<path d="M218.962 8.20294C218.962 5.94436 220.801 4.19238 223.198 4.19238C225.596 4.19238 227.435 5.94436 227.435 8.20294C227.435 10.4615 225.596 12.224 223.198 12.224C220.801 12.224 218.962 10.451 218.962 8.20294ZM225.693 8.20294C225.693 6.77813 224.564 5.76494 223.188 5.76494C221.811 5.76494 220.682 6.77813 220.682 8.20294C220.682 9.62774 221.801 10.6409 223.188 10.6409C224.575 10.6409 225.693 9.62774 225.693 8.20294Z" fill="white"/>
<path d="M234.25 4.34033H235.96L239.96 9.57516V4.34033H241.68V12.0765H239.981L235.97 6.85221V12.0765H234.239V4.34033H234.25Z" fill="white"/>
<path d="M142.993 19.9282H144.724V27.6644H142.993V19.9282Z" fill="white"/>
<path d="M170.38 19.9282H172.111V27.6644H170.38V19.9282Z" fill="white"/>
<path d="M187.661 19.9287H189.392V27.6649H187.661V19.9287Z" fill="white"/>
<path d="M148.316 19.9287H150.026L154.026 25.1635V19.9287H155.747V27.6649H154.048L150.037 22.4406V27.6649H148.306V19.9287H148.316Z" fill="white"/>
<path d="M159.755 19.9282H162.432C165.26 19.8965 167.034 21.5535 167.034 23.8121C167.034 26.0707 165.26 27.6643 162.432 27.6643H159.755V19.9282ZM162.432 26.1234C164.422 26.1234 165.314 25.2369 165.314 23.8121C165.314 22.3873 164.422 21.4691 162.432 21.448H161.475V26.1234H162.432Z" fill="white"/>
<path d="M175.329 19.9287H177.254L179.716 24.7414L182.189 19.9287H184.082L179.738 28.0026L175.329 19.9287Z" fill="white"/>
<path d="M193.528 19.9282H196.206C199.034 19.8965 200.808 21.5535 200.808 23.8121C200.808 26.0707 199.034 27.6643 196.206 27.6643H193.528V19.9282ZM196.206 26.1234C198.195 26.1234 199.087 25.2369 199.087 23.8121C199.087 22.3873 198.195 21.4691 196.206 21.448H195.249V26.1234H196.206Z" fill="white"/>
<path d="M203.925 23.8759V19.9287H205.656V23.8759C205.656 25.343 206.247 26.1978 207.656 26.1978C209.065 26.1978 209.656 25.3535 209.656 23.8865V19.9287H211.409V23.8865C211.409 26.2612 210.108 27.7704 207.645 27.7704C205.183 27.7704 203.903 26.2823 203.903 23.8759H203.925Z" fill="white"/>
<path d="M218.577 19.5908L223.093 27.6647H221.233L220.437 26.2082H216.674L215.878 27.6647H213.985L218.566 19.5908H218.577ZM219.674 24.8045L218.555 22.757L217.448 24.8045H219.674Z" fill="white"/>
<path d="M226.099 19.9287H227.83V26.124H231.808V27.6649H226.099V19.9287Z" fill="white"/>
<path d="M234.93 26.8623L235.854 25.5431C236.639 25.9969 237.596 26.2502 238.5 26.2396C239.338 26.2396 239.865 25.9441 239.897 25.4586C239.93 24.9943 239.629 24.8254 238.693 24.6143L237.715 24.4032C235.951 24.0233 235.242 23.2317 235.242 22.0602C235.242 20.7726 236.575 19.8228 238.306 19.8228C239.478 19.8228 240.618 20.171 241.424 20.6565L240.553 21.9758C239.919 21.6064 239.231 21.3637 238.467 21.3637C237.65 21.3637 237.08 21.6381 237.08 22.1235C237.08 22.5563 237.424 22.7673 238.199 22.9362L239.274 23.1684C240.962 23.5272 241.661 24.2344 241.672 25.4692C241.672 26.8096 240.36 27.7805 238.414 27.7805C237.156 27.7805 235.822 27.4217 234.919 26.8623H234.93Z" fill="white"/>
<path d="M243.845 5.34278C243.845 4.78342 244.275 4.32959 244.92 4.32959C245.565 4.32959 245.995 4.78342 245.995 5.34278C245.995 5.90215 245.565 6.34542 244.92 6.34542C244.275 6.34542 243.845 5.8916 243.845 5.34278ZM245.791 5.34278C245.791 4.88896 245.436 4.53012 244.92 4.53012C244.404 4.53012 244.049 4.88896 244.049 5.34278C244.049 5.79661 244.404 6.15545 244.92 6.15545C245.436 6.15545 245.791 5.79661 245.791 5.34278ZM244.511 4.81508H244.941C245.221 4.81508 245.372 4.93117 245.372 5.17392C245.372 5.385 245.232 5.49054 245.081 5.49054H244.985L245.393 5.87049H245.124L244.726 5.47999V5.87049H244.511V4.81508ZM244.952 5.33223C245.071 5.33223 245.146 5.27946 245.146 5.16336C245.146 5.04727 245.071 4.9945 244.952 4.9945H244.726V5.33223H244.952Z" fill="white"/>
</g>
<defs>
<clipPath id="clip0_1211_21586">
<rect width="103" height="24" fill="white" transform="translate(142.993 4.00244)"/>
</clipPath>
</defs>
</svg>
