<svg xmlns="http://www.w3.org/2000/svg" width="256" height="256" viewBox="0 0 256 256" fill="none"><script xmlns=""/>
<rect width="256" height="256" fill="black"/>
<path d="M108.427 52.2868C113.439 51.5378 117.893 52.2514 121.644 54.4801C125.385 56.7037 128.297 60.3571 130.379 65.2536L130.38 65.2545C132.023 69.1223 133.079 73.113 133.961 77.0827C134.857 81.1134 135.544 84.9733 136.498 88.8952L136.499 88.8981C137.408 92.6747 138.384 96.3133 140.046 99.6539L140.388 100.318V100.319C142.089 103.522 144.001 105.232 146.063 105.831C148.129 106.43 150.674 106.013 153.854 104.229H153.855C158.188 101.801 161.386 98.0656 164.415 93.942L164.954 93.2008C170.482 85.515 174.729 77.0565 178.488 68.3131L178.489 68.3112C180.053 64.6866 180.358 62.7487 179.826 61.3043C179.281 59.8245 177.719 58.4564 174.22 56.4391L174.849 55.3463L174.838 55.2877L174.6 54.0016C180.635 52.8835 186.729 52.7156 193.372 54.2233L197.771 55.2223L193.52 56.7321C189.811 58.049 187.615 60.3641 185.973 63.1618C185.14 64.5791 184.453 66.1167 183.782 67.7291C183.123 69.314 182.463 71.0194 181.728 72.6305C178.275 80.2104 174.515 87.6864 169.74 94.6295L169.739 94.6315C166.778 98.9217 163.46 103.045 159.213 106.334L159.212 106.335C154.846 109.712 150.494 111.29 146.255 110.772C142.016 110.254 138.179 107.677 134.767 103.365C131.076 98.7014 128.498 93.4314 126.227 88.1354L126.225 88.1305C125.064 85.3987 123.949 82.6458 122.836 79.9059C121.722 77.1623 120.61 74.43 119.451 71.7223C117.743 67.7315 115.953 63.9305 113.269 60.7653V60.7643C112.195 59.4961 111.045 58.5744 109.847 58.1305C108.695 57.704 107.406 57.6827 105.908 58.3746C104.285 59.1317 103.373 60.1543 102.909 61.3307C102.431 62.5429 102.373 64.0631 102.739 65.8766H102.738C103.532 69.7713 105.538 73.1226 107.722 76.6842H107.723C115.056 88.5738 123.571 99.6329 132.117 110.736H132.118C148.81 132.429 151.963 155.81 141.877 181.085L141.876 181.087C140.935 183.434 140.142 185.813 139.265 188.261L139.264 188.26C138.228 191.193 138.078 193.674 138.67 195.767C139.258 197.848 140.621 199.695 142.896 201.296L145.237 202.942L142.461 203.634C139.886 204.277 137.784 204.743 136.039 204.92C134.285 205.097 132.765 204.999 131.409 204.408C130.039 203.81 128.996 202.78 128.061 201.405C127.138 200.049 126.264 198.27 125.268 196.073L125.267 196.072C106.159 153.845 87.0139 111.632 67.958 69.3678V69.3668C65.5487 64.0409 63.4462 59.2756 58 56.4684L58.5996 53.9977C62.3471 53.9977 66.0952 53.9889 69.8447 53.9801C73.5937 53.9713 77.3447 53.9625 81.0957 53.9625L81.6328 56.4625C78.3455 57.9435 77.3539 59.5507 77.1826 61.1461C76.9881 62.9583 77.7772 65.1563 79.0576 67.9713C92.4105 97.3199 105.645 126.74 118.886 156.143L132.132 185.539L132.133 185.54C132.591 186.558 133.095 187.537 133.67 188.641C139.006 176.622 142.429 164.886 142.627 153.37C142.838 141.107 139.395 129.02 130.574 117.028C122.381 105.89 114.331 94.6654 106.353 83.3727H106.352C102.942 78.5421 99.5544 73.3377 98.1689 67.1618V67.1608C97.2486 63.0546 97.4965 59.5934 99.3125 56.9733C101.126 54.3565 104.281 52.9017 108.427 52.2868Z" fill="white"/></svg>