<svg width="21" height="21" viewBox="0 0 21 21" fill="none" xmlns="http://www.w3.org/2000/svg">
<path d="M15 0.628906H6C4.60807 0.630395 3.27358 1.184 2.28933 2.16824C1.30509 3.15248 0.751489 4.48698 0.75 5.87891V14.8789C0.751489 16.2708 1.30509 17.6053 2.28933 18.5896C3.27358 19.5738 4.60807 20.1274 6 20.1289H15C16.3919 20.1274 17.7264 19.5738 18.7107 18.5896C19.6949 17.6053 20.2485 16.2708 20.25 14.8789V5.87891C20.2485 4.48698 19.6949 3.15248 18.7107 2.16824C17.7264 1.184 16.3919 0.630395 15 0.628906ZM10.5 14.8789C9.60998 14.8789 8.73995 14.615 7.99993 14.1205C7.25991 13.6261 6.68314 12.9232 6.34254 12.101C6.00195 11.2787 5.91283 10.3739 6.08647 9.501C6.2601 8.62809 6.68868 7.82626 7.31802 7.19693C7.94736 6.56759 8.74918 6.13901 9.62209 5.96537C10.495 5.79174 11.3998 5.88085 12.2221 6.22145C13.0443 6.56204 13.7471 7.13882 14.2416 7.87884C14.7361 8.61886 15 9.48889 15 10.3789C14.9988 11.572 14.5243 12.7159 13.6806 13.5595C12.837 14.4032 11.6931 14.8777 10.5 14.8789ZM16.125 5.87891C15.9025 5.87891 15.685 5.81293 15.5 5.68931C15.315 5.56569 15.1708 5.38999 15.0856 5.18443C15.0005 4.97886 14.9782 4.75266 15.0216 4.53443C15.065 4.3162 15.1722 4.11575 15.3295 3.95841C15.4868 3.80108 15.6873 3.69393 15.9055 3.65052C16.1238 3.60711 16.35 3.62939 16.5555 3.71454C16.7611 3.79969 16.9368 3.94388 17.0604 4.12889C17.184 4.31389 17.25 4.5314 17.25 4.75391C17.25 5.05227 17.1315 5.33842 16.9205 5.5494C16.7095 5.76038 16.4234 5.87891 16.125 5.87891ZM13.5 10.3789C13.5 10.9722 13.3241 11.5523 12.9944 12.0456C12.6648 12.539 12.1962 12.9235 11.6481 13.1505C11.0999 13.3776 10.4967 13.437 9.91473 13.3213C9.33279 13.2055 8.79824 12.9198 8.37868 12.5002C7.95912 12.0807 7.6734 11.5461 7.55764 10.9642C7.44189 10.3822 7.5013 9.77903 7.72836 9.23086C7.95542 8.68268 8.33994 8.21414 8.83329 7.8845C9.32664 7.55485 9.90666 7.37891 10.5 7.37891C11.2956 7.37891 12.0587 7.69498 12.6213 8.25759C13.1839 8.8202 13.5 9.58326 13.5 10.3789Z" fill="#535353"/>
</svg>
