<svg width="21" height="21" viewBox="0 0 21 21" fill="none" xmlns="http://www.w3.org/2000/svg">
<path d="M15.803 0.628906H5.197C4.01758 0.628906 2.88647 1.09743 2.0525 1.9314C1.21852 2.76538 0.75 3.89649 0.75 5.07591V15.6819C0.75 16.8613 1.21852 17.9924 2.0525 18.8264C2.88647 19.6604 4.01758 20.1289 5.197 20.1289H15.803C16.9824 20.1289 18.1135 19.6604 18.9475 18.8264C19.7815 17.9924 20.25 16.8613 20.25 15.6819V5.07591C20.25 3.89649 19.7815 2.76538 18.9475 1.9314C18.1135 1.09743 16.9824 0.628906 15.803 0.628906ZM7.343 16.3709C7.34614 16.4253 7.33811 16.4798 7.31942 16.5311C7.30072 16.5823 7.27176 16.6291 7.2343 16.6687C7.19684 16.7084 7.15167 16.7399 7.10158 16.7614C7.05149 16.7829 6.99752 16.794 6.943 16.7939H5.163C5.05566 16.7913 4.95362 16.7467 4.87883 16.6696C4.80403 16.5926 4.76244 16.4893 4.763 16.3819V8.97891C4.76153 8.92546 4.77079 8.87226 4.79023 8.82245C4.80967 8.77265 4.8389 8.72724 4.8762 8.68893C4.91349 8.65061 4.95808 8.62016 5.00734 8.59937C5.0566 8.57859 5.10953 8.56789 5.163 8.56791H6.943C6.99647 8.56789 7.0494 8.57859 7.09866 8.59937C7.14792 8.62016 7.19251 8.65061 7.2298 8.68893C7.2671 8.72724 7.29633 8.77265 7.31577 8.82245C7.33521 8.87226 7.34447 8.92546 7.343 8.97891V16.3709ZM6.02 7.01091C5.82729 7.00946 5.63674 6.97007 5.45925 6.89499C5.28176 6.81991 5.12079 6.7106 4.98554 6.57331C4.85029 6.43602 4.74341 6.27343 4.671 6.09483C4.59858 5.91623 4.56206 5.72512 4.5635 5.53241C4.56494 5.33969 4.60433 5.14915 4.67942 4.97166C4.7545 4.79416 4.86381 4.6332 5.0011 4.49795C5.13839 4.3627 5.30098 4.25582 5.47957 4.1834C5.65817 4.11099 5.84929 4.07446 6.042 4.07591C6.42452 4.08835 6.78703 4.24978 7.05219 4.52576C7.31734 4.80175 7.46415 5.17043 7.46128 5.55313C7.4584 5.93584 7.30609 6.30228 7.03682 6.57425C6.76755 6.84623 6.40266 7.00221 6.02 7.00891M16.837 16.3589C16.8365 16.4599 16.7969 16.5569 16.7264 16.6292C16.6558 16.7016 16.56 16.7438 16.459 16.7469H14.58C14.4788 16.7438 14.3828 16.7015 14.3123 16.6289C14.2418 16.5563 14.2022 16.4591 14.202 16.3579V12.9339C14.202 12.4229 14.358 10.7109 12.846 10.7109C11.667 10.7109 11.434 11.9109 11.389 12.4449V16.4359C11.389 16.5373 11.3496 16.6347 11.279 16.7075C11.2085 16.7803 11.1123 16.8228 11.011 16.8259H9.188C9.08474 16.8256 8.9858 16.7844 8.91287 16.7113C8.83995 16.6382 8.799 16.5392 8.799 16.4359V8.94291C8.80212 8.84157 8.84458 8.74542 8.91739 8.67486C8.99019 8.6043 9.08761 8.56486 9.189 8.56491H11.011C11.1124 8.56486 11.2098 8.6043 11.2826 8.67486C11.3554 8.74542 11.3979 8.84157 11.401 8.94291V9.58791C11.667 9.19853 12.0343 8.88917 12.4633 8.69321C12.8922 8.49724 13.3665 8.42211 13.835 8.47591C16.87 8.47591 16.859 11.3109 16.859 12.9229L16.837 16.3589Z" fill="#535353"/>
</svg>
