<svg width="95" height="24" viewBox="0 0 95 24" fill="none" xmlns="http://www.w3.org/2000/svg">
<g clip-path="url(#clip0_1452_2382)">
<mask id="mask0_1452_2382" style="mask-type:luminance" maskUnits="userSpaceOnUse" x="0" y="0" width="95" height="24">
<path d="M95 0H0V24H95V0Z" fill="white"/>
</mask>
<g mask="url(#mask0_1452_2382)">
<path d="M9.44775 0V8.30861C11.3592 8.31018 13.1932 7.55363 14.5471 6.20504C15.9009 4.85645 16.6639 3.02606 16.6687 1.11573V0H9.44775Z" fill="#535353"/>
<path d="M16.6686 17.0801V8.77149C14.7577 8.76991 12.9243 9.52666 11.5714 10.8754C10.2185 12.2242 9.45676 14.0546 9.45361 15.9644V17.0801H16.6686Z" fill="#535353"/>
<path d="M6.98341 17.0801C5.01048 16.6823 3.23608 15.6144 1.96138 14.0577C0.686688 12.5011 -0.00976562 10.5516 -0.00976562 8.54006C-0.00976562 6.52857 0.686688 4.57904 1.96138 3.02238C3.23608 1.46572 5.01048 0.397845 6.98341 0V17.0801Z" fill="#535353"/>
<path d="M28.9491 15.4303C26.5739 15.4303 24.6677 14.7004 23.3019 13.2642C22.6897 12.6241 22.2104 11.8693 21.8914 11.0432C21.5724 10.2172 21.4201 9.33623 21.4432 8.4511C21.4127 6.54372 22.1361 4.70126 23.4563 3.32351C24.2418 2.52565 25.1865 1.90195 26.229 1.49295C27.2715 1.08396 28.3885 0.898838 29.5073 0.94962C30.9182 0.922928 32.3156 1.22785 33.5869 1.83983C33.6119 1.85283 33.6329 1.87242 33.6475 1.89648C33.6622 1.92055 33.67 1.94816 33.6701 1.97633V4.94369C33.6694 4.97893 33.6566 5.01288 33.6339 5.03987C33.6112 5.06686 33.58 5.08528 33.5454 5.09205H33.5157C33.486 5.09167 33.4571 5.08242 33.4328 5.06549C33.4085 5.04857 33.3898 5.02475 33.3791 4.9971C32.6606 3.19294 31.2591 2.33241 29.0976 2.33241C28.3376 2.30205 27.5808 2.44683 26.8857 2.75556C26.1907 3.06429 25.576 3.52869 25.0893 4.11282C24.1722 5.22434 23.691 6.6313 23.7354 8.07128C23.6976 9.549 24.1952 10.9906 25.1368 12.1306C25.6492 12.7362 26.2932 13.2168 27.0198 13.5357C27.7464 13.8545 28.5363 14.0032 29.3292 13.9704C30.1777 13.9598 31.0143 13.7697 31.7839 13.4128C32.5536 13.0558 33.2389 12.5399 33.7948 11.8992C33.8206 11.8803 33.8518 11.8699 33.8838 11.8695H33.9373C33.9659 11.8805 33.9904 11.9001 34.0074 11.9256C34.0244 11.9511 34.0331 11.9813 34.0323 12.0119V13.3354C34.0327 13.375 34.0178 13.4132 33.9907 13.4422C33.3342 14.1049 32.547 14.6238 31.6791 14.9661C30.8112 15.3083 29.8815 15.4664 28.9491 15.4303Z" fill="#535353"/>
<path d="M57.423 2.31435C56.5131 2.28318 55.6062 2.43642 54.7571 2.76484C53.908 3.09326 53.1342 3.59007 52.4824 4.22533C51.8519 4.84909 51.3559 5.59531 51.025 6.41798C50.6941 7.24066 50.5353 8.12235 50.5584 9.00871C50.5274 9.85785 50.6693 10.7044 50.9755 11.4971C51.2817 12.2898 51.7459 13.012 52.3399 13.62C52.9615 14.2277 53.7011 14.7018 54.513 15.0131C55.3249 15.3244 56.1919 15.4663 57.0608 15.4301C57.9784 15.4618 58.8928 15.3043 59.7469 14.9673C60.601 14.6304 61.3765 14.1212 62.0251 13.4716C62.6408 12.8472 63.1235 12.1046 63.4439 11.2886C63.7644 10.4725 63.9161 9.60007 63.8897 8.72384C63.9255 7.86803 63.7823 7.01417 63.4692 6.2168C63.1562 5.41942 62.6802 4.69606 62.0716 4.0929C61.4631 3.48974 60.7353 3.02004 59.9349 2.7138C59.1345 2.40756 58.279 2.27152 57.423 2.31435ZM61.8648 9.15708C61.9203 10.4441 61.4804 11.7034 60.6356 12.6764C60.2345 13.1142 59.7435 13.4601 59.1962 13.6906C58.6489 13.9211 58.0582 14.0306 57.4646 14.0117C56.8018 14.032 56.1429 13.9034 55.5366 13.6353C54.9302 13.3672 54.3918 12.9665 53.961 12.4627C53.0356 11.3403 52.5576 9.9158 52.619 8.46272C52.5546 7.20322 52.9801 5.96766 53.8066 5.01464C54.2173 4.58453 54.7155 4.24751 55.2677 4.02636C55.8199 3.80522 56.4131 3.70509 57.0073 3.73274C57.669 3.70754 58.3281 3.83033 58.9363 4.09215C59.5445 4.35396 60.0865 4.74821 60.5228 5.2461C61.4341 6.33859 61.908 7.72985 61.8529 9.15114" fill="#535353"/>
<path d="M68.7944 3.91703C68.792 3.88344 68.792 3.84973 68.7944 3.81614C68.8265 3.62165 68.9169 3.44148 69.0537 3.29948C69.1905 3.15747 69.3672 3.06032 69.5604 3.02088C69.608 3.00845 69.6496 2.97956 69.6779 2.93936C69.7061 2.89915 69.7192 2.85024 69.7148 2.8013C69.7091 2.74985 69.6848 2.70224 69.6466 2.66731C69.6084 2.63238 69.5588 2.61251 69.507 2.61139H65.9797C65.9245 2.60588 65.8695 2.62248 65.8266 2.65754C65.7837 2.6926 65.7565 2.74324 65.751 2.79833C65.7455 2.85342 65.7621 2.90844 65.7972 2.95129C65.8323 2.99414 65.883 3.02131 65.9381 3.02682C66.1582 3.07058 66.3565 3.18899 66.4993 3.36202C66.6421 3.53505 66.7208 3.75207 66.7219 3.97637V13.7983C66.7208 14.0226 66.6421 14.2397 66.4993 14.4127C66.3565 14.5857 66.1582 14.7041 65.9381 14.7479C65.9211 14.7476 65.9042 14.7513 65.8888 14.7585C65.8734 14.7656 65.8598 14.7762 65.849 14.7894C65.8285 14.8117 65.8126 14.8379 65.8024 14.8665C65.7922 14.895 65.7879 14.9253 65.7896 14.9556C65.794 15.0081 65.8177 15.0572 65.856 15.0933C65.8944 15.1295 65.9448 15.1502 65.9975 15.1514H69.5129C69.568 15.1514 69.6209 15.1296 69.6599 15.0906C69.6989 15.0517 69.7208 14.9988 69.7208 14.9437C69.7243 14.8992 69.7111 14.855 69.6836 14.8199C69.6561 14.7847 69.6164 14.7611 69.5723 14.7538C69.35 14.7125 69.149 14.5951 69.0038 14.4219C68.8586 14.2486 68.7783 14.0303 68.7766 13.8043V3.97044C68.7766 3.97044 68.7766 3.93483 68.7766 3.91703" fill="#535353"/>
<path d="M82.9395 12.0887C82.9 12.0729 82.8567 12.0695 82.8153 12.0791C82.7739 12.0887 82.7364 12.1107 82.7079 12.1422C82.2178 12.7072 81.6136 13.1622 80.9351 13.4772C80.2565 13.7922 79.5189 13.9602 78.7708 13.97C78.0732 13.9989 77.3783 13.8679 76.7391 13.5871C76.1 13.3062 75.5335 12.8831 75.0832 12.3499C74.2584 11.3489 73.8201 10.0855 73.848 8.78904C73.8091 7.52064 74.231 6.28105 75.0357 5.29943C75.4646 4.78654 76.0058 4.37904 76.6174 4.10841C77.229 3.83778 77.8947 3.71125 78.563 3.7386C80.4751 3.7386 81.7103 4.4923 82.3397 6.0472C82.357 6.09258 82.3896 6.13049 82.4319 6.15434C82.4742 6.17819 82.5235 6.18648 82.5713 6.17776C82.6195 6.16821 82.663 6.14234 82.6943 6.1045C82.7257 6.06667 82.7431 6.01918 82.7435 5.97005V3.30536C82.7438 3.26644 82.7334 3.22817 82.7135 3.1947C82.6937 3.16123 82.665 3.13383 82.6307 3.11545C81.4919 2.56906 80.2417 2.29477 78.9787 2.31426C77.9673 2.27082 76.9582 2.44073 76.0169 2.81293C75.0756 3.18513 74.2233 3.75127 73.5155 4.4745C72.9193 5.09384 72.4514 5.82471 72.1386 6.62519C71.8258 7.42567 71.6741 8.28001 71.6924 9.13919C71.6719 9.9392 71.8097 10.7354 72.0981 11.4819C72.3865 12.2285 72.8198 12.9107 73.373 13.4893C74.039 14.1539 74.8371 14.6716 75.7157 15.0089C76.5943 15.3462 77.5339 15.4957 78.4739 15.4478C79.3199 15.4762 80.1626 15.3278 80.9479 15.012C81.7332 14.6962 82.4439 14.22 83.0345 13.614C83.0718 13.5759 83.0931 13.5249 83.0939 13.4715V12.2846C83.0945 12.2426 83.0823 12.2014 83.059 12.1664C83.0356 12.1314 83.0023 12.1043 82.9632 12.0887" fill="#535353"/>
<path d="M94.8455 11.9581C94.7966 11.9452 94.7447 11.95 94.699 11.9717C94.6533 11.9935 94.6169 12.0307 94.5961 12.0768L94.5545 12.1598C94.3753 12.6444 94.0512 13.0621 93.6263 13.3562C93.2013 13.6503 92.6961 13.8066 92.1792 13.8038H88.1234V9.4002H91.8823C92.6661 9.4002 93.0699 9.62572 93.159 10.0827C93.1662 10.1325 93.1912 10.178 93.2295 10.2107C93.2677 10.2435 93.3165 10.2612 93.3668 10.2607C93.4188 10.2563 93.4672 10.2324 93.5024 10.1939C93.5376 10.1555 93.5571 10.1052 93.5569 10.053V7.44174C93.5624 7.38665 93.5458 7.33163 93.5107 7.28878C93.4756 7.24593 93.4249 7.21876 93.3698 7.21325C93.3147 7.20775 93.2596 7.22435 93.2168 7.25941C93.1739 7.29447 93.1467 7.34511 93.1412 7.4002C93.0462 7.86311 92.6186 8.08863 91.8407 8.08863H88.0996V3.80376H92.3395C92.748 3.80804 93.1425 3.95247 93.4571 4.21285C93.7717 4.47324 93.9872 4.83376 94.0676 5.23403C94.0789 5.27969 94.1047 5.32049 94.1411 5.35041C94.1774 5.38033 94.2224 5.39778 94.2695 5.4002C94.3204 5.39435 94.3673 5.3699 94.4013 5.33157C94.4353 5.29323 94.4539 5.2437 94.4535 5.19248V2.8186C94.4535 2.76351 94.4316 2.71067 94.3927 2.67172C94.3537 2.63277 94.3008 2.61088 94.2457 2.61088H85.273C85.2179 2.60695 85.1635 2.62506 85.1217 2.66123C85.0799 2.6974 85.0543 2.74867 85.0503 2.80376C85.0464 2.85885 85.0645 2.91325 85.1007 2.95498C85.1369 2.99672 85.1882 3.02238 85.2433 3.02631C85.4786 3.05372 85.6957 3.16584 85.8542 3.34171C86.0127 3.51758 86.1016 3.74514 86.1044 3.9818V13.78C86.103 14 86.0272 14.2131 85.8891 14.3844C85.7511 14.5558 85.559 14.6754 85.3443 14.7236H85.3027C85.2476 14.7276 85.1963 14.7532 85.1601 14.795C85.1239 14.8367 85.1058 14.8911 85.1097 14.9462C85.1136 15.0013 85.1393 15.0526 85.1811 15.0887C85.2228 15.1249 85.2773 15.143 85.3324 15.1391H94.3288C94.3788 15.1384 94.427 15.1202 94.465 15.0877C94.503 15.0551 94.5283 15.0103 94.5367 14.961L95.0117 12.1955C95.0197 12.1447 95.0091 12.0927 94.9818 12.0491C94.9546 12.0055 94.9125 11.9732 94.8633 11.9581" fill="#535353"/>
<path d="M47.9453 3.97045C47.9447 3.75107 48.0183 3.5379 48.1541 3.36554C48.2899 3.19318 48.48 3.07173 48.6935 3.0209C48.7422 3.00966 48.7852 2.98128 48.8146 2.94096C48.8441 2.90063 48.858 2.85106 48.8539 2.80131C48.8515 2.75586 48.8347 2.71235 48.8058 2.67712C48.777 2.64189 48.7377 2.61679 48.6935 2.60547H45.1306C45.0804 2.60722 45.0325 2.62709 44.9958 2.6614C44.9591 2.69571 44.9361 2.74214 44.9311 2.79209C44.926 2.84205 44.9392 2.89215 44.9682 2.93313C44.9973 2.9741 45.0402 3.00317 45.089 3.01496C45.3069 3.06026 45.5023 3.17965 45.642 3.35279C45.7817 3.52594 45.857 3.74212 45.8551 3.96452V8.07728H39.0083V4.01793V3.97045C39.0102 3.74728 39.0884 3.53147 39.2299 3.35878C39.3714 3.18609 39.5677 3.06688 39.7862 3.0209C39.8322 3.00851 39.8723 2.98027 39.8995 2.94117C39.9266 2.90208 39.9391 2.85464 39.9346 2.80725C39.9352 2.76205 39.9211 2.7179 39.8943 2.68148C39.8675 2.64507 39.8295 2.61838 39.7862 2.60547H36.2232C36.1701 2.60538 36.119 2.62563 36.0803 2.66205C36.0417 2.69848 36.0184 2.74831 36.0154 2.80131C36.0112 2.84951 36.0245 2.89759 36.0529 2.93681C36.0812 2.97603 36.1227 3.00376 36.1698 3.01496H36.2589C36.4412 3.06543 36.6048 3.16822 36.7294 3.31062C36.8539 3.45301 36.9339 3.62877 36.9596 3.81615C36.9596 3.8478 36.9596 3.87946 36.9596 3.91111C36.9596 3.91111 36.9596 3.91111 36.9596 3.94672V13.7153V13.7746C36.9595 13.9914 36.887 14.2019 36.7537 14.3729C36.6203 14.5438 36.4336 14.6654 36.2232 14.7182L36.146 14.7538C36.106 14.7698 36.072 14.7978 36.0486 14.8339C36.0251 14.8701 36.0136 14.9126 36.0154 14.9556C36.0198 15.0081 36.0434 15.0572 36.0818 15.0933C36.1201 15.1295 36.1705 15.1502 36.2232 15.1515H39.7862C39.8393 15.1516 39.8904 15.1313 39.9291 15.0949C39.9678 15.0585 39.991 15.0086 39.994 14.9556C39.9971 14.9116 39.9862 14.8678 39.9627 14.8304C39.9392 14.7931 39.9044 14.7642 39.8634 14.7479H39.7862C39.5736 14.6973 39.3843 14.5767 39.2486 14.4056C39.1129 14.2344 39.0387 14.0227 39.038 13.8043V9.43633H45.8848C45.8848 9.43633 45.8848 13.5906 45.8848 13.6737C45.8966 13.8218 45.8804 13.9708 45.8373 14.1129C45.7794 14.2604 45.6864 14.3915 45.5664 14.4949C45.4464 14.5983 45.3029 14.6709 45.1484 14.7064L45.0653 14.742C45.0213 14.7614 44.9854 14.7955 44.9638 14.8384C44.9421 14.8813 44.936 14.9304 44.9465 14.9773C44.957 15.0242 44.9835 15.066 45.0214 15.0956C45.0593 15.1252 45.1063 15.1408 45.1544 15.1396H48.7173C48.7654 15.1408 48.8124 15.1252 48.8503 15.0956C48.8882 15.066 48.9146 15.0242 48.9251 14.9773C48.9356 14.9304 48.9295 14.8813 48.9079 14.8384C48.8862 14.7955 48.8504 14.7614 48.8064 14.742L48.6935 14.7182C48.4805 14.6686 48.2905 14.5483 48.1546 14.3769C48.0188 14.2056 47.945 13.9933 47.9453 13.7746V3.97045Z" fill="#535353"/>
<path d="M42.2624 22.3028V23.9349H41.5854V20.0654H42.2624V21.6737H44.1092V20.0654H44.7862V23.9349H44.1092V22.3028H42.2624Z" fill="#535353"/>
<path d="M49.6554 24C49.2601 23.9988 48.874 23.8807 48.5458 23.6605C48.2177 23.4402 47.9621 23.1278 47.8114 22.7626C47.6606 22.3974 47.6215 21.9958 47.6989 21.6084C47.7763 21.221 47.9668 20.8651 48.2463 20.5858C48.5258 20.3064 48.8818 20.1161 49.2695 20.0387C49.6571 19.9614 50.059 20.0005 50.4244 20.1511C50.7898 20.3017 51.1024 20.5572 51.3228 20.8852C51.5431 21.2131 51.6614 21.599 51.6625 21.9941C51.6683 22.2611 51.6196 22.5265 51.5193 22.7741C51.419 23.0216 51.2692 23.2461 51.0791 23.4339C50.889 23.6216 50.6626 23.7687 50.4137 23.866C50.1649 23.9633 49.8987 24.0089 49.6316 24M49.6316 20.6231C49.4547 20.6238 49.2797 20.6601 49.1172 20.7301C48.9546 20.8 48.808 20.9021 48.6859 21.0302C48.5639 21.1582 48.469 21.3096 48.407 21.4753C48.3451 21.6409 48.3172 21.8174 48.3252 21.9941C48.3181 22.1721 48.3468 22.3497 48.4097 22.5164C48.4725 22.6832 48.5683 22.8355 48.6913 22.9645C48.8143 23.0935 48.9619 23.1965 49.1255 23.2673C49.2891 23.3382 49.4653 23.3754 49.6435 23.3768C49.8205 23.3762 49.9955 23.3398 50.158 23.2699C50.3205 23.2 50.4672 23.0979 50.5893 22.9698C50.7113 22.8418 50.8062 22.6903 50.8681 22.5247C50.9301 22.3591 50.9579 22.1826 50.9499 22.0059C50.9571 21.8279 50.9284 21.6503 50.8655 21.4835C50.8026 21.3168 50.7068 21.1644 50.5839 21.0355C50.4609 20.9065 50.3132 20.8035 50.1497 20.7327C49.9861 20.6618 49.8099 20.6246 49.6316 20.6231Z" fill="#535353"/>
<path d="M55.8848 23.9349H55.2019V20.6945H53.9727V20.0654H57.114V20.6945H55.8848V23.9349Z" fill="#535353"/>
<path d="M62.9097 20.6767H60.7244V21.6797H62.6662V22.285H60.7244V23.3236H62.9394V23.9349H60.0415V20.0654H62.9097V20.6767Z" fill="#535353"/>
<path d="M66.3359 20.0654H67.0129V23.3177H69.0497V23.9349H66.3359V20.0654Z" fill="#535353"/>
<path d="M72.8739 21.6914C73.6934 21.8931 74.115 22.1839 74.115 22.8308C74.115 23.4777 73.5212 24.0178 72.7314 24.0178C72.1377 24.0287 71.5615 23.8169 71.1162 23.4243L71.5259 22.9377C71.8538 23.2565 72.2918 23.4372 72.7492 23.4421C72.8265 23.4548 72.9054 23.4521 72.9816 23.4342C73.0578 23.4163 73.1297 23.3835 73.1932 23.3377C73.2566 23.292 73.3104 23.2341 73.3514 23.1675C73.3924 23.1008 73.4199 23.0268 73.4321 22.9495C73.4321 22.6706 73.2777 22.5163 72.5592 22.356C71.7338 22.1543 71.2706 21.9109 71.2706 21.1691C71.2777 21.0067 71.3182 20.8474 71.3894 20.7012C71.4607 20.5551 71.5613 20.4251 71.6849 20.3194C71.8085 20.2136 71.9525 20.1344 72.108 20.0866C72.2635 20.0388 72.4272 20.0235 72.5889 20.0415C73.0992 20.0313 73.5963 20.2039 73.9903 20.5282L73.634 21.0089C73.3358 20.7665 72.9671 20.627 72.583 20.6112C72.5109 20.5977 72.4369 20.5992 72.3654 20.6155C72.2939 20.6318 72.2266 20.6626 72.1676 20.706C72.1085 20.7494 72.0591 20.8045 72.0222 20.8678C71.9854 20.9312 71.962 21.0014 71.9535 21.0741C71.9535 21.3768 72.1316 21.5133 72.8739 21.6676" fill="#535353"/>
<path d="M75.0059 20.9017C75.0061 20.7955 75.0284 20.6904 75.0712 20.5931C75.1119 20.498 75.1704 20.4114 75.2434 20.3379C75.317 20.2652 75.4036 20.2068 75.4987 20.1658C75.6893 20.0893 75.902 20.0893 76.0926 20.1658C76.2847 20.2481 76.4378 20.4011 76.5201 20.5931C76.5967 20.7835 76.5967 20.9962 76.5201 21.1866C76.4789 21.2815 76.4205 21.368 76.3479 21.4418C76.2742 21.5145 76.1876 21.5728 76.0926 21.6139C75.9019 21.6899 75.6894 21.6899 75.4987 21.6139C75.3066 21.5317 75.1535 21.3786 75.0712 21.1866C75.0276 21.0875 75.0053 20.9803 75.0059 20.8721M75.1484 20.8721C75.1487 20.9599 75.1669 21.0467 75.2018 21.1273C75.2686 21.2851 75.3943 21.4107 75.5522 21.4774C75.6331 21.511 75.7199 21.5283 75.8075 21.5283C75.8952 21.5283 75.982 21.511 76.0629 21.4774C76.2211 21.4112 76.347 21.2854 76.4132 21.1273C76.4479 21.0466 76.4661 20.9598 76.4667 20.8721C76.4664 20.7843 76.4482 20.6974 76.4132 20.6169C76.3465 20.4591 76.2208 20.3335 76.0629 20.2667C75.982 20.2331 75.8952 20.2158 75.8075 20.2158C75.7199 20.2158 75.6331 20.2331 75.5522 20.2667C75.3943 20.3335 75.2686 20.4591 75.2018 20.6169C75.1667 20.6974 75.1485 20.7842 75.1484 20.8721ZM75.4987 20.4092H75.855C75.9422 20.4022 76.0288 20.4276 76.0985 20.4804C76.125 20.5066 76.1456 20.5381 76.159 20.5729C76.1723 20.6077 76.178 20.645 76.1757 20.6822C76.1781 20.7143 76.1741 20.7466 76.1639 20.7771C76.1537 20.8077 76.1375 20.8359 76.1163 20.8602C76.0742 20.9005 76.0199 20.9255 75.9619 20.9314L76.1995 21.3172H76.0094L75.7778 20.9433H75.6531V21.3646H75.4869V20.4388L75.4987 20.4092ZM75.665 20.8068H75.8669H75.9382C75.96 20.7991 75.9788 20.7845 75.9917 20.7653C76.0045 20.746 76.0107 20.7231 76.0094 20.7C76.0107 20.6768 76.0045 20.6539 75.9917 20.6347C75.9788 20.6154 75.96 20.6008 75.9382 20.5931H75.8669H75.665V20.8483V20.8068Z" fill="#535353"/>
</g>
</g>
<defs>
<clipPath id="clip0_1452_2382">
<rect width="95" height="24" fill="white"/>
</clipPath>
</defs>
</svg>
