<svg width="202" height="72" viewBox="0 0 202 72" fill="none" xmlns="http://www.w3.org/2000/svg">
<path d="M78.437 12.8042L83.9578 27.4827L89.4786 12.8042H93.7726V31.952H90.4645V25.6424L90.7931 17.2077L85.1408 31.9739H82.7529L77.1006 17.2297L77.4292 25.6643V31.9739H74.1211V12.8042H78.437Z" fill="white" fill-opacity="0.8"/>
<path d="M109.461 23.4078H101.596V29.3011H110.798V31.952H98.2661V12.8042H110.688V15.477H101.596V20.7569H109.461V23.4078Z" fill="white" fill-opacity="0.8"/>
<path d="M114.02 31.952V12.8042H119.672C121.359 12.8042 122.87 13.1766 124.185 13.9434C125.499 14.6883 126.507 15.7618 127.23 17.1639C127.953 18.5441 128.304 20.1434 128.304 21.918V22.882C128.304 24.7003 127.931 26.2996 127.208 27.6799C126.485 29.0601 125.456 30.1117 124.119 30.8565C122.783 31.6014 121.249 31.9739 119.518 31.9739H114.02V31.952ZM117.35 15.477V29.2792H119.518C121.271 29.2792 122.607 28.7315 123.528 27.636C124.47 26.5406 124.93 24.9852 124.952 22.9258V21.8523C124.952 19.771 124.492 18.1936 123.593 17.0982C122.695 16.0028 121.381 15.4551 119.65 15.4551H117.35V15.477Z" fill="white" fill-opacity="0.8"/>
<path d="M143.352 23.4078H135.487V29.3011H144.688V31.952H132.157V12.8042H144.579V15.477H135.487V20.7569H143.352V23.4078Z" fill="white" fill-opacity="0.8"/>
<path d="M151.261 29.3011H159.959V31.952H147.931V12.8042H151.261V29.3011Z" fill="white" fill-opacity="0.8"/>
<path d="M166.378 29.3011H175.076V31.952H163.048V12.8042H166.378V29.3011Z" fill="white" fill-opacity="0.8"/>
<path d="M181.667 31.952H178.359V12.8042H181.667V31.952Z" fill="white" fill-opacity="0.8"/>
<path d="M201.494 31.952H198.164L189.62 18.3689V31.952H186.29V12.8042H189.62L198.186 26.453V12.8042H201.494V31.952Z" fill="white" fill-opacity="0.8"/>
<path d="M80.1722 6.66986C79.9093 7.02039 79.515 7.30519 79.033 7.48046C78.551 7.65572 78.0033 7.76526 77.3899 7.76526C76.7546 7.76526 76.2069 7.61191 75.703 7.3271C75.221 7.04229 74.8486 6.62604 74.5857 6.10024C74.3228 5.57445 74.1913 4.93911 74.1694 4.23805V3.64653C74.1694 2.5073 74.4323 1.60906 74.98 0.973726C75.5277 0.338389 76.2945 0.00976562 77.2585 0.00976562C78.091 0.00976562 78.7701 0.206939 79.2521 0.623195C79.756 1.03945 80.0408 1.63097 80.1503 2.41967H78.8578C78.7044 1.52143 78.1786 1.06136 77.2804 1.06136C76.6889 1.06136 76.2507 1.28044 75.944 1.6967C75.6373 2.11295 75.4839 2.74829 75.462 3.55889V4.12851C75.462 4.93911 75.6373 5.57445 75.9878 6.03452C76.3383 6.49459 76.7984 6.71367 77.4118 6.71367C78.091 6.71367 78.551 6.56031 78.8359 6.2536V4.78575H77.2804V3.79988H80.1284V6.66986H80.1722Z" fill="white" fill-opacity="0.8"/>
<path d="M98.1793 4.74195H96.7115V7.63383H95.397V0.0974121H98.0478C98.9242 0.0974121 99.5814 0.294586 100.063 0.688933C100.545 1.08328 100.764 1.65289 100.764 2.37586C100.764 2.87975 100.633 3.29601 100.392 3.64654C100.151 3.99707 99.8005 4.23806 99.3842 4.43523L101.071 7.56811V7.63383H99.669L98.1793 4.74195ZM96.7115 3.69036H98.0478C98.486 3.69036 98.8365 3.58081 99.0775 3.36173C99.3185 3.14265 99.45 2.83594 99.45 2.44159C99.45 2.04724 99.3404 1.71862 99.0994 1.49954C98.8804 1.28045 98.5298 1.17091 98.0698 1.14901H96.6895V3.69036H96.7115Z" fill="white" fill-opacity="0.8"/>
<path d="M120.222 4.28188H117.133V6.60415H120.748V7.65574H115.819V0.0974121H120.704V1.14901H117.111V3.23028H120.2V4.28188H120.222Z" fill="white" fill-opacity="0.8"/>
<path d="M139.805 5.88117H136.891L136.278 7.63383H134.919L137.767 0.0974121H138.951L141.799 7.63383H140.44L139.805 5.88117ZM137.264 4.82958H139.454L138.359 1.69671L137.264 4.82958Z" fill="white" fill-opacity="0.8"/>
<path d="M161.255 1.14901H158.911V7.63383H157.618V1.14901H155.296V0.0974121H161.277V1.14901H161.255Z" fill="white" fill-opacity="0.8"/>
<path d="M180.445 4.28188H177.356V6.60415H180.971V7.65574H176.042V0.0974121H180.927V1.14901H177.334V3.23028H180.423V4.28188H180.445Z" fill="white" fill-opacity="0.8"/>
<path d="M198.585 4.74195H197.117V7.63383H195.803V0.0974121H198.454C199.33 0.0974121 199.987 0.294586 200.469 0.688933C200.951 1.08328 201.17 1.65289 201.17 2.37586C201.17 2.87975 201.039 3.29601 200.798 3.64654C200.557 3.99707 200.206 4.23806 199.79 4.43523L201.477 7.56811V7.63383H200.075L198.585 4.74195ZM197.139 3.69036H198.476C198.914 3.69036 199.264 3.58081 199.505 3.36173C199.746 3.14265 199.878 2.83594 199.878 2.44159C199.878 2.04724 199.768 1.71862 199.527 1.49954C199.308 1.28045 198.957 1.17091 198.497 1.14901H197.117V3.69036H197.139Z" fill="white" fill-opacity="0.8"/>
<path d="M79.8418 41.3287C79.7761 42.1174 79.4913 42.709 78.9874 43.1471C78.4835 43.5853 77.8263 43.8044 76.9938 43.8044C76.4023 43.8044 75.8984 43.6729 75.4602 43.3881C75.0221 43.1033 74.6715 42.7309 74.4305 42.2051C74.1896 41.7012 74.0581 41.1097 74.0581 40.4305V39.7514C74.0581 39.0722 74.1896 38.4588 74.4305 37.933C74.6715 37.4072 75.0221 37.0128 75.4821 36.728C75.9422 36.4432 76.468 36.3118 77.0595 36.3118C77.8701 36.3118 78.5054 36.5308 79.0093 36.969C79.4913 37.4072 79.7761 38.0206 79.8637 38.8312H78.5931C78.5274 38.3054 78.374 37.933 78.133 37.692C77.892 37.451 77.5196 37.3415 77.0595 37.3415C76.5118 37.3415 76.0737 37.5386 75.7888 37.9549C75.504 38.3711 75.3507 38.9407 75.3288 39.7294V40.3867C75.3288 41.1754 75.4602 41.7888 75.745 42.1832C76.0298 42.5994 76.4461 42.7966 76.9938 42.7966C77.4977 42.7966 77.8701 42.687 78.1111 42.468C78.3521 42.2489 78.5274 41.8764 78.5931 41.3507H79.8418V41.3287Z" fill="white" fill-opacity="0.8"/>
<path d="M87.2298 40.2333C87.2298 40.9563 87.0983 41.5697 86.8574 42.1174C86.6164 42.6651 86.2658 43.0814 85.8058 43.3662C85.3457 43.651 84.8199 43.8044 84.2284 43.8044C83.6369 43.8044 83.1111 43.651 82.651 43.3662C82.1909 43.0814 81.8404 42.6651 81.5775 42.1393C81.3146 41.6135 81.2051 40.9782 81.2051 40.2991V39.8828C81.2051 39.1817 81.3365 38.5464 81.5775 37.9987C81.8404 37.451 82.1909 37.0347 82.651 36.7499C83.1111 36.4651 83.6369 36.3118 84.2284 36.3118C84.8199 36.3118 85.3457 36.4651 85.8058 36.7499C86.2658 37.0347 86.6164 37.451 86.8793 37.9768C87.1203 38.5026 87.2517 39.1379 87.2517 39.839V40.2333H87.2298ZM85.9591 39.8609C85.9591 39.0503 85.8058 38.4369 85.4991 37.9987C85.1923 37.5605 84.7542 37.3415 84.2065 37.3415C83.6588 37.3415 83.2206 37.5605 82.9139 37.9768C82.6072 38.415 82.4538 39.0065 82.4319 39.7952V40.2114C82.4319 41.022 82.5853 41.6355 82.892 42.0736C83.1987 42.5118 83.6369 42.7309 84.1846 42.7309C84.7542 42.7309 85.1704 42.5118 85.4771 42.0955C85.7839 41.6574 85.9372 41.0439 85.9372 40.2114V39.8609H85.9591Z" fill="white" fill-opacity="0.8"/>
<path d="M94.6748 43.6946H93.4041L90.1398 38.5243V43.6946H88.8691V36.3992H90.1398L93.4041 41.5914V36.3992H94.6529V43.6946H94.6748Z" fill="white" fill-opacity="0.8"/>
<path d="M99.1668 42.0957L101.029 36.3777H102.431L99.8021 43.6731H98.5753L95.9463 36.3996H97.3265L99.1668 42.0957Z" fill="white" fill-opacity="0.8"/>
<path d="M107.907 40.4303H104.905V42.6868H108.411V43.6946H103.635V36.3992H108.367V37.4289H104.905V39.4444H107.907V40.4303Z" fill="white" fill-opacity="0.8"/>
<path d="M115.645 43.6946H114.374L111.132 38.5243V43.6946H109.861V36.3992H111.132L114.396 41.5914V36.3992H115.645V43.6946Z" fill="white" fill-opacity="0.8"/>
<path d="M122.697 37.4289H120.418V43.6946H119.17V37.4289H116.913V36.3992H122.697V37.4289Z" fill="white" fill-opacity="0.8"/>
<path d="M125.391 43.6946H124.12V36.3992H125.391V43.6946Z" fill="white" fill-opacity="0.8"/>
<path d="M133.189 40.2333C133.189 40.9563 133.058 41.5697 132.817 42.1174C132.576 42.6651 132.225 43.0814 131.765 43.3662C131.305 43.651 130.779 43.8044 130.188 43.8044C129.596 43.8044 129.071 43.651 128.61 43.3662C128.15 43.0814 127.8 42.6651 127.537 42.1393C127.274 41.6135 127.165 40.9782 127.165 40.2991V39.8828C127.165 39.1817 127.296 38.5464 127.537 37.9987C127.8 37.451 128.15 37.0347 128.61 36.7499C129.071 36.4651 129.596 36.3118 130.188 36.3118C130.779 36.3118 131.305 36.4651 131.765 36.7499C132.225 37.0347 132.576 37.451 132.839 37.9768C133.08 38.5026 133.211 39.1379 133.211 39.839V40.2333H133.189ZM131.919 39.8609C131.919 39.0503 131.765 38.4369 131.459 37.9987C131.152 37.5605 130.714 37.3415 130.166 37.3415C129.618 37.3415 129.18 37.5605 128.873 37.9768C128.567 38.415 128.413 39.0065 128.391 39.7952V40.2114C128.391 41.022 128.545 41.6355 128.851 42.0736C129.158 42.5118 129.596 42.7309 130.144 42.7309C130.714 42.7309 131.13 42.5118 131.437 42.0955C131.743 41.6793 131.897 41.0439 131.897 40.2114V39.8609H131.919Z" fill="white" fill-opacity="0.8"/>
<path d="M140.663 43.6946H139.392L136.128 38.5243V43.6946H134.857V36.3992H136.128L139.392 41.5914V36.3992H140.641V43.6946H140.663Z" fill="white" fill-opacity="0.8"/>
<path d="M145.217 41.723C145.217 41.3944 145.305 41.0658 145.502 40.8029C145.677 40.5181 146.05 40.1895 146.598 39.7951C146.313 39.4446 146.116 39.1379 146.006 38.875C145.896 38.634 145.831 38.393 145.831 38.152C145.831 37.5824 146.006 37.1223 146.357 36.7937C146.707 36.4651 147.167 36.2898 147.759 36.2898C148.284 36.2898 148.723 36.4432 149.073 36.7499C149.402 37.0566 149.577 37.4509 149.577 37.911C149.577 38.2177 149.489 38.5025 149.336 38.7435C149.183 39.0064 148.92 39.2474 148.569 39.5103L148.065 39.8608L149.467 41.5259C149.665 41.1315 149.774 40.6714 149.774 40.1895H150.826C150.826 41.0877 150.607 41.8326 150.19 42.4022L151.264 43.6729H149.84L149.424 43.1909C148.898 43.5852 148.284 43.7824 147.561 43.7824C146.838 43.7824 146.269 43.5852 145.831 43.2128C145.436 42.8403 145.217 42.3365 145.217 41.723ZM147.627 42.8184C148.043 42.8184 148.416 42.687 148.788 42.4022L147.189 40.5181L147.036 40.6276C146.641 40.9343 146.444 41.2849 146.444 41.6792C146.444 42.0078 146.554 42.2926 146.773 42.5117C146.992 42.7089 147.277 42.8184 147.627 42.8184ZM146.97 38.1301C146.97 38.4149 147.145 38.7654 147.496 39.1817L148.043 38.8092L148.197 38.6778C148.394 38.5025 148.503 38.2615 148.503 37.9767C148.503 37.7796 148.438 37.6262 148.284 37.4947C148.131 37.3633 147.956 37.2976 147.737 37.2976C147.496 37.2976 147.32 37.3852 147.167 37.5386C147.036 37.67 146.97 37.8672 146.97 38.1301Z" fill="white" fill-opacity="0.8"/>
<path d="M158.035 42.0957L159.898 36.3777H161.3L158.671 43.6731H157.444L154.815 36.3996H156.195L158.035 42.0957Z" fill="white" fill-opacity="0.8"/>
<path d="M163.862 43.6946H162.591V36.3992H163.862V43.6946Z" fill="white" fill-opacity="0.8"/>
<path d="M169.645 41.8107C169.645 41.482 169.535 41.241 169.316 41.0658C169.097 40.8905 168.681 40.7152 168.089 40.54C167.498 40.3647 167.038 40.1675 166.687 39.9485C166.03 39.5322 165.68 38.9845 165.68 38.3053C165.68 37.7138 165.921 37.2318 166.402 36.8594C166.884 36.487 167.498 36.2898 168.265 36.2898C168.769 36.2898 169.229 36.3774 169.623 36.5746C170.017 36.7718 170.324 37.0347 170.565 37.3633C170.784 37.7138 170.916 38.0863 170.916 38.5244H169.645C169.645 38.152 169.535 37.8453 169.294 37.6262C169.053 37.4071 168.703 37.2976 168.265 37.2976C167.848 37.2976 167.52 37.3852 167.301 37.5605C167.082 37.7357 166.95 37.9767 166.95 38.3053C166.95 38.5682 167.082 38.7873 167.323 38.9845C167.564 39.1598 167.98 39.335 168.549 39.5103C169.119 39.6856 169.579 39.8608 169.908 40.0799C170.258 40.299 170.499 40.54 170.675 40.8248C170.828 41.1096 170.916 41.4382 170.916 41.8107C170.916 42.4241 170.675 42.9061 170.214 43.2566C169.754 43.6071 169.119 43.8043 168.308 43.8043C167.783 43.8043 167.301 43.7167 166.863 43.5195C166.424 43.3223 166.074 43.0594 165.833 42.7089C165.592 42.3584 165.46 41.964 165.46 41.5039H166.731C166.731 41.9202 166.863 42.2488 167.147 42.4679C167.432 42.687 167.805 42.8184 168.33 42.8184C168.769 42.8184 169.097 42.7308 169.316 42.5555C169.535 42.3365 169.645 42.1174 169.645 41.8107Z" fill="white" fill-opacity="0.8"/>
<path d="M173.783 43.6946H172.513V36.3992H173.783V43.6946Z" fill="white" fill-opacity="0.8"/>
<path d="M180.884 37.4289H178.605V43.6946H177.357V37.4289H175.1V36.3992H180.884V37.4289Z" fill="white" fill-opacity="0.8"/>
<path d="M187.938 40.2333C187.938 40.9563 187.806 41.5697 187.565 42.1174C187.324 42.6651 186.974 43.0814 186.514 43.3662C186.054 43.651 185.528 43.8044 184.936 43.8044C184.345 43.8044 183.819 43.651 183.359 43.3662C182.899 43.0814 182.548 42.6651 182.286 42.1393C182.023 41.6135 181.913 40.9782 181.913 40.2991V39.8828C181.913 39.1817 182.045 38.5464 182.286 37.9987C182.548 37.451 182.899 37.0347 183.359 36.7499C183.819 36.4651 184.345 36.3118 184.936 36.3118C185.528 36.3118 186.054 36.4651 186.514 36.7499C186.974 37.0347 187.324 37.451 187.587 37.9768C187.828 38.5026 187.96 39.1379 187.96 39.839V40.2333H187.938ZM186.667 39.8609C186.667 39.0503 186.514 38.4369 186.207 37.9987C185.9 37.5605 185.462 37.3415 184.914 37.3415C184.367 37.3415 183.929 37.5605 183.622 37.9768C183.315 38.415 183.162 39.0065 183.14 39.7952V40.2114C183.14 41.022 183.293 41.6355 183.6 42.0736C183.907 42.5118 184.345 42.7309 184.893 42.7309C185.462 42.7309 185.878 42.5118 186.185 42.0955C186.492 41.6574 186.645 41.0439 186.645 40.2114V39.8609H186.667Z" fill="white" fill-opacity="0.8"/>
<path d="M192.278 40.8903H190.876V43.6946H189.605V36.3992H192.169C193.001 36.3992 193.658 36.5963 194.119 36.9688C194.579 37.3412 194.798 37.8889 194.798 38.6119C194.798 39.0939 194.688 39.5101 194.447 39.8388C194.206 40.1674 193.878 40.4303 193.461 40.6055L195.104 43.6508V43.7165H193.746L192.278 40.8903ZM190.876 39.8607H192.169C192.607 39.8607 192.935 39.7511 193.176 39.532C193.417 39.313 193.527 39.0282 193.527 38.6557C193.527 38.2614 193.417 37.9547 193.198 37.7575C192.979 37.5384 192.651 37.4289 192.213 37.4289H190.876V39.8607Z" fill="white" fill-opacity="0.8"/>
<path d="M200.227 41.8107C200.227 41.482 200.117 41.241 199.898 41.0658C199.679 40.8905 199.263 40.7152 198.671 40.54C198.08 40.3647 197.62 40.1675 197.269 39.9485C196.612 39.5322 196.262 38.9845 196.262 38.3053C196.262 37.7138 196.503 37.2318 196.985 36.8594C197.467 36.487 198.08 36.2898 198.847 36.2898C199.351 36.2898 199.811 36.3774 200.205 36.5746C200.599 36.7718 200.906 37.0347 201.147 37.3633C201.366 37.7138 201.498 38.0863 201.498 38.5244H200.227C200.227 38.152 200.117 37.8453 199.876 37.6262C199.635 37.4071 199.285 37.2976 198.847 37.2976C198.43 37.2976 198.102 37.3852 197.883 37.5605C197.664 37.7357 197.532 37.9767 197.532 38.3053C197.532 38.5682 197.664 38.7873 197.905 38.9845C198.146 39.1598 198.562 39.335 199.132 39.5103C199.701 39.6856 200.161 39.8608 200.49 40.0799C200.84 40.299 201.081 40.54 201.257 40.8248C201.41 41.1096 201.498 41.4382 201.498 41.8107C201.498 42.4241 201.257 42.9061 200.797 43.2566C200.336 43.6071 199.701 43.8043 198.891 43.8043C198.365 43.8043 197.883 43.7167 197.445 43.5195C197.006 43.3223 196.656 43.0594 196.415 42.7089C196.174 42.3584 196.042 41.964 196.042 41.5039H197.313C197.313 41.9202 197.445 42.2488 197.729 42.4679C198.014 42.687 198.387 42.8184 198.912 42.8184C199.351 42.8184 199.679 42.7308 199.898 42.5555C200.117 42.3365 200.227 42.1174 200.227 41.8107Z" fill="white" fill-opacity="0.8"/>
<path d="M74.0127 71.6494V47.4846H82.2939C85.0324 47.4846 87.1137 48.0323 88.5377 49.1277C89.9618 50.2231 90.6847 51.8663 90.6847 54.0352C90.6847 55.1525 90.378 56.1384 89.7865 57.0147C89.195 57.891 88.3187 58.5921 87.1575 59.0741C88.472 59.4246 89.4798 60.1037 90.1808 61.0677C90.9038 62.0536 91.2543 63.2147 91.2543 64.5949C91.2543 66.8734 90.5314 68.6041 89.0635 69.831C87.6176 71.0578 85.5144 71.6494 82.8197 71.6494H74.0127ZM78.219 57.65H82.3378C83.6522 57.65 84.66 57.3433 85.4049 56.7518C86.1498 56.1603 86.5003 55.3277 86.5003 54.2323C86.5003 53.0274 86.1498 52.173 85.4706 51.6472C84.7915 51.1214 83.7399 50.8585 82.2939 50.8585H78.219V57.65ZM78.219 60.7391V68.2974H82.8855C84.1999 68.2974 85.2296 67.9688 85.9745 67.3115C86.7194 66.6543 87.0918 65.7561 87.0918 64.5949C87.0918 62.0755 85.7992 60.8048 83.236 60.7391H78.219Z" fill="white" fill-opacity="0.8"/>
<path d="M113.817 47.4846V63.631C113.817 66.1942 112.984 68.2317 111.341 69.7433C109.698 71.2331 107.507 71.9999 104.769 71.9999C102.008 71.9999 99.7957 71.255 98.1745 69.7872C96.5533 68.3193 95.7427 66.2599 95.7427 63.631V47.4846H99.949V63.6529C99.949 65.2741 100.365 66.5009 101.176 67.3553C101.986 68.2098 103.191 68.626 104.791 68.626C108.033 68.626 109.632 66.9172 109.632 63.5214V47.4846H113.817Z" fill="white" fill-opacity="0.8"/>
<path d="M127.861 62.3603H123.173V71.6494H118.967V47.4846H127.467C130.249 47.4846 132.418 48.12 133.93 49.3687C135.442 50.6175 136.208 52.4359 136.208 54.802C136.208 56.4232 135.814 57.7815 135.047 58.855C134.259 59.9504 133.185 60.7829 131.783 61.3744L137.216 71.4303V71.6494H132.725L127.861 62.3603ZM123.195 58.9645H127.511C128.935 58.9645 130.03 58.614 130.841 57.891C131.63 57.168 132.046 56.2041 132.046 54.9553C132.046 53.6627 131.673 52.655 130.951 51.9539C130.206 51.2528 129.11 50.8804 127.664 50.8585H123.239V58.9645H123.195Z" fill="white" fill-opacity="0.8"/>
<path d="M155.009 60.8705H145.085V68.3193H156.696V71.6713H140.9V47.4846H156.587V50.8585H145.085V57.5405H155.009V60.8705Z" fill="white" fill-opacity="0.8"/>
<path d="M174.329 66.0189H164.975L163.025 71.6494H158.665L167.801 47.4846H171.569L180.726 71.6494H176.345L174.329 66.0189ZM166.136 62.6451H173.146L169.641 52.6111L166.136 62.6451Z" fill="white" fill-opacity="0.8"/>
<path d="M201.496 47.4846V63.631C201.496 66.1942 200.664 68.2317 199.02 69.7433C197.377 71.2331 195.187 71.9999 192.448 71.9999C189.688 71.9999 187.475 71.255 185.854 69.7872C184.232 68.3193 183.422 66.2599 183.422 63.631V47.4846H187.606V63.6529C187.606 65.2741 188.023 66.5009 188.833 67.3553C189.644 68.2098 190.849 68.626 192.448 68.626C195.69 68.626 197.29 66.9172 197.29 63.5214V47.4846H201.496Z" fill="white" fill-opacity="0.8"/>
<path d="M13.4837 49.0182C13.7905 51.5815 15.7403 52.9398 17.8653 52.6769C19.9904 52.414 21.4802 50.6395 21.1735 48.0762C20.8448 45.5129 20.0781 31.0097 35.7423 24.985C18.895 24.9411 12.3664 39.7511 13.4837 49.0182Z" fill="white" fill-opacity="0.8"/>
<mask id="mask0_1023_1482" style="mask-type:luminance" maskUnits="userSpaceOnUse" x="13" y="24" width="23" height="29">
<path d="M13.4828 49.0178C13.7895 51.581 15.7393 52.9393 17.8644 52.6764C19.9895 52.4135 21.4792 50.639 21.1725 48.0757C20.8439 45.5124 20.0771 31.0092 35.7413 24.9845C18.894 24.9407 12.3655 39.7506 13.4828 49.0178Z" fill="white"/>
</mask>
<g mask="url(#mask0_1023_1482)">
<path d="M35.7392 24.9412H12.3633V52.9179H35.7392V24.9412Z" fill="white" fill-opacity="0.8"/>
</g>
<path d="M35.2107 24.9629C34.9916 24.9629 34.7506 24.9848 34.5972 24.9629C33.4142 25.0067 32.275 25.1382 31.2015 25.3353C25.4616 26.7813 21.2114 31.9735 21.2114 38.1516C21.2114 39.1813 21.3429 40.1672 21.562 41.1311C22.6793 35.7855 26.1846 28.7749 35.6926 24.9848C35.5393 24.9848 35.3859 24.9848 35.2107 24.9629Z" fill="white" fill-opacity="0.8"/>
<mask id="mask1_1023_1482" style="mask-type:luminance" maskUnits="userSpaceOnUse" x="21" y="24" width="15" height="18">
<path d="M35.2073 24.9624C34.9882 24.9624 34.7472 24.9843 34.5938 24.9624C33.4108 25.0062 32.2716 25.1377 31.1981 25.3348C25.4582 26.7808 21.208 31.973 21.208 38.1511C21.208 39.1808 21.3395 40.1667 21.5585 41.1306C22.6758 35.785 26.1811 28.7744 35.6892 24.9843C35.5359 24.9843 35.3825 24.9843 35.2073 24.9624Z" fill="white"/>
</mask>
<g mask="url(#mask1_1023_1482)">
<path d="M35.6693 24.9626H21.21V41.1309H35.6693V24.9626Z" fill="white" fill-opacity="0.8"/>
</g>
<path d="M53.1386 53.2682C52.8758 51.1431 51.1012 49.6533 48.538 49.9601C45.9747 50.2887 31.4716 51.0555 25.4469 35.3911C25.4031 52.2385 40.2348 58.7672 49.48 57.6498C51.8461 57.365 53.1606 55.7 53.1606 53.794C53.1606 53.6187 53.1606 53.4435 53.1386 53.2682Z" fill="white" fill-opacity="0.8"/>
<mask id="mask2_1023_1482" style="mask-type:luminance" maskUnits="userSpaceOnUse" x="25" y="35" width="29" height="23">
<path d="M53.1401 53.2677C52.8772 51.1426 51.1027 49.6529 48.5394 49.9596C45.9762 50.2882 31.4731 51.055 25.4483 35.3906C25.4045 52.238 40.2363 58.7667 49.4815 57.6493C51.8475 57.3645 53.162 55.6995 53.162 53.7935C53.162 53.6182 53.162 53.443 53.1401 53.2677Z" fill="white"/>
</mask>
<g mask="url(#mask2_1023_1482)">
<path d="M53.1594 35.3909H25.4019V58.7669H53.1594V35.3909Z" fill="white" fill-opacity="0.8"/>
</g>
<path d="M25.4691 35.4575C25.4472 35.6109 25.4472 35.7642 25.4253 35.9176C25.4253 36.1367 25.4472 36.3777 25.4253 36.531C25.4691 37.7141 25.6006 38.8533 25.7977 39.9268C27.2437 45.6667 32.4359 49.9169 38.6139 49.9169C39.6436 49.9169 40.6295 49.8074 41.5934 49.5883C36.2698 48.471 29.2592 44.9438 25.4691 35.4575Z" fill="white" fill-opacity="0.8"/>
<mask id="mask3_1023_1482" style="mask-type:luminance" maskUnits="userSpaceOnUse" x="24" y="36" width="19" height="14">
<path d="M24.3307 36.966C24.3358 37.1209 24.3624 37.2719 24.3675 37.4267C24.4055 37.6425 24.4689 37.876 24.474 38.0308C24.7225 39.1883 25.0497 40.2874 25.4302 41.3103C27.8506 46.712 33.7017 49.9962 39.7859 48.9237C40.7999 48.7449 41.7518 48.4659 42.6631 48.0828C37.2264 47.9067 29.71 45.6501 24.3307 36.966Z" fill="white"/>
</mask>
<g mask="url(#mask3_1023_1482)">
<path d="M41.1315 32.6922L22.9653 35.8945L25.9243 52.68L44.0904 49.4777L41.1315 32.6922Z" fill="white" fill-opacity="0.8"/>
</g>
<path d="M57.9803 21.6115C57.6735 19.0483 55.7237 17.69 53.5986 17.9529C51.4736 18.2158 49.9838 19.9903 50.2905 22.5536C50.5972 25.1168 51.3859 39.6201 35.7217 45.6448C51.364 45.6667 58.1117 32.9161 58.1117 23.6928C58.1117 22.9698 58.0679 22.2688 57.9803 21.6115Z" fill="white" fill-opacity="0.8"/>
<mask id="mask4_1023_1482" style="mask-type:luminance" maskUnits="userSpaceOnUse" x="35" y="17" width="24" height="29">
<path d="M57.9793 21.6118C57.6726 19.0485 55.7227 17.6902 53.5977 17.9531C51.4726 18.216 49.9828 19.9906 50.2896 22.5538C50.5963 25.1171 51.385 39.6203 35.7207 45.645C51.363 45.667 58.1107 32.9164 58.1107 23.693C58.1107 22.9701 58.0669 22.269 57.9793 21.6118Z" fill="white"/>
</mask>
<g mask="url(#mask4_1023_1482)">
<path d="M58.1112 17.6899H35.7212V45.6667H58.1112V17.6899Z" fill="white" fill-opacity="0.8"/>
</g>
<path d="M49.9163 29.4761C48.799 34.8217 45.2937 41.8323 35.7856 45.6224C35.939 45.6443 36.0924 45.6443 36.2457 45.6662C36.4648 45.6662 36.7058 45.6443 36.8591 45.6662C38.0422 45.6224 39.1814 45.491 40.2549 45.2938C45.9948 43.8478 50.245 38.6556 50.245 32.4775C50.245 31.4259 50.1354 30.4181 49.9163 29.4761Z" fill="white" fill-opacity="0.8"/>
<mask id="mask5_1023_1482" style="mask-type:luminance" maskUnits="userSpaceOnUse" x="35" y="29" width="16" height="17">
<path d="M49.9168 29.4756C48.7995 34.8212 45.2942 41.8318 35.7861 45.6219C35.9395 45.6438 36.0928 45.6438 36.2462 45.6657C36.4653 45.6657 36.7063 45.6438 36.8596 45.6657C38.0427 45.6219 39.1819 45.4905 40.2554 45.2933C45.9953 43.8474 50.2454 38.6551 50.2454 32.477C50.2454 31.4254 50.1359 30.4176 49.9168 29.4756Z" fill="white"/>
</mask>
<g mask="url(#mask5_1023_1482)">
<path d="M50.245 29.4758H35.7856V45.6441H50.245V29.4758Z" fill="white" fill-opacity="0.8"/>
</g>
<path d="M22.247 13.2203C19.6838 13.527 18.3255 15.4769 18.5884 17.602C18.8512 19.727 20.6258 21.2168 23.189 20.9101C25.7523 20.6034 40.2554 19.8147 46.2801 35.479C46.3239 19.8366 33.5735 13.0889 24.3283 13.0889C23.6272 13.0889 22.9261 13.1327 22.247 13.2203Z" fill="white" fill-opacity="0.8"/>
<mask id="mask6_1023_1482" style="mask-type:luminance" maskUnits="userSpaceOnUse" x="18" y="13" width="29" height="23">
<path d="M22.2485 13.2198C19.6852 13.5265 18.3269 15.4764 18.5898 17.6015C18.8527 19.7266 20.6273 21.2163 23.1905 20.9096C25.7537 20.6029 40.2569 19.8142 46.2816 35.4785C46.3254 19.8361 33.5749 13.0884 24.3297 13.0884C23.6287 13.0884 22.9276 13.1322 22.2485 13.2198Z" fill="white"/>
</mask>
<g mask="url(#mask6_1023_1482)">
<path d="M46.3047 13.0886H18.3281V35.4788H46.3047V13.0886Z" fill="white" fill-opacity="0.8"/>
</g>
<path d="M30.1128 21.2825C35.4584 22.3998 42.4689 25.9051 46.259 35.4133C46.2809 35.2599 46.2809 35.1065 46.3028 34.9532C46.3028 34.7341 46.2809 34.4931 46.3028 34.3398C46.259 33.1567 46.1276 32.0175 45.9304 30.944C44.4845 25.204 39.2923 20.9539 33.1142 20.9539C32.0626 20.9539 31.0767 21.0634 30.1128 21.2825Z" fill="white" fill-opacity="0.8"/>
<mask id="mask7_1023_1482" style="mask-type:luminance" maskUnits="userSpaceOnUse" x="30" y="20" width="17" height="16">
<path d="M30.1162 21.2822C35.4618 22.3996 42.4724 25.9049 46.2624 35.413C46.2844 35.2597 46.2844 35.1063 46.3063 34.9529C46.3063 34.7339 46.2844 34.4929 46.3063 34.3395C46.2624 33.1565 46.131 32.0173 45.9338 30.9437C44.4879 25.2038 39.2957 20.9536 33.1176 20.9536C32.066 20.9536 31.0802 21.0632 30.1162 21.2822Z" fill="white"/>
</mask>
<g mask="url(#mask7_1023_1482)">
<path d="M46.2824 20.9539H30.1143V35.4133H46.2824V20.9539Z" fill="white" fill-opacity="0.8"/>
</g>
<path d="M40.516 1.82817C39.3987 0.732762 38.5443 0.491772 37.668 0.141241C36.2659 -0.384555 34.9514 0.667038 34.557 1.49955C34.1408 2.33206 34.1846 3.55892 34.8418 4.36952C35.4991 5.20203 35.762 5.1144 36.4411 5.50875C37.2517 5.96882 37.3394 6.95469 36.9888 7.45858C36.6383 7.96246 36.2878 8.07201 35.9591 8.13773C35.8496 8.15964 35.5867 8.15964 35.5867 8.15964C35.4553 8.15964 34.9514 8.11582 34.8418 8.09391C34.4475 8.00628 34.0751 7.85292 33.7464 7.65575C33.3959 7.43667 33.0892 7.17377 32.8263 6.88896C32.5634 6.58225 32.3443 6.23172 32.191 5.88119C31.6871 4.69814 31.7747 3.29602 32.3224 2.13489C32.6948 1.3681 33.2425 0.688946 33.8998 0.141241C32.8482 0.447956 31.8404 1.01757 31.0298 1.85008C28.4009 4.47906 28.4009 8.72925 31.0298 11.3363C33.6588 13.9653 37.909 13.9653 40.516 11.3363C41.8305 10.0218 42.4877 8.313 42.4877 6.58225C42.4877 4.82959 41.8305 3.12075 40.516 1.82817Z" fill="white" fill-opacity="0.8"/>
<mask id="mask8_1023_1482" style="mask-type:luminance" maskUnits="userSpaceOnUse" x="29" y="0" width="14" height="14">
<path d="M40.5194 1.82817C39.4021 0.732762 38.5477 0.491772 37.6714 0.141241C36.2693 -0.384555 34.9548 0.667038 34.5604 1.49955C34.1442 2.33206 34.188 3.55892 34.8453 4.36952C35.5025 5.20203 35.7654 5.1144 36.4445 5.50875C37.2551 5.96882 37.3428 6.95469 36.9922 7.45858C36.6417 7.96246 36.2912 8.07201 35.9626 8.13773C35.853 8.15964 35.5901 8.15964 35.5901 8.15964C35.4587 8.15964 34.9548 8.11582 34.8453 8.09391C34.4509 8.00628 34.0785 7.85292 33.7498 7.65575C33.3993 7.43667 33.0926 7.17377 32.8297 6.88896C32.5668 6.58225 32.3477 6.23172 32.1944 5.88119C31.6905 4.69814 31.7781 3.29602 32.3258 2.13489C32.6983 1.3681 33.246 0.688946 33.9032 0.141241C32.8516 0.447956 31.8438 1.01757 31.0332 1.85008C28.4043 4.47906 28.4043 8.72925 31.0332 11.3363C33.6622 13.9653 37.9124 13.9653 40.5194 11.3363C41.8339 10.0218 42.4912 8.313 42.4912 6.58225C42.4912 4.82959 41.8339 3.12075 40.5194 1.82817Z" fill="white"/>
</mask>
<g mask="url(#mask8_1023_1482)">
<path d="M42.4926 -0.406494H28.4058V13.9215H42.4926V-0.406494Z" fill="white" fill-opacity="0.8"/>
</g>
<path d="M40.5168 1.82813C39.5529 0.84226 38.1508 0.11929 37.0773 0.00974862C35.9161 -0.0778841 34.8865 0.798443 34.5578 1.49951C34.1416 2.33202 34.1854 3.55888 34.8207 4.36948C35.478 5.20199 35.7409 5.11436 36.42 5.5087C37.2306 5.96878 37.3183 6.95464 36.9677 7.45853C36.8582 7.61189 36.7706 7.72143 36.661 7.80906C36.4858 7.94051 36.2229 8.09387 35.9381 8.15959C35.8285 8.1815 35.5656 8.1815 35.5656 8.1815C35.4342 8.1815 34.9303 8.13769 34.8207 8.11578C34.4264 8.02815 34.054 7.87479 33.7253 7.67762C33.3748 7.45853 33.0681 7.19564 32.8052 6.91083C32.5423 6.60411 32.3232 6.27549 32.1699 5.90305C31.907 5.28962 31.8193 4.58856 31.8632 3.93131C31.8412 4.12849 31.8193 4.32566 31.8193 4.52284C31.8193 7.50235 34.1416 9.89034 36.9896 9.89034C39.8158 9.89034 42.1161 7.52426 42.1599 4.61047C41.8751 3.58078 41.3055 2.61682 40.5168 1.82813Z" fill="white" fill-opacity="0.8"/>
<mask id="mask9_1023_1482" style="mask-type:luminance" maskUnits="userSpaceOnUse" x="31" y="0" width="12" height="10">
<path d="M40.5159 1.82837C39.5519 0.842504 38.1498 0.119534 37.0763 0.00999276C35.9152 -0.07764 34.8855 0.798688 34.5569 1.49975C34.1406 2.33226 34.1844 3.55912 34.8198 4.36972C35.477 5.20223 35.7399 5.1146 36.4191 5.50895C37.2296 5.96902 37.3173 6.95489 36.9668 7.45878C36.8572 7.61213 36.7696 7.72168 36.66 7.80931C36.4848 7.94076 36.2219 8.09411 35.9371 8.15984C35.8275 8.18175 35.5646 8.18175 35.5646 8.18175C35.4332 8.18175 34.9293 8.13793 34.8198 8.11602C34.4254 8.02839 34.053 7.87503 33.7244 7.67786C33.3738 7.45878 33.0671 7.19588 32.8042 6.91107C32.5413 6.60436 32.3222 6.27573 32.1689 5.9033C31.906 5.28987 31.8184 4.5888 31.8622 3.93156C31.8403 4.12873 31.8184 4.32591 31.8184 4.52308C31.8184 7.50259 34.1406 9.89059 36.9887 9.89059C39.8148 9.89059 42.1151 7.5245 42.159 4.61071C41.8742 3.58103 41.3045 2.61707 40.5159 1.82837Z" fill="white"/>
</mask>
<g mask="url(#mask9_1023_1482)">
<path d="M42.1594 -0.0996094H31.8188V9.89052H42.1594V-0.0996094Z" fill="white" fill-opacity="0.8"/>
</g>
<path d="M11.3368 31.032C8.70784 28.4031 4.45768 28.4031 1.85062 31.032C0.755219 32.1494 0.51423 33.0038 0.163701 33.8801C-0.362092 35.2822 0.689494 36.5967 1.522 36.9911C2.35451 37.4073 3.58136 37.3635 4.39195 36.7063C5.20255 36.049 5.13683 35.7861 5.53117 35.107C5.99124 34.2964 6.9771 34.2087 7.48099 34.5593C7.98488 34.9098 8.09441 35.2603 8.16014 35.5889C8.18205 35.6985 8.18205 35.9614 8.18205 35.9614C8.18205 36.0928 8.13823 36.5967 8.11632 36.7063C8.02869 37.1006 7.87533 37.473 7.67816 37.8017C7.45908 38.1522 7.19618 38.4589 6.91138 38.7218C6.60467 38.9847 6.27605 39.2038 5.90361 39.3572C4.72058 39.861 3.31846 39.7734 2.15733 39.2257C1.36864 38.8533 0.711402 38.3056 0.141793 37.6483C0.448506 38.6999 1.01812 39.6858 1.85062 40.5183C4.47959 43.1473 8.70784 43.1473 11.3368 40.5183C12.6513 39.2038 13.3085 37.495 13.3085 35.7642C13.2866 34.0554 12.6294 32.3246 11.3368 31.032Z" fill="white" fill-opacity="0.8"/>
<mask id="mask10_1023_1482" style="mask-type:luminance" maskUnits="userSpaceOnUse" x="0" y="29" width="14" height="14">
<path d="M11.3397 31.0323C8.71077 28.4033 4.46061 28.4033 1.85355 31.0323C0.758148 32.1496 0.51716 33.004 0.166631 33.8803C-0.359162 35.2825 0.692424 36.597 1.52493 36.9913C2.35744 37.4076 3.58429 37.3637 4.39488 36.7065C5.20548 36.0493 5.13976 35.7864 5.5341 35.1072C5.99417 34.2966 6.98003 34.209 7.48392 34.5595C7.9878 34.91 8.09734 35.2606 8.16307 35.5892C8.18498 35.6987 8.18498 35.9616 8.18498 35.9616C8.18498 36.0931 8.14116 36.597 8.11925 36.7065C8.03162 37.1009 7.87826 37.4733 7.68109 37.8019C7.46201 38.1524 7.19911 38.4592 6.91431 38.7221C6.6076 38.985 6.27898 39.204 5.90654 39.3574C4.72351 39.8613 3.32139 39.7737 2.16026 39.2259C1.37157 38.8535 0.714332 38.3058 0.144723 37.6486C0.451436 38.7001 1.02104 39.686 1.85355 40.5185C4.48252 43.1475 8.71077 43.1475 11.3397 40.5185C12.6542 39.204 13.3115 37.4952 13.3115 35.7645C13.2896 34.0556 12.6323 32.3249 11.3397 31.0323Z" fill="white"/>
</mask>
<g mask="url(#mask10_1023_1482)">
<path d="M13.2903 28.4031H-0.380371V43.1473H13.2903V28.4031Z" fill="white" fill-opacity="0.8"/>
</g>
<path d="M4.60982 29.3669C3.60205 29.6737 2.6381 30.2433 1.8275 31.032C0.863547 31.9959 0.250122 33.2009 0.00913343 34.4716C-0.100407 35.6327 0.797823 36.6405 1.49888 36.991C2.33139 37.4072 3.55824 37.3634 4.36884 36.7062C5.17943 36.0489 5.11371 35.786 5.50805 35.1069C5.96812 34.2963 6.95399 34.2087 7.45787 34.5592C7.61123 34.6687 7.72077 34.7564 7.8084 34.8659C7.93985 35.0412 8.0713 35.2822 8.15893 35.5889C8.18084 35.6984 8.18084 35.9613 8.18084 35.9613C8.18084 36.0928 8.13702 36.5966 8.11511 36.7062C8.02748 37.1005 7.87412 37.473 7.67695 37.8016C7.45787 38.1521 7.19497 38.4588 6.91017 38.7217C6.60346 38.9846 6.25293 39.2037 5.9024 39.3571C5.28897 39.62 4.60982 39.7076 3.93067 39.6638C4.12785 39.6857 4.32502 39.7076 4.52219 39.7076C7.50169 39.7076 9.88966 37.3853 9.88966 34.5373C9.88966 31.6892 7.5455 29.4108 4.60982 29.3669Z" fill="white" fill-opacity="0.8"/>
<mask id="mask11_1023_1482" style="mask-type:luminance" maskUnits="userSpaceOnUse" x="0" y="29" width="10" height="11">
<path d="M4.60982 29.3669C3.60205 29.6737 2.6381 30.2433 1.8275 31.032C0.863547 31.9959 0.250122 33.2009 0.00913343 34.4716C-0.100407 35.6327 0.797823 36.6405 1.49888 36.991C2.33139 37.4072 3.55824 37.3634 4.36884 36.7062C5.17943 36.0489 5.11371 35.786 5.50805 35.1069C5.96812 34.2963 6.95399 34.2087 7.45787 34.5592C7.61123 34.6687 7.72077 34.7564 7.8084 34.8659C7.93985 35.0412 8.0713 35.2822 8.15893 35.5889C8.18084 35.6984 8.18084 35.9613 8.18084 35.9613C8.18084 36.0928 8.13702 36.5966 8.11511 36.7062C8.02748 37.1005 7.87412 37.473 7.67695 37.8016C7.45787 38.1521 7.19497 38.4588 6.91017 38.7217C6.60346 38.9846 6.25293 39.2037 5.9024 39.3571C5.28897 39.62 4.60982 39.7076 3.93067 39.6638C4.12785 39.6857 4.32502 39.7076 4.52219 39.7076C7.50169 39.7076 9.88966 37.3853 9.88966 34.5373C9.88966 31.6892 7.5455 29.4108 4.60982 29.3669Z" fill="white"/>
</mask>
<g mask="url(#mask11_1023_1482)">
<path d="M9.90902 29.3672H-0.0810547V39.7079H9.90902V29.3672Z" fill="white" fill-opacity="0.8"/>
</g>
<path d="M40.5414 60.2134C37.9124 57.5845 33.6842 57.5845 31.0552 60.2134C28.4263 62.8424 28.4263 67.0926 31.0552 69.6997C32.1725 70.7951 33.0269 71.0361 33.9033 71.3866C35.3054 71.9124 36.6199 70.8608 37.0142 70.0283C37.4305 69.1958 37.3866 67.9689 36.7294 67.1583C36.0722 66.3258 35.8312 66.4135 35.1301 66.0191C34.3195 65.559 34.2319 64.5732 34.5824 64.0693C34.9329 63.5654 35.2835 63.4558 35.6121 63.3901C35.7216 63.3682 35.9845 63.3682 35.9845 63.3682C36.116 63.3682 36.6199 63.412 36.7294 63.4339C37.1237 63.5216 37.4962 63.6749 37.8248 63.8721C38.1753 64.0912 38.4821 64.3541 38.7449 64.6389C39.0078 64.9456 39.2269 65.2742 39.3803 65.6467C39.8842 66.8297 39.7965 68.2318 39.2488 69.393C38.8764 70.1598 38.3287 70.8389 37.6715 71.3866C38.723 71.0799 39.7308 70.5103 40.5414 69.6778C41.8559 68.3633 42.5131 66.6544 42.5131 64.9237C42.4912 63.2368 41.8559 61.5279 40.5414 60.2134Z" fill="white" fill-opacity="0.8"/>
<mask id="mask12_1023_1482" style="mask-type:luminance" maskUnits="userSpaceOnUse" x="29" y="58" width="14" height="14">
<path d="M40.5385 60.2134C37.9095 57.5845 33.6813 57.5845 31.0523 60.2134C28.4233 62.8424 28.4233 67.0926 31.0523 69.6997C32.1696 70.7951 33.024 71.0361 33.9003 71.3866C35.3025 71.9124 36.6169 70.8608 37.0113 70.0283C37.4275 69.1958 37.3837 67.9689 36.7265 67.1583C36.0692 66.3258 35.8282 66.4135 35.1272 66.0191C34.3166 65.559 34.229 64.5732 34.5795 64.0693C34.93 63.5654 35.2805 63.4558 35.6092 63.3901C35.7187 63.3682 35.9816 63.3682 35.9816 63.3682C36.1131 63.3682 36.6169 63.412 36.7265 63.4339C37.1208 63.5216 37.4933 63.6749 37.8219 63.8721C38.1724 64.0912 38.4791 64.3541 38.742 64.6389C39.0049 64.9456 39.224 65.2742 39.3773 65.6467C39.8812 66.8297 39.7936 68.2318 39.2459 69.393C38.8735 70.1598 38.3258 70.8389 37.6685 71.3866C38.7201 71.0799 39.7279 70.5103 40.5385 69.6778C41.853 68.3633 42.5102 66.6544 42.5102 64.9237C42.4883 63.2368 41.853 61.5279 40.5385 60.2134Z" fill="white"/>
</mask>
<g mask="url(#mask12_1023_1482)">
<path d="M42.5078 57.5842H28.4209V71.9122H42.5078V57.5842Z" fill="white" fill-opacity="0.8"/>
</g>
<path d="M34.558 61.6379C31.7319 61.6379 29.4315 64.004 29.3877 66.9178C29.6944 67.9256 30.2421 68.8895 31.0527 69.7001C32.0386 70.6641 33.2216 71.2775 34.4923 71.5185C35.6534 71.6062 36.6612 70.7298 37.0117 70.0288C37.4279 69.1963 37.3841 67.9694 36.7269 67.1588C36.0697 66.3263 35.8068 66.4139 35.1276 66.0196C34.317 65.5595 34.2294 64.5736 34.5799 64.0697C34.6894 63.9164 34.7771 63.8068 34.8866 63.7192C35.0619 63.5878 35.3029 63.4563 35.6096 63.3687C35.7191 63.3468 35.982 63.3468 35.982 63.3468C36.1135 63.3468 36.6174 63.3906 36.7269 63.4125C37.1212 63.5001 37.4937 63.6535 37.8223 63.8507C38.1728 64.0697 38.4795 64.3326 38.7424 64.6174C39.0053 64.9242 39.2244 65.2747 39.3778 65.6252C39.6407 66.2387 39.7283 66.9178 39.6845 67.597C39.7064 67.3998 39.7283 67.2026 39.7283 67.0054C39.7283 64.0478 37.406 61.6379 34.558 61.6379Z" fill="white" fill-opacity="0.8"/>
<mask id="mask13_1023_1482" style="mask-type:luminance" maskUnits="userSpaceOnUse" x="29" y="61" width="11" height="11">
<path d="M34.559 61.6382C31.7328 61.6382 29.4325 64.0043 29.3887 66.9181C29.6954 67.9258 30.2431 68.8898 31.0537 69.7004C32.0395 70.6644 33.2226 71.2778 34.4932 71.5188C35.6544 71.6064 36.6621 70.7301 37.0127 70.029C37.4289 69.1965 37.3851 67.9696 36.7279 67.159C36.0706 66.3265 35.8077 66.4142 35.1286 66.0198C34.318 65.5597 34.2304 64.5739 34.5809 64.07C34.6904 63.9166 34.7781 63.8071 34.8876 63.7195C35.0629 63.588 35.3038 63.4566 35.6106 63.3689C35.7201 63.347 35.983 63.347 35.983 63.347C36.1144 63.347 36.6183 63.3908 36.7279 63.4127C37.1222 63.5004 37.4946 63.6537 37.8233 63.8509C38.1738 64.07 38.4805 64.3329 38.7434 64.6177C39.0063 64.9244 39.2254 65.2749 39.3787 65.6255C39.6416 66.2389 39.7293 66.9181 39.6855 67.5972C39.7074 67.4 39.7293 67.2029 39.7293 67.0057C39.7293 64.0481 37.407 61.6382 34.559 61.6382Z" fill="white"/>
</mask>
<g mask="url(#mask13_1023_1482)">
<path d="M39.7288 61.6379H29.3882V71.6281H39.7288V61.6379Z" fill="white" fill-opacity="0.8"/>
</g>
<path d="M70.0258 34.5373C69.1933 34.121 67.9665 34.1648 67.1559 34.8002C66.3234 35.4574 66.411 35.7203 66.0167 36.3995C65.5566 37.2101 64.5707 37.2977 64.0668 36.9472C63.563 36.5967 63.4534 36.2461 63.3877 35.9175C63.3658 35.808 63.3439 35.5451 63.3439 35.5451C63.3439 35.4136 63.3877 34.9097 63.4096 34.8002C63.4972 34.4058 63.6506 34.0334 63.8478 33.7048C64.0668 33.3542 64.3297 33.0475 64.6145 32.8065C64.9213 32.5436 65.2499 32.3246 65.6223 32.1712C66.8053 31.6673 68.2075 31.7549 69.3686 32.3027C70.1354 32.6751 70.8145 33.2228 71.3622 33.88C71.0555 32.8284 70.4859 31.8207 69.6534 31.0101C67.0244 28.3811 62.7962 28.3811 60.1672 31.0101C57.5601 33.6391 57.5601 37.8892 60.1672 40.4963C62.7962 43.1034 67.0463 43.1253 69.6534 40.4963C70.7488 39.379 70.9898 38.5246 71.3403 37.6482C71.4279 37.3854 71.4718 37.1225 71.4718 36.8815C71.5375 35.808 70.705 34.8878 70.0258 34.5373Z" fill="white" fill-opacity="0.8"/>
<mask id="mask14_1023_1482" style="mask-type:luminance" maskUnits="userSpaceOnUse" x="58" y="29" width="14" height="14">
<path d="M70.0268 34.5375C69.1943 34.1213 67.9674 34.1651 67.1568 34.8004C66.3243 35.4577 66.412 35.7206 66.0176 36.3997C65.5576 37.2103 64.5717 37.298 64.0678 36.9474C63.5639 36.5969 63.4544 36.2464 63.3887 35.9177C63.3668 35.8082 63.3449 35.5453 63.3449 35.5453C63.3449 35.4139 63.3887 34.91 63.4106 34.8004C63.4982 34.4061 63.6516 34.0336 63.8487 33.705C64.0678 33.3545 64.3307 33.0478 64.6155 32.8068C64.9222 32.5439 65.2508 32.3248 65.6233 32.1714C66.8063 31.6676 68.2084 31.7552 69.3696 32.3029C70.1363 32.6753 70.8155 33.223 71.3632 33.8803C71.0565 32.8287 70.4869 31.8209 69.6544 31.0103C67.0254 28.3813 62.7971 28.3813 60.1682 31.0103C57.5611 33.6393 57.5611 37.8895 60.1682 40.4966C62.7971 43.1036 67.0473 43.1255 69.6544 40.4966C70.7498 39.3792 70.9908 38.5248 71.3413 37.6485C71.4289 37.3856 71.4727 37.1227 71.4727 36.8817C71.5385 35.8082 70.706 34.8881 70.0268 34.5375Z" fill="white"/>
</mask>
<g mask="url(#mask14_1023_1482)">
<path d="M71.5165 28.4031H57.583V43.1473H71.5165V28.4031Z" fill="white" fill-opacity="0.8"/>
</g>
<path d="M70.0284 34.5372C69.1959 34.1209 67.9691 34.1647 67.1585 34.8001C66.326 35.4573 66.4136 35.7202 66.0192 36.3994C65.5592 37.21 64.5733 37.2976 64.0694 36.9471C63.9161 36.8375 63.8065 36.7499 63.7189 36.6404C63.5874 36.4651 63.456 36.2241 63.3684 35.9174C63.3465 35.8078 63.3465 35.5449 63.3465 35.5449C63.3465 35.4135 63.3903 34.9096 63.4122 34.8001C63.4998 34.4057 63.6532 34.0333 63.8503 33.7047C64.0694 33.3541 64.3323 33.0474 64.6171 32.8064C64.9238 32.5435 65.2525 32.3244 65.6249 32.1711C66.2383 31.9082 66.9394 31.8206 67.5966 31.8644C67.3994 31.8425 67.2023 31.8206 66.9832 31.8206C64.0256 31.8206 61.6157 34.1428 61.6157 36.9909C61.6157 39.817 63.9818 42.1174 66.8956 42.1612C67.9033 41.8545 68.8673 41.3068 69.6779 40.4962C70.6418 39.5103 71.2553 38.3273 71.4963 37.0566C71.4963 36.9909 71.4963 36.9471 71.4963 36.8813C71.5182 35.8078 70.7076 34.8877 70.0284 34.5372Z" fill="white" fill-opacity="0.8"/>
<mask id="mask15_1023_1482" style="mask-type:luminance" maskUnits="userSpaceOnUse" x="61" y="31" width="11" height="12">
<path d="M70.0309 34.5374C69.1983 34.1212 67.9715 34.165 67.1609 34.8003C66.3284 35.4576 66.416 35.7205 66.0217 36.3996C65.5616 37.2102 64.5758 37.2978 64.0719 36.9473C63.9185 36.8378 63.809 36.7501 63.7213 36.6406C63.5899 36.4653 63.4584 36.2243 63.3708 35.9176C63.3489 35.8081 63.3489 35.5452 63.3489 35.5452C63.3489 35.4137 63.3927 34.9099 63.4146 34.8003C63.5023 34.406 63.6556 34.0335 63.8528 33.7049C64.0719 33.3544 64.3348 33.0477 64.6196 32.8067C64.9263 32.5438 65.2549 32.3247 65.6273 32.1713C66.2408 31.9084 66.9418 31.8208 67.5991 31.8646C67.4019 31.8427 67.2047 31.8208 66.9856 31.8208C64.028 31.8208 61.6182 34.1431 61.6182 36.9911C61.6182 39.8173 63.9842 42.1176 66.898 42.1615C67.9058 41.8548 68.8697 41.307 69.6803 40.4964C70.6443 39.5106 71.2577 38.3275 71.4987 37.0569C71.4987 36.9911 71.4987 36.9473 71.4987 36.8816C71.5206 35.8081 70.71 34.8879 70.0309 34.5374Z" fill="white"/>
</mask>
<g mask="url(#mask15_1023_1482)">
<path d="M71.5187 31.8206H61.6382V42.1612H71.5187V31.8206Z" fill="white" fill-opacity="0.8"/>
</g>
</svg>
