<svg width="234" height="56" viewBox="0 0 234 56" fill="none" xmlns="http://www.w3.org/2000/svg">
<g clip-path="url(#clip0_1023_1649)">
<path d="M11.249 18.8389L4.41397 11.2786V18.8389H0.497803V0.787842H8.98689C13.122 0.787842 15.7247 2.9057 15.7247 6.52575C15.7247 10.1458 13.6085 11.8943 9.76526 12.042L16.4787 18.8389H11.2734H11.249ZM4.41397 8.74211H9.30311C10.7869 8.74211 11.7355 8.00332 11.7355 6.52575C11.7355 5.04818 10.7869 4.30939 9.30311 4.30939H4.41397V8.74211Z" fill="white" fill-opacity="0.8"/>
<path d="M38.4428 0L48.6589 18.839H44.4508L42.6508 15.4406H34.1374L32.3374 18.839H28.0564L38.4428 0ZM40.9481 12.1407L38.4184 7.36324L35.9131 12.1407H40.9481Z" fill="white" fill-opacity="0.8"/>
<path d="M62.4509 0.787662H68.5076C74.9048 0.713783 78.9183 4.5801 78.9183 9.85011C78.9183 15.1201 74.9048 18.8387 68.5076 18.8387H62.4509V0.787662ZM68.5076 15.2186C73.0076 15.2186 75.0265 13.15 75.0265 9.82548C75.0265 6.50094 73.0076 4.35846 68.5076 4.30921H66.3428V15.2186H68.5076Z" fill="white" fill-opacity="0.8"/>
<path d="M94.365 0.788086H98.2812V18.8391H94.365V0.788086Z" fill="white" fill-opacity="0.8"/>
<path d="M113.479 16.9677L115.571 13.8894C117.347 14.9483 119.512 15.5394 121.555 15.5147C123.452 15.5147 124.644 14.8252 124.717 13.6924C124.79 12.6088 124.109 12.2148 121.993 11.7223L119.779 11.2298C115.79 10.3432 114.185 8.49626 114.185 5.76275C114.185 2.75835 117.201 0.541992 121.117 0.541992C123.768 0.541992 126.347 1.35466 128.171 2.48746L126.201 5.56574C124.766 4.70382 123.209 4.13742 121.482 4.13742C119.633 4.13742 118.344 4.7777 118.344 5.91051C118.344 6.92018 119.122 7.4127 120.874 7.80672L123.306 8.3485C127.125 9.18579 128.706 10.8357 128.73 13.717C128.73 16.8445 125.763 19.1102 121.36 19.1102C118.514 19.1102 115.498 18.2729 113.455 16.9677H113.479Z" fill="white" fill-opacity="0.8"/>
<path d="M142.768 16.9677L144.86 13.8894C146.636 14.9483 148.801 15.5394 150.844 15.5147C152.741 15.5147 153.933 14.8252 154.006 13.6924C154.079 12.6088 153.398 12.2148 151.282 11.7223L149.068 11.2298C145.079 10.3432 143.474 8.49626 143.474 5.76275C143.474 2.75835 146.49 0.541992 150.406 0.541992C153.057 0.541992 155.636 1.35466 157.46 2.48746L155.49 5.56574C154.055 4.70382 152.498 4.13742 150.771 4.13742C148.922 4.13742 147.633 4.7777 147.633 5.91051C147.633 6.92018 148.411 7.4127 150.163 7.80672L152.595 8.3485C156.414 9.18579 157.995 10.8357 158.019 13.717C158.019 16.8445 155.052 19.1102 150.649 19.1102C147.803 19.1102 144.787 18.2729 142.744 16.9677H142.768Z" fill="white" fill-opacity="0.8"/>
<path d="M172.349 9.80083C172.349 4.53082 176.509 0.442871 181.933 0.442871C187.357 0.442871 191.517 4.53082 191.517 9.80083C191.517 15.0708 187.357 19.1834 181.933 19.1834C176.509 19.1834 172.349 15.0462 172.349 9.80083ZM187.576 9.80083C187.576 6.47629 185.022 4.11218 181.909 4.11218C178.795 4.11218 176.241 6.47629 176.241 9.80083C176.241 13.1254 178.771 15.4895 181.909 15.4895C185.047 15.4895 187.576 13.1254 187.576 9.80083Z" fill="white" fill-opacity="0.8"/>
<path d="M206.936 0.788086H210.804L219.852 13.0027V0.788086H223.744V18.8391H219.901L210.828 6.64912V18.8391H206.912V0.788086H206.936Z" fill="white" fill-opacity="0.8"/>
<path d="M0.497803 37.1606H4.41397V55.2117H0.497803V37.1606Z" fill="white" fill-opacity="0.8"/>
<path d="M62.4509 37.1606H66.3671V55.2117H62.4509V37.1606Z" fill="white" fill-opacity="0.8"/>
<path d="M101.541 37.1606H105.457V55.2117H101.541V37.1606Z" fill="white" fill-opacity="0.8"/>
<path d="M12.5375 37.1606H16.405L25.4536 49.3752V37.1606H29.3454V55.2117H25.5022L16.4294 43.0217V55.2117H12.5132V37.1606H12.5375Z" fill="white" fill-opacity="0.8"/>
<path d="M38.4197 37.1607H44.4764C50.8736 37.0868 54.8871 40.9531 54.8871 46.2232C54.8871 51.4932 50.8736 55.2117 44.4764 55.2117H38.4197V37.1607ZM44.4764 51.6163C48.9763 51.6163 50.9952 49.5477 50.9952 46.2232C50.9952 42.8986 48.9763 40.7561 44.4764 40.7069H42.3115V51.6163H44.4764Z" fill="white" fill-opacity="0.8"/>
<path d="M73.6423 37.1606H77.9963L83.5665 48.3902L89.1611 37.1606H93.4421L83.6152 55.9997L73.6423 37.1606Z" fill="white" fill-opacity="0.8"/>
<path d="M114.818 37.1607H120.875C127.272 37.0868 131.285 40.9531 131.285 46.2232C131.285 51.4932 127.272 55.2117 120.875 55.2117H114.818V37.1607ZM120.875 51.6163C125.375 51.6163 127.394 49.5477 127.394 46.2232C127.394 42.8986 125.375 40.7561 120.875 40.7069H118.71V51.6163H120.875Z" fill="white" fill-opacity="0.8"/>
<path d="M138.339 46.3708V37.1606H142.256V46.3708C142.256 49.7939 143.593 51.7886 146.78 51.7886C149.966 51.7886 151.304 49.8185 151.304 46.3955V37.1606H155.269V46.3955C155.269 51.9364 152.326 55.4579 146.756 55.4579C141.185 55.4579 138.291 51.9856 138.291 46.3708H138.339Z" fill="white" fill-opacity="0.8"/>
<path d="M171.474 36.3726L181.69 55.2116H177.482L175.682 51.8132H167.168L165.368 55.2116H161.087L171.449 36.3726H171.474ZM173.955 48.5379L171.425 43.7604L168.92 48.5379H173.955Z" fill="white" fill-opacity="0.8"/>
<path d="M188.498 37.1606H192.414V51.6162H201.414V55.2117H188.498V37.1606Z" fill="white" fill-opacity="0.8"/>
<path d="M208.467 53.3402L210.559 50.262C212.335 51.3209 214.5 51.9119 216.543 51.8873C218.44 51.8873 219.632 51.1978 219.705 50.0649C219.778 48.9814 219.097 48.5874 216.981 48.0949L214.767 47.6023C210.778 46.7158 209.173 44.8688 209.173 42.1353C209.173 39.1309 212.189 36.9146 216.105 36.9146C218.757 36.9146 221.335 37.7272 223.159 38.86L221.189 41.9383C219.754 41.0764 218.197 40.51 216.47 40.51C214.621 40.51 213.332 41.1503 213.332 42.2831C213.332 43.2927 214.111 43.7853 215.862 44.1793L218.294 44.7211C222.113 45.5583 223.694 47.2083 223.719 50.0896C223.719 53.2171 220.751 55.4827 216.348 55.4827C213.503 55.4827 210.486 54.6454 208.443 53.3402H208.467Z" fill="white" fill-opacity="0.8"/>
<path d="M228.638 3.12681C228.638 1.82162 229.611 0.762695 231.071 0.762695C232.53 0.762695 233.503 1.82162 233.503 3.12681C233.503 4.432 232.53 5.4663 231.071 5.4663C229.611 5.4663 228.638 4.40737 228.638 3.12681ZM233.041 3.12681C233.041 2.06788 232.238 1.23059 231.071 1.23059C229.903 1.23059 229.101 2.06788 229.101 3.12681C229.101 4.18574 229.903 5.02303 231.071 5.02303C232.238 5.02303 233.041 4.18574 233.041 3.12681ZM230.147 1.8955H231.119C231.752 1.8955 232.092 2.16639 232.092 2.73279C232.092 3.22532 231.776 3.47158 231.436 3.47158H231.217L232.141 4.35812H231.533L230.633 3.44695V4.35812H230.147V1.8955ZM231.144 3.10219C231.411 3.10219 231.582 2.97905 231.582 2.70817C231.582 2.43728 231.411 2.31415 231.144 2.31415H230.633V3.10219H231.144Z" fill="white" fill-opacity="0.8"/>
</g>
<defs>
<clipPath id="clip0_1023_1649">
<rect width="233" height="56" fill="white" transform="translate(0.497803)"/>
</clipPath>
</defs>
</svg>
