<svg width="203" height="72" viewBox="0 0 203 72" fill="none" xmlns="http://www.w3.org/2000/svg">
<g clip-path="url(#clip0_1023_1624)">
<mask id="mask0_1023_1624" style="mask-type:luminance" maskUnits="userSpaceOnUse" x="0" y="0" width="203" height="72">
<path d="M202.498 0H0.497559V72H202.498V0Z" fill="white"/>
</mask>
<g mask="url(#mask0_1023_1624)">
<path fill-rule="evenodd" clip-rule="evenodd" d="M180.933 59.5176C182.365 60.7391 184.124 61.5524 185.993 61.5524C188.083 61.5524 189.844 60.3697 189.844 58.5935C189.844 54.2673 180.198 56.6327 180.198 50.8622C180.198 47.792 183.06 45.9431 185.882 45.9431C188.157 45.9431 190.026 46.7206 191.273 47.5692L190.173 49.3088C188.743 48.3834 187.718 47.94 185.993 47.94C184.231 47.94 182.289 48.866 182.289 50.8269C182.289 54.5633 191.933 52.5637 191.933 58.4823C191.933 61.6258 189.293 63.55 186.139 63.55C183.352 63.55 181.116 62.5152 179.65 61.1457L180.933 59.5176Z" fill="white" fill-opacity="0.8"/>
<path fill-rule="evenodd" clip-rule="evenodd" d="M162.962 53.0074H174.366C173.926 50.0486 171.654 47.9397 168.756 47.9397C165.786 47.9397 163.586 50.0845 162.962 53.0074ZM175.981 60.4429C174.734 62.033 172.35 63.5497 169.16 63.5497C164.465 63.5497 160.763 59.9988 160.763 54.7477C160.763 49.9006 164.026 45.9429 168.756 45.9429C173.229 45.9429 176.53 49.4931 176.53 54.1903C176.53 54.3402 176.53 54.5975 176.492 54.9317H162.853C163 58.5186 165.308 61.5522 169.16 61.5522C171.36 61.5522 173.193 60.6655 174.513 59.0374L175.981 60.4429Z" fill="white" fill-opacity="0.8"/>
<path fill-rule="evenodd" clip-rule="evenodd" d="M154.248 51.3443C153.513 50.0848 151.312 47.9392 148.234 47.9392C146.839 47.9392 145.373 48.4214 144.2 49.3814C142.733 50.6028 141.853 52.5657 141.853 54.7472C141.853 57.0787 142.879 59.1483 144.494 60.2963C145.555 61.0344 146.839 61.5524 148.27 61.5524C150.726 61.5524 152.925 60.147 154.248 57.8542V51.3443ZM155.421 68.5444C154.209 70.8373 151.827 72.4287 148.16 72.4287C144.969 72.4287 142.257 70.9485 140.568 68.3963L142.218 67.1749C143.465 69.1718 145.52 70.4319 148.196 70.4319C151.019 70.4319 152.744 69.2105 153.587 67.5463C154.101 66.5109 154.248 65.2895 154.248 63.1805V60.7771C153.001 62.4053 150.911 63.5492 148.306 63.5492C146.729 63.5492 144.969 63.1425 143.318 61.9598C141.121 60.4064 139.763 57.7795 139.763 54.7472C139.763 51.9356 140.972 49.4561 142.879 47.83C144.273 46.6818 146.18 45.9424 148.196 45.9424C150.616 45.9424 152.815 46.9433 154.319 48.6427V46.3131H156.338V63.1058C156.338 65.5855 156.117 67.2136 155.421 68.5444Z" fill="white" fill-opacity="0.8"/>
<path fill-rule="evenodd" clip-rule="evenodd" d="M122.37 53.0074H133.773C133.332 50.0486 131.06 47.9397 128.163 47.9397C125.193 47.9397 122.992 50.0845 122.37 53.0074ZM135.387 60.4429C134.139 62.033 131.756 63.5497 128.566 63.5497C123.871 63.5497 120.169 59.9988 120.169 54.7477C120.169 49.9006 123.432 45.9429 128.163 45.9429C132.636 45.9429 135.936 49.4931 135.936 54.1903C135.936 54.3402 135.936 54.5975 135.898 54.9317H122.26C122.407 58.5186 124.715 61.5522 128.566 61.5522C130.765 61.5522 132.599 60.6655 133.919 59.0374L135.387 60.4429Z" fill="white" fill-opacity="0.8"/>
<path fill-rule="evenodd" clip-rule="evenodd" d="M113.654 63.181H115.744V36.9175H113.654V63.181Z" fill="white" fill-opacity="0.8"/>
<path fill-rule="evenodd" clip-rule="evenodd" d="M106.015 63.1817H108.106V46.3136H106.015V63.1817ZM107.042 38.583C108.07 38.583 108.913 39.4317 108.913 40.4685C108.913 41.5053 108.07 42.3172 107.042 42.3172C106.015 42.3172 105.208 41.5053 105.208 40.4685C105.208 39.4317 106.015 38.583 107.042 38.583Z" fill="white" fill-opacity="0.8"/>
<path fill-rule="evenodd" clip-rule="evenodd" d="M93.2564 63.1806L85.4819 46.3125H87.757L93.9173 59.7777L100.076 46.3125H102.35L94.6133 63.1806H93.2564Z" fill="white" fill-opacity="0.8"/>
<path fill-rule="evenodd" clip-rule="evenodd" d="M79.7695 63.1817H81.8592V46.3136H79.7695V63.1817ZM80.7959 38.583C81.8215 38.583 82.6641 39.4317 82.6641 40.4685C82.6641 41.5053 81.8215 42.3172 80.7959 42.3172C79.7695 42.3172 78.9624 41.5053 78.9624 40.4685C78.9624 39.4317 79.7695 38.583 80.7959 38.583Z" fill="white" fill-opacity="0.8"/>
<path fill-rule="evenodd" clip-rule="evenodd" d="M75.26 47.9757C75.0393 47.939 74.3784 47.939 74.2699 47.939C71.995 47.939 69.9046 49.4925 69.0249 51.6768V63.1803H66.9351V46.3129H69.0249V48.5331C69.7962 47.3484 71.7023 45.9429 74.3056 45.9429C74.5991 45.9429 75.3314 45.9789 75.5528 46.0169L75.26 47.9757Z" fill="white" fill-opacity="0.8"/>
<path fill-rule="evenodd" clip-rule="evenodd" d="M48.0256 57.8542C49.3448 60.1464 51.545 61.5524 54.0029 61.5524C55.4326 61.5524 56.7154 61.0344 57.7795 60.2963C59.3935 59.1483 60.4191 57.0787 60.4191 54.7472C60.4191 52.5657 59.5402 50.6028 58.0723 49.3814C56.8997 48.4214 55.4326 47.9392 54.0393 47.9392C50.9588 47.9392 48.7578 50.0848 48.0256 51.3443V57.8542ZM45.9351 72.058V46.3124H47.9516V48.6447C49.4551 46.9433 51.6554 45.9424 54.0743 45.9424C56.0928 45.9424 58.0002 46.6818 59.3935 47.83C61.2988 49.4561 62.5097 51.9356 62.5097 54.7472C62.5097 57.7795 61.1528 60.4057 58.9533 61.9598C57.3009 63.1425 55.543 63.5492 53.9666 63.5492C51.3619 63.5492 49.2721 62.4052 48.0256 60.7771V72.058H45.9351Z" fill="white" fill-opacity="0.8"/>
<path fill-rule="evenodd" clip-rule="evenodd" d="M198.464 59.8079H198.99C199.101 59.8079 199.211 59.8037 199.323 59.7947C199.432 59.7849 199.532 59.7614 199.619 59.7249C199.711 59.6882 199.783 59.6314 199.837 59.5574C199.894 59.4835 199.921 59.3811 199.921 59.2497C199.921 59.1197 199.894 59.0172 199.837 58.9432C199.783 58.8685 199.711 58.8139 199.619 58.7758C199.532 58.7378 199.432 58.7178 199.323 58.7094C199.211 58.704 199.101 58.7018 198.99 58.7018H198.464V59.8079ZM197.743 58.0863H199.257C199.73 58.0863 200.078 58.1901 200.305 58.3941C200.528 58.5982 200.64 58.8942 200.64 59.2781C200.64 59.6259 200.552 59.886 200.375 60.0596C200.2 60.2339 199.976 60.3355 199.708 60.3666L200.723 62.0419H199.967L198.99 60.4234H198.464V62.0419H197.743V58.0863ZM196.24 60.0879C196.24 60.478 196.313 60.8481 196.461 61.1946C196.609 61.5425 196.81 61.8448 197.066 62.1035C197.32 62.3601 197.621 62.5626 197.965 62.7121C198.31 62.8615 198.675 62.9355 199.062 62.9355C199.451 62.9355 199.817 62.8615 200.162 62.7121C200.505 62.5626 200.804 62.3601 201.059 62.1035C201.316 61.8448 201.518 61.5425 201.665 61.1946C201.813 60.8481 201.886 60.478 201.886 60.0879C201.886 59.6965 201.813 59.3278 201.665 58.9799C201.518 58.6333 201.316 58.3304 201.059 58.0731C200.804 57.8165 200.505 57.6126 200.162 57.4631C199.817 57.3151 199.451 57.2397 199.062 57.2397C198.675 57.2397 198.31 57.3151 197.965 57.4631C197.621 57.6126 197.32 57.8165 197.066 58.0731C196.81 58.3304 196.609 58.6333 196.461 58.9799C196.313 59.3278 196.24 59.6965 196.24 60.0879ZM195.63 60.0879C195.63 59.6106 195.721 59.1611 195.904 58.7434C196.083 58.3235 196.331 57.959 196.642 57.645C196.951 57.331 197.314 57.0841 197.73 56.9C198.146 56.7181 198.589 56.6255 199.062 56.6255C199.536 56.6255 199.981 56.7181 200.395 56.9C200.811 57.0841 201.173 57.331 201.484 57.645C201.795 57.959 202.041 58.3235 202.222 58.7434C202.403 59.1611 202.494 59.6106 202.494 60.0879C202.494 60.5666 202.403 61.0127 202.222 61.4339C202.041 61.8516 201.795 62.2176 201.484 62.5308C201.173 62.8434 200.811 63.0924 200.395 63.2744C199.981 63.4584 199.536 63.5497 199.062 63.5497C198.589 63.5497 198.146 63.4584 197.73 63.2744C197.314 63.0924 196.951 62.8434 196.642 62.5308C196.331 62.2176 196.083 61.8516 195.904 61.4339C195.721 61.0127 195.63 60.5666 195.63 60.0879Z" fill="white" fill-opacity="0.8"/>
<path fill-rule="evenodd" clip-rule="evenodd" d="M191.297 24.2818C191.098 24.2175 190.87 24.3288 190.789 24.5259C190.769 24.584 190.741 24.6332 190.713 24.685C189.999 26.6306 188.155 28.0146 185.984 28.0319H185.605C185.539 28.034 185.482 28.0381 185.413 28.0381H177.826V19.0832H185.391C186.969 19.0832 187.812 19.5378 187.959 20.4632C187.992 20.6693 188.17 20.8234 188.376 20.8234L188.411 20.8194C188.628 20.8021 188.802 20.618 188.802 20.3995V15.1111C188.802 14.8877 188.633 14.7079 188.419 14.6865C188.198 14.6567 188.007 14.8109 187.96 15.0163C187.767 15.9639 186.912 16.4198 185.352 16.4198H177.826V7.72077H185.851H185.873H186.355C188.084 7.73114 189.517 8.9782 189.832 10.6278C189.84 10.6472 189.847 10.6582 189.853 10.6797C189.913 10.8678 190.065 11.0137 190.263 11.0137C190.276 11.0137 190.301 11.0137 190.31 11.0096C190.525 10.9882 190.69 10.8083 190.69 10.5856V5.70873C190.69 5.47703 190.499 5.28613 190.267 5.28613H172.04C171.815 5.28613 171.632 5.46181 171.616 5.68246C171.602 5.90309 171.76 6.10229 171.968 6.13273L172.006 6.14102C172.013 6.1431 172.021 6.1431 172.024 6.14587C172.972 6.28282 173.706 7.09897 173.71 8.08665V27.9801C173.706 28.9194 173.052 29.703 172.185 29.9001C172.18 29.9001 172.176 29.9021 172.176 29.9021C172.16 29.9063 172.139 29.9153 172.127 29.9173C172.117 29.9215 172.106 29.9215 172.091 29.9236C171.877 29.9602 171.722 30.1574 171.741 30.3842C171.756 30.5986 171.94 30.7702 172.16 30.7702H190.255C190.458 30.7702 190.636 30.6243 190.667 30.4189L191.597 24.7576C191.632 24.5433 191.507 24.3379 191.297 24.2818Z" fill="white" fill-opacity="0.8"/>
<path fill-rule="evenodd" clip-rule="evenodd" d="M167.343 24.5556C167.187 24.4851 166.997 24.53 166.885 24.6587C164.58 27.1189 161.919 28.3652 158.964 28.3652C155.855 28.3652 153.358 27.2621 151.543 25.0827C149.895 23.099 149.06 20.6471 149.06 17.8105C149.06 15.0163 149.869 12.6294 151.465 10.7225C153.199 8.61155 155.587 7.54432 158.56 7.54432C162.412 7.54432 164.895 9.08049 166.154 12.2331C166.232 12.4233 166.414 12.5374 166.628 12.4945C166.823 12.453 166.968 12.2759 166.968 12.0768V6.71295C166.968 6.55249 166.876 6.40862 166.735 6.33392C164.584 5.24733 162.095 4.69678 159.329 4.69678C154.767 4.69678 151.062 6.17484 148.331 9.08257C145.899 11.6652 144.669 14.8531 144.669 18.5451C144.669 22.0483 145.807 25.0232 148.05 27.3865C150.542 30.0238 153.994 31.3615 158.318 31.3615C162.051 31.3615 165.135 30.1186 167.497 27.6459C167.57 27.5684 167.611 27.4592 167.611 27.3499V24.9457C167.611 24.7701 167.509 24.6158 167.343 24.5556Z" fill="white" fill-opacity="0.8"/>
<path fill-rule="evenodd" clip-rule="evenodd" d="M138.891 7.95386C138.896 7.88745 138.9 7.81898 138.911 7.7588C139.045 6.94473 139.656 6.29734 140.453 6.13687C140.472 6.13065 140.484 6.12374 140.5 6.12166C140.697 6.06425 140.832 5.87958 140.814 5.6783C140.797 5.45975 140.612 5.28613 140.393 5.28613H133.291C133.072 5.28613 132.889 5.45975 132.87 5.6783C132.856 5.87958 132.989 6.06425 133.212 6.12374C133.221 6.13065 133.224 6.13273 133.231 6.13687C134.126 6.31671 134.798 7.11211 134.802 8.06935V8.21115C134.802 8.21115 134.805 8.22429 134.805 8.23259V27.8002C134.805 27.8106 134.802 27.8175 134.802 27.83V28.0063C134.798 28.9726 134.123 29.7673 133.224 29.943C133.221 29.943 133.216 29.943 133.212 29.9513C133.148 29.9513 133.084 29.9859 133.033 30.037C132.952 30.1276 132.904 30.2598 132.914 30.378C132.925 30.5986 133.112 30.7702 133.333 30.7702H140.393H140.399C140.634 30.7702 140.821 30.5793 140.821 30.3462C140.821 30.1574 140.712 29.9817 140.53 29.9602C140.51 29.9575 140.5 29.943 140.484 29.943C139.574 29.7804 138.883 28.9789 138.879 28.0063V27.796V27.7746V8.11432V8.09772V8.06935C138.879 8.02648 138.89 7.99051 138.891 7.95386Z" fill="white" fill-opacity="0.8"/>
<path fill-rule="evenodd" clip-rule="evenodd" d="M124.942 18.5861C124.942 21.5174 124.113 23.9236 122.473 25.7344C120.846 27.5299 118.697 28.4387 116.091 28.4387C113.193 28.4387 110.825 27.393 109.047 25.3339C107.256 23.2527 106.35 20.5235 106.35 17.2187C106.35 14.3387 107.171 11.9801 108.796 10.2164C110.415 8.46789 112.571 7.58326 115.203 7.58326C118.125 7.58326 120.5 8.6159 122.261 10.6577C124.041 12.7105 124.942 15.3782 124.942 18.5861ZM116.008 4.69629C111.988 4.69629 108.645 6.00422 106.071 8.57509C103.499 11.1488 102.197 14.421 102.197 18.2859C102.197 22.0659 103.418 25.2115 105.829 27.6503C108.24 30.0926 111.421 31.3271 115.281 31.3271C119.331 31.3271 122.693 29.9943 125.262 27.3585C127.754 24.8173 129.013 21.5817 129.013 17.7375C129.013 13.9603 127.805 10.8119 125.424 8.37383C123.039 5.93298 119.873 4.69629 116.008 4.69629Z" fill="white" fill-opacity="0.8"/>
<path fill-rule="evenodd" clip-rule="evenodd" d="M96.9458 8.06937C96.9518 7.11971 97.6149 6.32293 98.5028 6.14103C98.5063 6.13687 98.5172 6.12996 98.5234 6.12374C98.7277 6.07255 98.8614 5.89065 98.8483 5.68246C98.8312 5.45975 98.6454 5.28613 98.4233 5.28613H91.3276C91.1082 5.28613 90.9217 5.45975 90.9066 5.68246C90.8915 5.87958 91.0211 6.06425 91.2446 6.12374C91.248 6.12996 91.2529 6.12996 91.2611 6.13687C92.1489 6.31671 92.7969 7.11141 92.799 8.06937V16.4198H78.9621V8.15927C78.9621 8.15927 78.9643 8.15927 78.9643 8.15097V8.06937C78.9711 7.09897 79.6636 6.29942 80.5747 6.12996L80.592 6.11544C80.7874 6.06425 80.9149 5.87958 80.8956 5.68246C80.8806 5.45975 80.6982 5.28613 80.4753 5.28613H73.3359C73.1192 5.28613 72.9327 5.45975 72.9169 5.68246C72.9005 5.88165 73.0321 6.06425 73.2234 6.11958C73.2234 6.11958 73.3002 6.13687 73.4064 6.17491C74.1496 6.37896 74.7146 7.01113 74.8223 7.80169C74.8312 7.86394 74.8332 7.93242 74.8401 7.99674C74.8401 8.01818 74.8483 8.04377 74.8483 8.06937V8.11224C74.8483 8.13368 74.8525 8.14406 74.8525 8.16343V27.8473C74.8525 27.8473 74.8525 27.8493 74.8483 27.8493V27.9759C74.8463 28.9055 74.2004 29.6815 73.3359 29.8849V29.8953L73.1768 29.9596C73.0088 30.0287 72.9052 30.1954 72.9169 30.3802C72.9327 30.5979 73.1192 30.7715 73.3359 30.7715H80.4753C80.6982 30.7715 80.8847 30.5979 80.8956 30.3802C80.9101 30.1954 80.8065 30.024 80.6297 29.9575L80.4753 29.8994L80.4713 29.8849C79.6108 29.6725 78.9711 28.9055 78.9643 27.9759V27.7678C78.9643 27.7573 78.9621 27.7526 78.9621 27.7441V19.1601H92.799C92.799 19.1601 92.7969 27.6031 92.7969 27.7573C92.7969 28.2672 92.7572 28.55 92.7036 28.6482C92.478 29.2658 91.9584 29.7347 91.3145 29.8911L91.1528 29.9596C90.9938 30.037 90.8936 30.2037 90.9066 30.3802C90.9197 30.5979 91.1034 30.7715 91.3276 30.7715H98.426H98.4301C98.664 30.7715 98.8545 30.5773 98.8545 30.3455C98.8545 30.1871 98.7654 30.037 98.6187 29.9665L98.4535 29.8849C97.593 29.6767 96.9518 28.9055 96.9458 27.9759V8.06937Z" fill="white" fill-opacity="0.8"/>
<path fill-rule="evenodd" clip-rule="evenodd" d="M58.7229 31.3828C53.9378 31.3828 50.1161 29.8999 47.3612 26.9859C44.8805 24.3715 43.6265 21.0889 43.6265 17.2191C43.6265 13.1286 44.984 9.60393 47.6813 6.74531C50.7002 3.52704 54.7948 1.89404 59.8514 1.89404C62.9223 1.89404 65.6876 2.50684 68.0605 3.70687C68.1648 3.75806 68.2278 3.85695 68.2278 3.97869V9.98088C68.2278 10.122 68.1264 10.2506 67.9816 10.2762C67.9611 10.2811 67.937 10.2894 67.9179 10.2894C67.7944 10.2894 67.691 10.2147 67.6443 10.0922C66.2059 6.48802 63.381 4.74159 58.993 4.74159C55.6134 4.74159 52.9011 5.9589 50.9298 8.35204C49.1198 10.5211 48.2018 13.2268 48.2018 16.3877C48.2018 19.6101 49.1493 22.3872 51.017 24.6329C53.0828 27.1146 55.9186 28.3657 59.4455 28.3657C62.7969 28.3657 65.8233 26.9514 68.428 24.1619C68.4808 24.1017 68.5658 24.0692 68.6529 24.0692C68.6893 24.0692 68.7277 24.0782 68.7592 24.0865C68.8765 24.1357 68.9504 24.2476 68.9504 24.3715V27.0606C68.9504 27.1443 68.9202 27.2177 68.8634 27.2772C66.2634 30.0001 62.8517 31.3828 58.7229 31.3828Z" fill="white" fill-opacity="0.8"/>
<path fill-rule="evenodd" clip-rule="evenodd" d="M19.5093 0V16.846H19.5175C27.5106 16.846 33.9912 10.3278 34.0255 2.2714V0H19.5093Z" fill="white" fill-opacity="0.8"/>
<path fill-rule="evenodd" clip-rule="evenodd" d="M34.0255 34.6853V17.8345H34.0146C26.0235 17.8345 19.5428 24.3575 19.5093 32.4119V34.6853H34.0255Z" fill="white" fill-opacity="0.8"/>
<path fill-rule="evenodd" clip-rule="evenodd" d="M14.5463 34.6848C6.53253 33.0524 0.497559 25.9055 0.497559 17.3414C0.497559 8.77874 6.53253 1.63255 14.5463 0.000244141V34.6848Z" fill="white" fill-opacity="0.8"/>
</g>
</g>
<defs>
<clipPath id="clip0_1023_1624">
<rect width="202" height="72" fill="white" transform="translate(0.497559)"/>
</clipPath>
</defs>
</svg>
