<svg width="147" height="56" viewBox="0 0 147 56" fill="none" xmlns="http://www.w3.org/2000/svg">
<path d="M96.147 6.2767V0.0834045H100.064V0.660888H96.7914V2.91224H99.6705V3.48972H96.7914V6.2767H96.147Z" fill="white"/>
<path d="M91.2655 6.36069C90.7801 6.36069 90.3504 6.27141 89.9766 6.09287C89.6084 5.90874 89.2987 5.66603 89.0476 5.36474C88.8021 5.05786 88.6152 4.71472 88.4869 4.33531C88.3641 3.9559 88.3027 3.56812 88.3027 3.17197C88.3027 2.78141 88.3641 2.39642 88.4869 2.01701C88.6152 1.6376 88.8021 1.29725 89.0476 0.99595C89.2987 0.689074 89.6084 0.446364 89.9766 0.267818C90.3504 0.0892727 90.7801 0 91.2655 0C91.7509 0 92.1778 0.0892727 92.546 0.267818C92.9143 0.446364 93.2211 0.689074 93.4666 0.99595C93.7177 1.29725 93.9074 1.6376 94.0358 2.01701C94.1641 2.39642 94.2283 2.78141 94.2283 3.17197C94.2283 3.56812 94.1641 3.9559 94.0358 4.33531C93.9074 4.71472 93.7177 5.05786 93.4666 5.36474C93.2211 5.66603 92.9143 5.90874 92.546 6.09287C92.1778 6.27141 91.7509 6.36069 91.2655 6.36069ZM91.2655 5.75809C91.7174 5.75809 92.1164 5.6465 92.4623 5.42332C92.8082 5.19456 93.0789 4.8849 93.2741 4.49433C93.4694 4.10376 93.5671 3.66297 93.5671 3.17197C93.5671 2.68655 93.4694 2.25135 93.2741 1.86636C93.0789 1.47579 92.8082 1.16892 92.4623 0.945734C92.1164 0.716972 91.7174 0.602592 91.2655 0.602592C90.808 0.602592 90.4062 0.716972 90.0603 0.945734C89.7144 1.16892 89.4438 1.47579 89.2485 1.86636C89.0532 2.25135 88.9555 2.68655 88.9555 3.17197C88.9555 3.66297 89.0532 4.10376 89.2485 4.49433C89.4438 4.8849 89.7144 5.19456 90.0603 5.42332C90.4062 5.6465 90.808 5.75809 91.2655 5.75809Z" fill="white"/>
<path d="M79.5757 6.2767V0.0834045H81.668C82.0921 0.0834045 82.4464 0.169887 82.7309 0.342853C83.0155 0.51024 83.2275 0.727842 83.367 0.995661C83.5065 1.2579 83.5762 1.53688 83.5762 1.83259C83.5762 2.08367 83.5232 2.32638 83.4172 2.56072C83.3168 2.79506 83.1634 2.99872 82.9569 3.17168C82.7505 3.34465 82.491 3.46461 82.1786 3.53157L83.7855 6.2767H83.0573L81.4923 3.58178H80.2201V6.2767H79.5757ZM81.6597 0.660888H80.2201V3.02104H81.6597C81.9442 3.02104 82.1786 2.96524 82.3627 2.85365C82.5468 2.73648 82.6863 2.58862 82.7812 2.41008C82.876 2.22595 82.9234 2.03625 82.9234 1.84096C82.9234 1.64568 82.876 1.45876 82.7812 1.28022C82.6863 1.09609 82.5468 0.948234 82.3627 0.836643C82.1786 0.719473 81.9442 0.660888 81.6597 0.660888Z" fill="white"/>
<path d="M73.7227 6.2767V0.0834045H77.514V0.660888H74.3671V2.82854H77.1206V3.40603H74.3671V5.69922H77.5558V6.2767H73.7227Z" fill="white"/>
<path d="M67.436 6.2767V0.0834045H69.7795C70.1645 0.0834045 70.4909 0.158729 70.7587 0.309376C71.0265 0.454444 71.2302 0.646939 71.3696 0.886859C71.5147 1.1212 71.5872 1.37507 71.5872 1.64847C71.5872 1.92187 71.537 2.15621 71.4366 2.35149C71.3362 2.5412 71.2134 2.69463 71.0683 2.8118C70.9289 2.92897 70.7949 3.00709 70.6666 3.04614V3.09636C70.8452 3.14658 71.0209 3.23306 71.1939 3.35581C71.3724 3.47298 71.5203 3.632 71.6375 3.83286C71.7546 4.03373 71.8132 4.27922 71.8132 4.56936C71.8132 4.85392 71.7435 5.12732 71.604 5.38956C71.4701 5.64621 71.2553 5.85824 70.9595 6.02562C70.6694 6.19301 70.2872 6.2767 69.8129 6.2767H67.436ZM69.7544 0.652518H68.0805V2.85365H69.7544C70.0333 2.85365 70.2621 2.80064 70.4406 2.69463C70.6192 2.58304 70.7503 2.44355 70.834 2.27617C70.9177 2.10878 70.9595 1.93302 70.9595 1.7489C70.9595 1.56477 70.9177 1.38902 70.834 1.22163C70.7503 1.05425 70.6192 0.917547 70.4406 0.811535C70.2621 0.705524 70.0333 0.652518 69.7544 0.652518ZM69.7962 3.38092H68.0805V5.70759H69.7962C70.1198 5.70759 70.3821 5.65179 70.5829 5.5402C70.7838 5.42303 70.9316 5.27517 71.0265 5.09663C71.1213 4.91808 71.1688 4.73396 71.1688 4.54425C71.1688 4.34897 71.1213 4.16484 71.0265 3.99188C70.9316 3.81333 70.7838 3.66826 70.5829 3.55667C70.3821 3.4395 70.1198 3.38092 69.7962 3.38092Z" fill="white"/>
<path d="M59.5562 6.2767V0.0834045H60.4182L62.4268 3.95003L64.4355 0.0834045H65.2975V6.2767H64.6615V1.00403L62.7281 4.68653H62.1255L60.1922 0.987291V6.2767H59.5562Z" fill="white"/>
<path d="M53.7026 6.2767V0.0834045H57.494V0.660888H54.3471V2.82854H57.1006V3.40603H54.3471V5.69922H57.5358V6.2767H53.7026Z" fill="white"/>
<path d="M45.8228 6.2767V0.0834045H46.6848L48.6934 3.95003L50.7021 0.0834045H51.5641V6.2767H50.9281V1.00403L48.9947 4.68653H48.3922L46.4588 0.987291V6.2767H45.8228Z" fill="white"/>
<path d="M141.73 55.9991C140.927 55.9991 140.24 55.9043 139.671 55.7146C139.113 55.5137 138.645 55.2626 138.265 54.9613C137.897 54.6489 137.601 54.3253 137.378 53.9905C137.155 53.6446 136.988 53.3209 136.876 53.0196C136.776 52.7072 136.709 52.4561 136.675 52.2664C136.653 52.0655 136.642 51.9651 136.642 51.9651H139.253C139.253 51.9651 139.275 52.06 139.32 52.2497C139.376 52.4394 139.487 52.6626 139.655 52.9192C139.822 53.1647 140.079 53.3823 140.425 53.572C140.77 53.7506 141.239 53.8398 141.831 53.8398C142.556 53.8398 143.092 53.6892 143.438 53.3879C143.783 53.0754 143.956 52.7072 143.956 52.2831C143.956 51.9037 143.823 51.6024 143.555 51.3793C143.298 51.1561 142.896 50.9887 142.35 50.8771L140.692 50.5591C140.023 50.4363 139.398 50.241 138.818 49.9732C138.249 49.7054 137.785 49.3371 137.428 48.8685C137.071 48.3886 136.893 47.7749 136.893 47.0272C136.893 46.2684 137.082 45.61 137.462 45.0521C137.841 44.4829 138.371 44.0477 139.052 43.7464C139.744 43.434 140.553 43.2778 141.479 43.2778C142.35 43.2778 143.069 43.4061 143.638 43.6627C144.219 43.9082 144.676 44.2151 145.011 44.5834C145.357 44.9405 145.608 45.3031 145.764 45.6714C145.932 46.0396 146.038 46.3465 146.082 46.592C146.138 46.8375 146.166 46.9603 146.166 46.9603H143.622C143.622 46.9603 143.599 46.8821 143.555 46.7259C143.521 46.5697 143.432 46.3911 143.287 46.1903C143.142 45.9894 142.919 45.8109 142.617 45.6546C142.327 45.4984 141.925 45.4203 141.412 45.4203C140.709 45.4203 140.201 45.5765 139.889 45.889C139.576 46.1903 139.42 46.5195 139.42 46.8766C139.42 47.2448 139.576 47.5294 139.889 47.7302C140.201 47.9311 140.609 48.0817 141.111 48.1822L142.868 48.5337C143.538 48.6564 144.152 48.8629 144.71 49.153C145.268 49.4432 145.708 49.8337 146.032 50.3247C146.367 50.8046 146.534 51.4016 146.534 52.1158C146.534 52.8523 146.35 53.5162 145.982 54.1077C145.614 54.6879 145.072 55.151 144.358 55.497C143.644 55.8317 142.768 55.9991 141.73 55.9991Z" fill="white"/>
<path d="M122.672 55.8325V43.4459H125.25V53.5895H131.309V55.8325H122.672Z" fill="white"/>
<path d="M105.489 55.8325L109.707 43.4459H113.138L117.357 55.8325H114.645L113.858 53.4054H109.004L108.2 55.8325H105.489ZM109.724 51.1624H113.138L111.431 45.9902L109.724 51.1624Z" fill="white"/>
<path d="M95.531 55.9999C94.6271 55.9999 93.7902 55.8269 93.0202 55.481C92.2614 55.1351 91.6476 54.5994 91.179 53.8741C90.7214 53.1488 90.4927 52.2058 90.4927 51.0453V43.4459H93.0704V51.0453C93.0704 51.7594 93.2713 52.362 93.673 52.853C94.0748 53.3329 94.6941 53.5728 95.531 53.5728C96.368 53.5728 96.9817 53.3329 97.3723 52.853C97.774 52.362 97.9749 51.7594 97.9749 51.0453V43.4459H100.569V51.0453C100.569 52.2058 100.335 53.1488 99.8664 53.8741C99.4088 54.5994 98.7951 55.1351 98.0251 55.481C97.2551 55.8269 96.4238 55.9999 95.531 55.9999Z" fill="white"/>
<path d="M74.2402 55.8325V43.4459H78.9271C79.9314 43.4459 80.813 43.6245 81.5718 43.9816C82.3418 44.3275 82.9779 44.7962 83.48 45.3876C83.9822 45.979 84.3616 46.643 84.6183 47.3795C84.8749 48.116 85.0033 48.8692 85.0033 49.6392C85.0033 50.4092 84.8749 51.1624 84.6183 51.8989C84.3616 52.6354 83.9822 53.2994 83.48 53.8908C82.9779 54.4823 82.3418 54.9565 81.5718 55.3136C80.813 55.6596 79.9314 55.8325 78.9271 55.8325H74.2402ZM78.8099 45.7056H76.818V53.5393H78.8099C79.6245 53.5393 80.2941 53.3496 80.8186 52.9702C81.3542 52.5908 81.7504 52.0998 82.007 51.4972C82.2748 50.8946 82.4087 50.2697 82.4087 49.6225C82.4087 48.9753 82.2748 48.3559 82.007 47.7645C81.7504 47.1619 81.3542 46.6709 80.8186 46.2915C80.2941 45.9009 79.6245 45.7056 78.8099 45.7056Z" fill="white"/>
<path d="M65.7031 55.8325V43.4459H68.2809V55.8325H65.7031Z" fill="white"/>
<path d="M52.9291 55.8325L48.7109 43.4459H51.4226L54.6532 53.305L57.867 43.4459H60.5787L56.3605 55.8325H52.9291Z" fill="white"/>
<path d="M41.0103 55.8325V43.4459H43.588V55.8325H41.0103Z" fill="white"/>
<path d="M24.7578 55.8325V43.4459H29.4447C30.449 43.4459 31.3306 43.6245 32.0894 43.9816C32.8594 44.3275 33.4954 44.7962 33.9976 45.3876C34.4998 45.979 34.8792 46.643 35.1358 47.3795C35.3925 48.116 35.5208 48.8692 35.5208 49.6392C35.5208 50.4092 35.3925 51.1624 35.1358 51.8989C34.8792 52.6354 34.4998 53.2994 33.9976 53.8908C33.4954 54.4823 32.8594 54.9565 32.0894 55.3136C31.3306 55.6596 30.449 55.8325 29.4447 55.8325H24.7578ZM29.3275 45.7056H27.3356V53.5393H29.3275C30.1421 53.5393 30.8117 53.3496 31.3361 52.9702C31.8718 52.5908 32.2679 52.0998 32.5246 51.4972C32.7924 50.8946 32.9263 50.2697 32.9263 49.6225C32.9263 48.9753 32.7924 48.3559 32.5246 47.7645C32.2679 47.1619 31.8718 46.6709 31.3361 46.2915C30.8117 45.9009 30.1421 45.7056 29.3275 45.7056Z" fill="white"/>
<path d="M8.5376 55.8325V43.4459H10.8978L16.2374 51.3466V43.4459H18.7984V55.8325H16.4048L11.0986 48.1495V55.8325H8.5376Z" fill="white"/>
<path d="M0 55.8325V43.4459H2.57777V55.8325H0Z" fill="white"/>
<path d="M134.774 33.1474V20.7608H137.134L142.474 28.6614V20.7608H145.035V33.1474H142.641L137.335 25.4643V33.1474H134.774Z" fill="white"/>
<path d="M118.836 33.314C117.81 33.314 116.906 33.1354 116.125 32.7783C115.344 32.4101 114.685 31.9247 114.15 31.3221C113.625 30.7083 113.229 30.022 112.961 29.2632C112.705 28.5044 112.576 27.7288 112.576 26.9365C112.576 26.1442 112.705 25.3743 112.961 24.6266C113.229 23.8678 113.625 23.1871 114.15 22.5845C114.685 21.9819 115.344 21.5021 116.125 21.145C116.906 20.7767 117.81 20.5926 118.836 20.5926C119.874 20.5926 120.784 20.7767 121.565 21.145C122.346 21.5021 122.999 21.9819 123.523 22.5845C124.048 23.1871 124.438 23.8678 124.695 24.6266C124.963 25.3743 125.097 26.1442 125.097 26.9365C125.097 27.7288 124.963 28.5044 124.695 29.2632C124.438 30.022 124.048 30.7083 123.523 31.3221C122.999 31.9247 122.346 32.4101 121.565 32.7783C120.784 33.1354 119.874 33.314 118.836 33.314ZM118.836 30.9873C119.618 30.9873 120.276 30.792 120.812 30.4014C121.347 30.0109 121.749 29.5087 122.017 28.895C122.285 28.2701 122.419 27.6172 122.419 26.9365C122.419 26.2558 122.285 25.6086 122.017 24.9949C121.749 24.3811 121.347 23.8789 120.812 23.4884C120.276 23.0978 119.618 22.9025 118.836 22.9025C118.055 22.9025 117.397 23.0978 116.861 23.4884C116.337 23.8789 115.941 24.3811 115.673 24.9949C115.405 25.6086 115.271 26.2558 115.271 26.9365C115.271 27.6172 115.405 28.2701 115.673 28.895C115.941 29.5087 116.337 30.0109 116.861 30.4014C117.397 30.792 118.055 30.9873 118.836 30.9873Z" fill="white"/>
<path d="M98.4538 33.314C97.6504 33.314 96.9641 33.2191 96.3949 33.0294C95.837 32.8285 95.3683 32.5775 94.9889 32.2762C94.6206 31.9637 94.3249 31.6401 94.1017 31.3053C93.8786 30.9594 93.7112 30.6358 93.5996 30.3345C93.4991 30.022 93.4322 29.7709 93.3987 29.5812C93.3764 29.3804 93.3652 29.2799 93.3652 29.2799H95.9765C95.9765 29.2799 95.9988 29.3748 96.0434 29.5645C96.0992 29.7542 96.2108 29.9774 96.3782 30.2341C96.5456 30.4796 96.8023 30.6972 97.1482 30.8869C97.4941 31.0654 97.9628 31.1547 98.5542 31.1547C99.2796 31.1547 99.8152 31.004 100.161 30.7027C100.507 30.3903 100.68 30.022 100.68 29.598C100.68 29.2186 100.546 28.9173 100.278 28.6941C100.022 28.4709 99.6199 28.3035 99.0731 28.1919L97.416 27.8739C96.7465 27.7512 96.1215 27.5559 95.5413 27.288C94.9722 27.0202 94.509 26.652 94.152 26.1833C93.7949 25.7035 93.6163 25.0897 93.6163 24.342C93.6163 23.5832 93.806 22.9248 94.1854 22.3669C94.5648 21.7978 95.0949 21.3626 95.7756 21.0613C96.4675 20.7488 97.2765 20.5926 98.2027 20.5926C99.0731 20.5926 99.7929 20.7209 100.362 20.9776C100.942 21.2231 101.4 21.53 101.735 21.8982C102.081 22.2553 102.332 22.618 102.488 22.9862C102.655 23.3545 102.761 23.6613 102.806 23.9068C102.862 24.1523 102.89 24.2751 102.89 24.2751H100.345C100.345 24.2751 100.323 24.197 100.278 24.0408C100.245 23.8845 100.156 23.706 100.011 23.5051C99.8654 23.3043 99.6423 23.1257 99.341 22.9695C99.0508 22.8133 98.6491 22.7351 98.1358 22.7351C97.4327 22.7351 96.925 22.8914 96.6125 23.2038C96.3001 23.5051 96.1439 23.8343 96.1439 24.1914C96.1439 24.5596 96.3001 24.8442 96.6125 25.0451C96.925 25.2459 97.3323 25.3966 97.8345 25.497L99.592 25.8485C100.262 25.9713 100.875 26.1777 101.433 26.4679C101.991 26.758 102.432 27.1486 102.756 27.6396C103.09 28.1194 103.258 28.7164 103.258 29.4306C103.258 30.1671 103.074 30.8311 102.705 31.4225C102.337 32.0028 101.796 32.4659 101.082 32.8118C100.368 33.1466 99.4916 33.314 98.4538 33.314Z" fill="white"/>
<path d="M79.2419 33.314C78.4384 33.314 77.7521 33.2191 77.183 33.0294C76.6251 32.8285 76.1564 32.5775 75.777 32.2762C75.4087 31.9637 75.113 31.6401 74.8898 31.3053C74.6666 30.9594 74.4993 30.6358 74.3877 30.3345C74.2872 30.022 74.2203 29.7709 74.1868 29.5812C74.1645 29.3804 74.1533 29.2799 74.1533 29.2799H76.7646C76.7646 29.2799 76.7869 29.3748 76.8315 29.5645C76.8873 29.7542 76.9989 29.9774 77.1663 30.2341C77.3337 30.4796 77.5903 30.6972 77.9363 30.8869C78.2822 31.0654 78.7509 31.1547 79.3423 31.1547C80.0677 31.1547 80.6033 31.004 80.9492 30.7027C81.2952 30.3903 81.4682 30.022 81.4682 29.598C81.4682 29.2186 81.3342 28.9173 81.0664 28.6941C80.8098 28.4709 80.408 28.3035 79.8612 28.1919L78.2041 27.8739C77.5345 27.7512 76.9096 27.5559 76.3294 27.288C75.7602 27.0202 75.2971 26.652 74.94 26.1833C74.5829 25.7035 74.4044 25.0897 74.4044 24.342C74.4044 23.5832 74.5941 22.9248 74.9735 22.3669C75.3529 21.7978 75.883 21.3626 76.5637 21.0613C77.2556 20.7488 78.0646 20.5926 78.9908 20.5926C79.8612 20.5926 80.581 20.7209 81.1501 20.9776C81.7304 21.2231 82.1879 21.53 82.5227 21.8982C82.8686 22.2553 83.1197 22.618 83.2759 22.9862C83.4433 23.3545 83.5493 23.6613 83.594 23.9068C83.6498 24.1523 83.6777 24.2751 83.6777 24.2751H81.1334C81.1334 24.2751 81.1111 24.197 81.0664 24.0408C81.0329 23.8845 80.9437 23.706 80.7986 23.5051C80.6535 23.3043 80.4303 23.1257 80.129 22.9695C79.8389 22.8133 79.4372 22.7351 78.9239 22.7351C78.2208 22.7351 77.7131 22.8914 77.4006 23.2038C77.0882 23.5051 76.932 23.8343 76.932 24.1914C76.932 24.5596 77.0882 24.8442 77.4006 25.0451C77.7131 25.2459 78.1204 25.3966 78.6226 25.497L80.3801 25.8485C81.0497 25.9713 81.6634 26.1777 82.2214 26.4679C82.7794 26.758 83.2201 27.1486 83.5438 27.6396C83.8785 28.1194 84.0459 28.7164 84.0459 29.4306C84.0459 30.1671 83.8618 30.8311 83.4935 31.4225C83.1253 32.0028 82.5841 32.4659 81.8699 32.8118C81.1557 33.1466 80.2797 33.314 79.2419 33.314Z" fill="white"/>
<path d="M61.8999 33.1474V20.7608H64.4777V33.1474H61.8999Z" fill="white"/>
<path d="M41.4629 33.1474V20.7608H46.1497C47.1541 20.7608 48.0356 20.9393 48.7945 21.2964C49.5644 21.6423 50.2005 22.111 50.7027 22.7024C51.2048 23.2939 51.5843 23.9578 51.8409 24.6943C52.0976 25.4308 52.2259 26.1841 52.2259 26.9541C52.2259 27.724 52.0976 28.4773 51.8409 29.2138C51.5843 29.9503 51.2048 30.6142 50.7027 31.2057C50.2005 31.7971 49.5644 32.2714 48.7945 32.6285C48.0356 32.9744 47.1541 33.1474 46.1497 33.1474H41.4629ZM46.0326 23.0205H44.0407V30.8542H46.0326C46.8472 30.8542 47.5167 30.6645 48.0412 30.285C48.5769 29.9056 48.973 29.4146 49.2297 28.812C49.4975 28.2095 49.6314 27.5845 49.6314 26.9373C49.6314 26.2901 49.4975 25.6708 49.2297 25.0793C48.973 24.4767 48.5769 23.9857 48.0412 23.6063C47.5167 23.2158 46.8472 23.0205 46.0326 23.0205Z" fill="white"/>
<path d="M20.0942 33.1474L24.3124 20.7608H27.7438L31.962 33.1474H29.2503L28.4636 30.7203H23.6094L22.8059 33.1474H20.0942ZM24.3291 28.4773H27.7438L26.0365 23.305L24.3291 28.4773Z" fill="white"/>
<path d="M0.946777 33.1474V20.7608H5.9684C6.88345 20.7608 7.66459 20.9226 8.31183 21.2462C8.97022 21.5698 9.47238 22.0162 9.81831 22.5853C10.1754 23.1544 10.354 23.8128 10.354 24.5604C10.354 25.375 10.1475 26.0892 9.73462 26.703C9.32173 27.3056 8.73587 27.7464 7.97705 28.0253L10.672 33.1474H7.80966L5.34907 28.3768H3.52454V33.1474H0.946777ZM5.93492 22.987H3.52454V26.2678H5.93492C6.50404 26.2678 6.95041 26.1115 7.27402 25.7991C7.59764 25.4866 7.75945 25.1016 7.75945 24.6441C7.75945 24.1754 7.59764 23.7849 7.27402 23.4724C6.95041 23.1488 6.50404 22.987 5.93492 22.987Z" fill="white"/>
</svg>
