<svg width="83" height="20" viewBox="0 0 83 20" fill="none" xmlns="http://www.w3.org/2000/svg">
<g clip-path="url(#clip0_1023_5004)">
<path d="M3.82984 6.72804L1.39503 4.02795V6.72804H0V0.28125H3.02401C4.49703 0.28125 5.42416 1.03763 5.42416 2.3305C5.42416 3.62338 4.67032 4.24783 3.30128 4.3006L5.69277 6.72804H3.8385H3.82984ZM1.39503 3.12206H3.13665C3.66521 3.12206 4.00313 2.85821 4.00313 2.3305C4.00313 1.8028 3.66521 1.53895 3.13665 1.53895H1.39503V3.12206Z" fill="#535353"/>
<path d="M13.5163 0L17.1555 6.72823H15.6565L15.0153 5.51451H11.9826L11.3414 6.72823H9.81641L13.5163 0ZM14.4087 4.33597L13.5076 2.62973L12.6151 4.33597H14.4087Z" fill="#535353"/>
<path d="M22.0703 0.281622H24.2278C26.5067 0.255237 27.9364 1.63606 27.9364 3.51821C27.9364 5.40036 26.5067 6.72841 24.2278 6.72841H22.0703V0.281622ZM24.2278 5.43554C25.8308 5.43554 26.55 4.69675 26.55 3.50941C26.55 2.32208 25.8308 1.55691 24.2278 1.53932H23.4567V5.43554H24.2278Z" fill="#535353"/>
<path d="M33.4375 0.28125H34.8325V6.72804H33.4375V0.28125Z" fill="#535353"/>
<path d="M40.2469 6.05967L40.9921 4.96029C41.6246 5.33848 42.3958 5.54956 43.1237 5.54077C43.7995 5.54077 44.2241 5.2945 44.2501 4.88993C44.2761 4.50295 44.0335 4.36223 43.2796 4.18632L42.4911 4.01042C41.0701 3.6938 40.4982 3.03417 40.4982 2.05792C40.4982 0.984916 41.5727 0.193359 42.9677 0.193359C43.9122 0.193359 44.8306 0.483597 45.4805 0.88817L44.7786 1.98755C44.2674 1.67973 43.7129 1.47744 43.0977 1.47744C42.4391 1.47744 41.9799 1.70611 41.9799 2.11069C41.9799 2.47128 42.2572 2.64719 42.881 2.78791L43.7475 2.9814C45.1079 3.28043 45.6711 3.8697 45.6798 4.89872C45.6798 6.0157 44.6227 6.82485 43.0543 6.82485C42.0406 6.82485 40.9661 6.52581 40.2383 6.05967H40.2469Z" fill="#535353"/>
<path d="M50.6805 6.05967L51.4257 4.96029C52.0582 5.33848 52.8294 5.54956 53.5573 5.54077C54.2331 5.54077 54.6577 5.2945 54.6837 4.88993C54.7097 4.50295 54.4671 4.36223 53.7132 4.18632L52.9247 4.01042C51.5037 3.6938 50.9318 3.03417 50.9318 2.05792C50.9318 0.984916 52.0063 0.193359 53.4013 0.193359C54.3457 0.193359 55.2642 0.483597 55.9141 0.88817L55.2122 1.98755C54.701 1.67973 54.1465 1.47744 53.5313 1.47744C52.8727 1.47744 52.4135 1.70611 52.4135 2.11069C52.4135 2.47128 52.6908 2.64719 53.3146 2.78791L54.1811 2.9814C55.5415 3.28043 56.1047 3.8697 56.1134 4.89872C56.1134 6.0157 55.0563 6.82485 53.4879 6.82485C52.4742 6.82485 51.3997 6.52581 50.6719 6.05967H50.6805Z" fill="#535353"/>
<path d="M61.2188 3.50033C61.2188 1.61819 62.7004 0.158203 64.6327 0.158203C66.5649 0.158203 68.0466 1.61819 68.0466 3.50033C68.0466 5.38248 66.5649 6.85125 64.6327 6.85125C62.7004 6.85125 61.2188 5.37368 61.2188 3.50033ZM66.6429 3.50033C66.6429 2.313 65.7331 1.46867 64.624 1.46867C63.5149 1.46867 62.6051 2.313 62.6051 3.50033C62.6051 4.68767 63.5063 5.53199 64.624 5.53199C65.7418 5.53199 66.6429 4.68767 66.6429 3.50033Z" fill="#535353"/>
<path d="M73.5399 0.28125H74.9176L78.1409 4.64361V0.28125H79.5273V6.72804H78.1582L74.9263 2.37448V6.72804H73.5312V0.28125H73.5399Z" fill="#535353"/>
<path d="M0 13.2715H1.39503V19.7183H0V13.2715Z" fill="#535353"/>
<path d="M22.0703 13.2715H23.4653V19.7183H22.0703V13.2715Z" fill="#535353"/>
<path d="M35.9922 13.2715H37.3872V19.7183H35.9922V13.2715Z" fill="#535353"/>
<path d="M4.28991 13.2715H5.66762L8.89092 17.6338V13.2715H10.2773V19.7183H8.90825L5.67628 15.3647V19.7183H4.28125V13.2715H4.28991Z" fill="#535353"/>
<path d="M13.5078 13.2719H15.6653C17.9442 13.2455 19.3739 14.6263 19.3739 16.5084C19.3739 18.3906 17.9442 19.7186 15.6653 19.7186H13.5078V13.2719ZM15.6653 18.4346C17.2683 18.4346 17.9875 17.6958 17.9875 16.5084C17.9875 15.3211 17.2683 14.5559 15.6653 14.5383H14.8942V18.4346H15.6653Z" fill="#535353"/>
<path d="M26.0547 13.2715H27.6057L29.5899 17.282L31.5828 13.2715H33.1078L29.6072 19.9997L26.0547 13.2715Z" fill="#535353"/>
<path d="M40.7227 13.2719H42.8802C45.159 13.2455 46.5887 14.6263 46.5887 16.5084C46.5887 18.3906 45.159 19.7186 42.8802 19.7186H40.7227V13.2719ZM42.8802 18.4346C44.4832 18.4346 45.2024 17.6958 45.2024 16.5084C45.2024 15.3211 44.4832 14.5559 42.8802 14.5383H42.109V18.4346H42.8802Z" fill="#535353"/>
<path d="M49.1033 16.5608V13.2715H50.4983V16.5608C50.4983 17.7834 50.9749 18.4958 52.1099 18.4958C53.245 18.4958 53.7216 17.7922 53.7216 16.5696V13.2715H55.134V16.5696C55.134 18.5485 54.0855 19.8062 52.1013 19.8062C50.117 19.8062 49.0859 18.5661 49.0859 16.5608H49.1033Z" fill="#535353"/>
<path d="M60.9069 12.9902L64.5461 19.7185H63.0471L62.4059 18.5047H59.3732L58.732 19.7185H57.207L60.8982 12.9902H60.9069ZM61.7907 17.335L60.8896 15.6288L59.9971 17.335H61.7907Z" fill="#535353"/>
<path d="M66.9688 13.2715H68.3638V18.4342H71.5698V19.7183H66.9688V13.2715Z" fill="#535353"/>
<path d="M74.0829 19.0499L74.8281 17.9505C75.4606 18.3287 76.2318 18.5398 76.9596 18.531C77.6354 18.531 78.06 18.2847 78.086 17.8802C78.112 17.4932 77.8694 17.3525 77.1156 17.1766L76.3271 17.0007C74.906 16.684 74.3342 16.0244 74.3342 15.0482C74.3342 13.9752 75.4086 13.1836 76.8036 13.1836C77.7481 13.1836 78.6666 13.4738 79.3164 13.8784L78.6146 14.9778C78.1033 14.67 77.5488 14.4677 76.9336 14.4677C76.2751 14.4677 75.8158 14.6963 75.8158 15.1009C75.8158 15.4615 76.0931 15.6374 76.717 15.7781L77.5835 15.9716C78.9438 16.2707 79.507 16.8599 79.5157 17.889C79.5157 19.0059 78.4586 19.8151 76.8903 19.8151C75.8765 19.8151 74.8021 19.516 74.0742 19.0499H74.0829Z" fill="#535353"/>
<path d="M81.2695 1.11679C81.2695 0.650649 81.6161 0.272461 82.136 0.272461C82.6559 0.272461 83.0025 0.650649 83.0025 1.11679C83.0025 1.58293 82.6559 1.95232 82.136 1.95232C81.6161 1.95232 81.2695 1.57413 81.2695 1.11679ZM82.8379 1.11679C82.8379 0.7386 82.5519 0.439567 82.136 0.439567C81.7201 0.439567 81.4342 0.7386 81.4342 1.11679C81.4342 1.49498 81.7201 1.79401 82.136 1.79401C82.5519 1.79401 82.8379 1.49498 82.8379 1.11679ZM81.8068 0.677034H82.1533C82.3786 0.677034 82.4999 0.77378 82.4999 0.976067C82.4999 1.15197 82.3873 1.23992 82.266 1.23992H82.188L82.5173 1.55654H82.3006L81.98 1.23112V1.55654H81.8068V0.677034ZM82.162 1.10799C82.2573 1.10799 82.318 1.06402 82.318 0.967272C82.318 0.870526 82.2573 0.826551 82.162 0.826551H81.98V1.10799H82.162Z" fill="#535353"/>
</g>
<defs>
<clipPath id="clip0_1023_5004">
<rect width="83" height="20" fill="white"/>
</clipPath>
</defs>
</svg>
