<svg width="23" height="32" viewBox="0 0 23 32" fill="none" xmlns="http://www.w3.org/2000/svg">
<g clip-path="url(#clip0_1211_12820)">
<path d="M18.7678 0.184941C19.2469 0.184941 19.7543 0.159255 20.048 0L20.9547 5.39669H20.9032C19.1979 2.41965 18.2629 0.852785 15.28 0.852785H13.0673V15.6044C13.0673 17.3588 13.4408 18.209 14.7185 18.7407V18.7947H9.01549V18.7407C10.2957 18.209 10.6692 17.3588 10.6692 15.6044V0.850217H8.45653C5.47109 0.850217 4.53862 2.41965 2.83339 5.39412H2.7793L3.68343 0C3.97708 0.159255 4.48195 0.184941 4.96364 0.184941H18.7703H18.7678Z" fill="#622E27"/>
<path d="M4.93858 23.8883C7.71795 23.8883 14.8402 18.0318 16.0355 18.0318C16.6331 18.0318 17.7767 18.7844 17.7767 19.5345C17.7767 20.1561 17.0478 21.5303 16.53 22.4113C16.9988 22.3086 17.4135 22.2289 17.6995 22.2289C18.1142 22.2289 18.686 22.7221 18.686 22.7992C18.686 22.8506 18.6603 22.9019 18.6088 22.9019C18.5315 22.9019 18.2713 22.8506 17.8798 22.8506C17.3852 22.8506 16.8932 22.9276 16.1642 23.11C14.0082 26.9193 9.2506 32 6.83442 32C5.92514 32 5.09313 31.0676 5.09313 30.2893C5.09313 27.4381 10.9146 24.2505 14.7862 22.7735C15.7212 21.3222 16.6305 19.7143 16.6305 18.8615C16.6305 18.6534 16.5017 18.4993 16.293 18.4993C14.9665 18.4993 8.00387 24.2273 4.83297 24.2273C3.19471 24.2273 1.68782 23.1639 1.68782 21.4018C1.68782 19.9506 2.33694 18.3965 3.45487 16.84C1.06446 16.4778 -0.00195312 15.1806 -0.00195312 14.8698C-0.00195312 14.8184 0.0238056 14.7671 0.0753232 14.7671C0.126841 14.7671 0.152599 14.7928 0.232452 14.8698C0.492615 15.1292 1.32462 16.0103 3.86959 16.2954C7.50673 11.6565 15.018 7.354 20.399 7.354C22.1145 7.354 22.998 8.15799 22.998 9.19314C22.998 12.4065 11.9012 16.709 5.37905 16.9427C3.76655 18.7048 2.75423 20.4412 2.75423 21.8411C2.75423 23.11 3.42911 23.8883 4.93858 23.8883ZM6.15954 31.119C7.64067 31.119 11.9295 26.9218 14.3714 23.449C10.6029 24.7976 5.43057 27.7772 5.43057 30.3432C5.43057 30.8621 5.74225 31.1215 6.15697 31.1215L6.15954 31.119ZM5.9509 16.3211C11.5122 15.9846 22.3489 12.2781 22.3489 9.45258C22.3489 8.83097 21.7513 8.36348 20.8936 8.36348C16.6562 8.36348 9.89972 12.3038 5.9509 16.3185V16.3211Z" fill="#622E27"/>
</g>
<defs>
<clipPath id="clip0_1211_12820">
<rect width="23" height="32" fill="white"/>
</clipPath>
</defs>
</svg>
