<svg width="21" height="21" viewBox="0 0 21 21" fill="none" xmlns="http://www.w3.org/2000/svg">
<path fill-rule="evenodd" clip-rule="evenodd" d="M4.24574 0.62207C3.28132 0.62207 2.35639 1.00519 1.67444 1.68714C0.992491 2.36909 0.609375 3.29401 0.609375 4.25843V16.9857C0.609375 17.9501 0.992491 18.8751 1.67444 19.557C2.35639 20.239 3.28132 20.6221 4.24574 20.6221H16.973C17.9374 20.6221 18.8624 20.239 19.5443 19.557C20.2263 18.8751 20.6094 17.9501 20.6094 16.9857V4.25843C20.6094 3.29401 20.2263 2.36909 19.5443 1.68714C18.8624 1.00519 17.9374 0.62207 16.973 0.62207H4.24574ZM10.9185 3.80389H13.0885C13.0885 5.25843 14.3176 6.90389 16.1885 6.90389V9.07298C14.9003 8.98389 13.7994 8.77298 13.0885 8.14298V13.7212C13.0885 15.2712 11.863 17.4403 9.06028 17.4403C5.63665 17.4403 5.03119 14.3403 5.03119 13.4112C5.03119 12.4821 5.57665 9.38207 9.36938 9.38207V11.5521C8.37756 11.3421 7.20028 12.1712 7.20028 13.4112C7.20028 14.9612 8.13028 15.2712 9.06028 15.2712C9.99028 15.2712 10.9194 14.3412 10.9194 13.4112L10.9185 3.80389Z" fill="#535353"/>
</svg>
