<svg width="237" height="118" viewBox="0 0 237 118" fill="none" xmlns="http://www.w3.org/2000/svg">
<path d="M84.3691 113.61L87.3906 109.085H88.3379V117.378H87.4023V110.661L84.3809 115.104H84.334L81.3125 110.673V117.378H80.4004V109.085H81.3477L84.3691 113.61ZM98.9316 109.938H93.873V112.77H98.3984V113.623H93.873V116.525H98.9902V117.378H92.9365V109.085H98.9316V109.938ZM106.003 109.085C106.651 109.085 107.243 109.192 107.78 109.405C108.325 109.611 108.792 109.898 109.179 110.27C109.574 110.641 109.878 111.079 110.091 111.585C110.304 112.09 110.41 112.635 110.41 113.22C110.41 113.804 110.304 114.353 110.091 114.866C109.878 115.372 109.574 115.81 109.179 116.182C108.792 116.553 108.325 116.845 107.78 117.059C107.243 117.272 106.651 117.378 106.003 117.378H103.124V109.085H106.003ZM120.638 109.938H115.578V112.77H120.104V113.623H115.578V116.525H120.696V117.378H114.643V109.085H120.638V109.938ZM125.767 116.514H130.435V117.378H124.83V109.085H125.767V116.514ZM135.353 116.514H140.021V117.378H134.416V109.085H135.353V116.514ZM145.021 117.378H144.086V109.085H145.021V117.378ZM155.803 115.731V109.085H156.715V117.378H155.969L150.613 110.578V117.378H149.701V109.085H150.578L155.803 115.731ZM104.061 116.514H106.003C106.524 116.514 106.998 116.43 107.425 116.265C107.851 116.099 108.211 115.869 108.503 115.577C108.803 115.277 109.032 114.93 109.19 114.535C109.356 114.14 109.439 113.709 109.439 113.243C109.439 112.785 109.356 112.355 109.19 111.952C109.032 111.549 108.803 111.201 108.503 110.909C108.211 110.609 107.851 110.377 107.425 110.211C106.998 110.037 106.524 109.95 106.003 109.95H104.061V116.514ZM146.266 107.071L144.927 108.351H144.192L145.317 106.633L146.266 107.071ZM9.02539 75.6377C9.77296 75.6377 10.4511 75.6896 11.0596 75.7939C11.6856 75.8983 12.2596 76.055 12.7812 76.2637C13.3203 76.4723 13.8244 76.7249 14.2939 77.0205C14.7807 77.316 15.2502 77.6547 15.7021 78.0371L14.8154 79.0547C14.1027 78.4289 13.2856 77.9075 12.3643 77.4902C11.4601 77.0729 10.3208 76.8633 8.94727 76.8633C7.83434 76.8633 6.81617 77.0809 5.89453 77.5156C4.97302 77.9503 4.17323 78.5424 3.49512 79.29C2.83446 80.0377 2.32118 80.9074 1.95605 81.8984C1.59099 82.8895 1.4082 83.933 1.4082 85.0283V85.0801C1.4082 86.2626 1.58288 87.3586 1.93066 88.3672C2.29583 89.3756 2.81703 90.2453 3.49512 90.9756C4.17329 91.7059 4.99089 92.2799 5.94727 92.6973C6.92091 93.1145 8.01639 93.3232 9.2334 93.3232C9.80725 93.3232 10.3732 93.2704 10.9297 93.166C11.4859 93.0443 12.0075 92.8884 12.4941 92.6973C12.9983 92.5061 13.4677 92.2883 13.9023 92.0449C14.3371 91.7841 14.7204 91.5146 15.0508 91.2363V85.9932H8.94727V84.7412H16.3545V91.7842C15.5199 92.5144 14.4854 93.1575 13.251 93.7139C12.0337 94.2529 10.6771 94.5225 9.18164 94.5225C7.73832 94.5225 6.44262 94.2789 5.29492 93.792C4.16472 93.2877 3.20825 92.6098 2.42578 91.7578C1.64326 90.9057 1.04332 89.9145 0.625977 88.7842C0.20868 87.6366 4.24164e-05 86.4195 0 85.1328V85.0801C1.95766e-05 83.8456 0.208738 82.6634 0.625977 81.5332C1.06071 80.3855 1.66963 79.3763 2.45215 78.5068C3.25202 77.6375 4.20847 76.9416 5.32129 76.4199C6.43414 75.8983 7.66913 75.6377 9.02539 75.6377ZM166.07 75.6377C167.444 75.6377 168.696 75.8983 169.826 76.4199C170.956 76.9242 171.922 77.612 172.722 78.4814C173.521 79.3333 174.139 80.3242 174.573 81.4541C175.008 82.5844 175.226 83.7763 175.226 85.0283C175.243 85.0456 175.243 85.0628 175.226 85.0801C175.226 86.3321 174.999 87.532 174.547 88.6797C174.112 89.81 173.495 90.8102 172.695 91.6797C171.895 92.5491 170.921 93.2449 169.773 93.7666C168.643 94.2708 167.391 94.5225 166.018 94.5225C164.626 94.5224 163.366 94.2709 162.235 93.7666C161.123 93.245 160.166 92.558 159.366 91.7061C158.566 90.8366 157.949 89.8363 157.515 88.7061C157.08 87.5759 156.862 86.3847 156.862 85.1328V85.0801C156.862 83.8281 157.08 82.6371 157.515 81.5068C157.967 80.3592 158.593 79.3509 159.393 78.4814C160.192 77.612 161.158 76.9242 162.288 76.4199C163.418 75.8984 164.679 75.6377 166.07 75.6377ZM32.9746 75.9512C33.9658 75.9512 34.8622 76.081 35.6621 76.3418C36.4618 76.5852 37.1399 76.9417 37.6963 77.4111C38.2701 77.8632 38.7134 78.4114 39.0264 79.0547C39.3394 79.6807 39.4961 80.3765 39.4961 81.1416V81.1934C39.4961 81.9583 39.3572 82.6454 39.0791 83.2539C38.8183 83.8451 38.4439 84.3583 37.957 84.793C37.4876 85.2276 36.9224 85.5841 36.2617 85.8623C35.6183 86.1231 34.9136 86.3058 34.1484 86.4102L40.1738 94.21H38.4531L32.6357 86.6455H26.6631V94.21H25.3066V75.9512H32.9746ZM64.9453 94.21H63.458L61.1367 89.0977H50.3643L48.043 94.21H46.6338L55.1377 75.8203H56.4414L64.9453 94.21ZM86.7266 91.8359V75.9512H88.0303V94.21H87.0137L74.1543 77.9854V94.21H72.8496V75.9512H74.1279L86.7266 91.8359ZM103.578 75.9512C105.004 75.9512 106.308 76.1858 107.49 76.6553C108.69 77.1074 109.716 77.7423 110.568 78.5596C111.438 79.3768 112.108 80.3414 112.577 81.4541C113.047 82.5496 113.281 83.7415 113.281 85.0283V85.0801C113.281 86.3668 113.047 87.5668 112.577 88.6797C112.108 89.7926 111.438 90.7579 110.568 91.5752C109.716 92.3925 108.69 93.0363 107.49 93.5059C106.308 93.9753 105.004 94.2099 103.578 94.21H97.5V75.9512H103.578ZM135.166 84.4023H146.852V75.9512H148.208V94.21H146.852V85.6543H135.166V94.21H133.81V75.9512H135.166V84.4023ZM195.229 77.2031H188.865V94.21H187.509V77.2031H181.145V75.9512H195.229V77.2031ZM216.396 77.2031H204.762V84.376H215.222V85.6279H204.762V92.958H216.526V94.21H203.405V75.9512H216.396V77.2031ZM226.279 92.958H237V94.21H224.923V75.9512H226.279V92.958ZM166.018 76.8633C164.887 76.8633 163.844 77.0809 162.888 77.5156C161.949 77.933 161.131 78.5159 160.436 79.2637C159.757 79.9939 159.227 80.8547 158.845 81.8457C158.462 82.8369 158.271 83.898 158.271 85.0283V85.0801C158.271 86.2104 158.462 87.2805 158.845 88.2891C159.245 89.2801 159.784 90.1498 160.462 90.8975C161.157 91.6276 161.983 92.2099 162.939 92.6445C163.896 93.0793 164.94 93.2969 166.07 93.2969C167.2 93.2968 168.235 93.0882 169.174 92.6709C170.13 92.2362 170.948 91.6532 171.626 90.9229C172.321 90.1752 172.861 89.3056 173.243 88.3145C173.626 87.3234 173.817 86.2629 173.817 85.1328V85.0801C173.817 83.95 173.617 82.8895 173.217 81.8984C172.834 80.8899 172.295 80.0204 171.6 79.29C170.921 78.5423 170.104 77.9504 169.147 77.5156C168.191 77.081 167.148 76.8633 166.018 76.8633ZM98.8564 92.958H103.578C104.847 92.958 105.995 92.7573 107.021 92.3574C108.046 91.9401 108.916 91.3839 109.629 90.6885C110.342 89.9755 110.89 89.149 111.272 88.21C111.672 87.2537 111.872 86.2281 111.872 85.1328V85.0801C111.872 84.002 111.672 82.9847 111.272 82.0283C110.89 81.0719 110.342 80.2374 109.629 79.5244C108.916 78.8115 108.046 78.2464 107.021 77.8291C105.995 77.4118 104.847 77.2032 103.578 77.2031H98.8564V92.958ZM50.9375 87.8711H60.5635L55.7637 77.3076L50.9375 87.8711ZM26.6631 85.4189H32.8184C33.5835 85.4189 34.2882 85.3241 34.9316 85.1328C35.5923 84.9415 36.1575 84.6719 36.627 84.3242C37.0965 83.959 37.4618 83.5238 37.7227 83.0195C38.0008 82.498 38.1396 81.9067 38.1396 81.2461V81.1934C38.1396 79.9589 37.6784 78.9854 36.7568 78.2725C35.8526 77.5596 34.5658 77.2031 32.8965 77.2031H26.6631V85.4189ZM111.522 0.109375C115.416 -0.467183 118.266 1.24858 119.896 5.09961C121.193 8.17378 121.579 11.4721 122.342 14.6797C122.737 16.3288 123.171 17.9646 123.967 19.4707C125.421 22.2256 127.456 22.8257 130.183 21.2959C132.051 20.2474 133.419 18.646 134.663 16.9541C137.061 13.6892 138.882 10.0951 140.483 6.3916C141.761 3.43652 141.355 2.5066 138.529 0.862305L138.975 0.788086C141.228 0.418763 143.498 0.40384 145.96 0.966797C142.643 2.14419 142.018 5.14723 140.831 7.73535C139.425 10.8192 137.899 13.832 135.974 16.6299C134.777 18.3647 133.457 19.9897 131.784 21.2812C128.357 23.9313 125.235 23.5364 122.57 20.1475C121.117 18.2934 120.087 16.1954 119.177 14.041C118.238 11.8153 117.375 9.56069 116.427 7.33496C115.731 5.7049 114.983 4.08374 113.829 2.71582C112.885 1.59608 111.675 0.914581 110.202 1.5957C108.658 2.31063 108.285 3.64574 108.604 5.24219C108.948 6.93896 109.811 8.38885 110.697 9.83301C113.691 14.7185 117.176 19.2653 120.646 23.8076C127.314 32.5302 128.557 41.8822 124.496 52.0156C124.105 52.988 123.772 53.9801 123.424 54.9668C122.522 57.5053 123.078 59.485 125.092 60.9053C120.888 61.9442 120.321 61.6963 118.705 58.1025C110.945 40.8432 103.176 23.5881 95.4355 6.31445C94.4728 4.16021 93.5522 2.02999 91.1406 0.78125H100.312C97.4282 2.08245 97.9616 3.91785 98.9863 6.18652C106.217 22.1827 113.357 38.2222 120.53 54.2422C120.845 54.9475 121.222 55.6291 121.67 56.5107C126.584 45.9339 128.176 35.7189 120.859 25.7236C117.533 21.1718 114.258 16.5815 111.017 11.9678C109.63 9.98982 108.309 7.9401 107.775 5.5332C107.061 2.32085 108.286 0.586084 111.522 0.109375Z" fill="#535353"/>
</svg>
