<svg width="21" height="21" viewBox="0 0 21 21" fill="none" xmlns="http://www.w3.org/2000/svg">
<path d="M20.49 4.92591C20.4807 4.49693 20.4463 4.06886 20.387 3.64391C20.3153 3.26597 20.1932 2.89937 20.024 2.55391C19.654 1.82308 19.0606 1.22931 18.33 0.858906C17.9867 0.69063 17.6225 0.56889 17.247 0.496906C16.8188 0.436539 16.3874 0.401479 15.955 0.391906C15.772 0.384906 15.535 0.381906 15.425 0.381906L5.577 0.378906C5.467 0.378906 5.23 0.381906 5.047 0.388906C4.61802 0.398207 4.18996 0.432599 3.765 0.491906C3.38707 0.563606 3.02046 0.685696 2.675 0.854906C1.94418 1.22488 1.3504 1.8183 0.98 2.54891C0.811724 2.89221 0.689984 3.25642 0.618 3.63191C0.557298 4.06011 0.521904 4.49153 0.512 4.92391C0.506 5.10691 0.502 5.34391 0.502 5.45391L0.5 15.3019C0.5 15.4119 0.503 15.6489 0.51 15.8319C0.5193 16.2609 0.553692 16.6889 0.613 17.1139C0.6847 17.4918 0.806789 17.8584 0.976 18.2039C1.34597 18.9347 1.9394 19.5285 2.67 19.8989C3.0133 20.0672 3.37751 20.1889 3.753 20.2609C4.18123 20.3213 4.61264 20.3563 5.045 20.3659C5.228 20.3729 5.465 20.3759 5.575 20.3759L15.423 20.3779C15.533 20.3779 15.77 20.3749 15.953 20.3679C16.382 20.3586 16.81 20.3242 17.235 20.2649C17.6129 20.1932 17.9795 20.0711 18.325 19.9019C19.0562 19.5321 19.6503 18.9387 20.021 18.2079C20.1893 17.8646 20.311 17.5004 20.383 17.1249C20.4437 16.6967 20.4791 16.2653 20.489 15.8329C20.495 15.6499 20.499 15.4129 20.499 15.3029L20.5 5.45591C20.5 5.34591 20.497 5.10891 20.49 4.92591ZM10.717 17.3359H10.714C9.52352 17.3368 8.35194 17.0383 7.307 16.4679L3.527 17.4589L4.539 13.7659C3.75545 12.4062 3.44237 10.826 3.6483 9.27029C3.85423 7.71457 4.56765 6.27024 5.67797 5.16124C6.78829 4.05224 8.23347 3.34053 9.78944 3.13645C11.3454 2.93238 12.9252 3.24734 14.284 4.0325C15.6427 4.81766 16.7045 6.02917 17.3046 7.47917C17.9048 8.92917 18.0098 10.5367 17.6034 12.0524C17.197 13.5682 16.3018 14.9075 15.0568 15.8628C13.8117 16.818 12.2863 17.3358 10.717 17.3359Z" fill="#535353"/>
<path d="M10.7217 4.2803C9.66279 4.27999 8.62312 4.56337 7.71083 5.10098C6.79854 5.63859 6.04694 6.4108 5.53418 7.33729C5.02143 8.26378 4.76625 9.31072 4.79518 10.3692C4.82411 11.4278 5.1361 12.4592 5.6987 13.3563L5.8397 13.5803L5.2407 15.7663L7.4837 15.1783L7.6997 15.3063C8.61244 15.8479 9.65437 16.1332 10.7157 16.1323H10.7187C12.2905 16.1326 13.798 15.5084 14.9097 14.3972C16.0213 13.2859 16.6459 11.7786 16.6462 10.2068C16.6465 8.63499 16.0223 7.12746 14.9111 6.01584C13.7998 4.90421 12.2925 4.27956 10.7207 4.2793L10.7217 4.2803ZM14.2057 12.7503C14.0748 12.9669 13.9004 13.154 13.6935 13.2998C13.4866 13.4456 13.2517 13.5469 13.0037 13.5973C12.6294 13.6616 12.2452 13.6376 11.8817 13.5273C11.5368 13.4204 11.198 13.2949 10.8667 13.1513C9.63643 12.5339 8.5878 11.6072 7.8237 10.4623C7.40672 9.93236 7.15369 9.29212 7.0957 8.6203C7.09108 8.34304 7.14417 8.06785 7.25159 7.8122C7.35902 7.55655 7.51843 7.32604 7.7197 7.1353C7.77942 7.06762 7.85239 7.01292 7.93409 6.97456C8.01579 6.93621 8.10449 6.91501 8.1947 6.9123C8.3127 6.9123 8.4317 6.9123 8.5357 6.9183C8.6457 6.9233 8.7917 6.8763 8.9357 7.2243C9.0857 7.5803 9.4417 8.4573 9.4857 8.5463C9.51378 8.59302 9.52984 8.64597 9.53245 8.70041C9.53507 8.75485 9.52416 8.8091 9.5007 8.8583C9.45604 8.96538 9.39608 9.06542 9.3227 9.1553C9.2327 9.2593 9.1357 9.3873 9.0557 9.4673C8.9657 9.5563 8.8737 9.6523 8.9767 9.8303C9.24464 10.2881 9.57856 10.7039 9.9677 11.0643C10.3908 11.4394 10.8756 11.7385 11.4007 11.9483C11.5787 12.0383 11.6827 12.0223 11.7867 11.9033C11.8907 11.7843 12.2317 11.3833 12.3507 11.2053C12.4697 11.0273 12.5877 11.0573 12.7507 11.1163C12.9137 11.1753 13.7907 11.6063 13.9687 11.6963C14.1467 11.7863 14.2657 11.8293 14.3097 11.9033C14.3578 12.1897 14.3216 12.484 14.2057 12.7503Z" fill="#535353"/>
</svg>
