<svg width="265" height="108" viewBox="0 0 265 108" fill="none" xmlns="http://www.w3.org/2000/svg">
<path d="M2.26695 24.8282V24.6969C2.26695 12.842 10.6206 2 23.3518 2C30.301 2 34.6785 4.13839 38.9466 7.75864L36.8673 10.1972C33.5112 7.19591 29.6079 4.92621 23.1512 4.92621C12.7911 4.92621 5.53182 13.9487 5.53182 24.5468V24.6782C5.53182 36.0266 12.4263 44.4864 23.8078 44.4864C29.2249 44.4864 34.2955 42.1604 37.3962 39.478V26.8728H23.1329V23.8716H40.4422V40.7911C36.5937 44.2988 30.6294 47.375 23.6801 47.375C10.2194 47.375 2.23047 37.1521 2.23047 24.8094L2.26695 24.8282Z" fill="white" stroke="white" stroke-width="3.12824"/>
<path d="M60.3386 2.77002H78.2497C83.4845 2.77002 87.6978 4.45823 90.2513 7.10308C92.2577 9.16643 93.4797 12.1114 93.4797 15.244V15.3752C93.4797 22.7095 88.172 26.9113 80.9857 27.9055L95.0665 46.6445H91.0356L77.4472 28.4682H63.494V46.6445H60.3203V2.77002H60.3386ZM77.8849 25.5232C85.0166 25.5232 90.3243 21.8279 90.3243 15.4878V15.3565C90.3243 9.46656 85.8191 5.77128 78.0673 5.77128H63.494V25.5232H77.8849Z" fill="white" stroke="white" stroke-width="3.12824"/>
<path d="M129.013 2.4502H132.059L151.921 46.6435H148.456L143.039 34.3572H117.868L112.451 46.6435H109.168L129.031 2.4502H129.013ZM141.689 31.4122L130.472 6.03294L119.2 31.4122H141.689Z" fill="white" stroke="white" stroke-width="3.12824"/>
<path d="M169.363 2.77002H172.355L201.793 40.9421V2.77002H204.839V46.6445H202.468L172.428 7.64705V46.6445H169.382V2.77002H169.363Z" fill="white" stroke="white" stroke-width="3.12824"/>
<path d="M225.891 2.77002H240.099C253.505 2.77002 262.771 12.2427 262.771 24.5853V24.7166C262.771 37.0592 253.505 46.6632 240.099 46.6632H225.891V2.78878V2.77002ZM229.064 5.77127V43.6244H240.099C251.991 43.6244 259.488 35.2772 259.488 24.8104V24.6791C259.488 14.2685 251.991 5.75251 240.099 5.75251H229.064V5.77127Z" fill="white" stroke="white" stroke-width="3.12824"/>
<path d="M13.8203 64.126H17.0099V83.9403H44.4518V64.126H47.6414V106.92H44.4518V86.8676H17.0099V106.92H13.8203V64.126Z" fill="white"/>
<path d="M66.8594 85.6409V85.5128C66.8594 73.8401 75.4934 63.375 88.4902 63.375C101.487 63.375 109.993 73.7121 109.993 85.3848V85.5128C109.993 97.1855 101.359 107.651 88.3619 107.651C75.365 107.651 66.8594 97.3136 66.8594 85.6409ZM106.675 85.6409V85.5128C106.675 74.9379 98.9573 66.2474 88.3619 66.2474C77.7664 66.2474 70.1773 74.8098 70.1773 85.3848V85.5128C70.1773 96.0878 77.8948 104.778 88.4902 104.778C99.0856 104.778 106.675 96.2159 106.675 85.6409Z" fill="white"/>
<path d="M137.467 67.0533H122.527V64.126H155.597V67.0533H140.657V106.92H137.467V67.0533Z" fill="white"/>
<path d="M173.406 64.1257H203.909V67.053H176.596V83.8668H201.16V86.7941H176.596V103.974H204.221V106.901H173.406V64.1074V64.1257Z" fill="white"/>
<path d="M222.82 64.126H226.01V103.992H251.179V106.92H222.82V64.126Z" fill="white"/>
</svg>
